<svg viewBox="0 0 28 38" fill="none" xmlns="http://www.w3.org/2000/svg">
  <path d="M8.69116 8.55629C6.55341 8.55629 4.81445 6.81336 4.81445 4.67072C4.81445 2.52809 6.5529 0.785156 8.69116 0.785156C10.8294 0.785156 12.5684 2.52809 12.5684 4.67072C12.5684 6.81336 10.8289 8.55629 8.69116 8.55629V8.55629ZM8.69116 3.15031C7.85496 3.15031 7.17472 3.8321 7.17472 4.67072C7.17472 5.50935 7.85496 6.19114 8.69116 6.19114C9.52737 6.19114 10.2086 5.50935 10.2086 4.67072C10.2086 3.8321 9.52838 3.15031 8.69116 3.15031Z" fill="currentColor"/>
  <path d="M19.8533 13.9625C17.7155 13.9625 15.9766 12.2196 15.9766 10.077C15.9766 7.93434 17.715 6.19141 19.8533 6.19141C21.9915 6.19141 23.7305 7.93434 23.7305 10.077C23.7305 12.2196 21.991 13.9625 19.8533 13.9625ZM19.8533 8.55656C19.0171 8.55656 18.3368 9.23835 18.3368 10.077C18.3368 10.9156 19.0171 11.5974 19.8533 11.5974C20.6895 11.5974 21.3707 10.9156 21.3707 10.077C21.3707 9.23835 20.6905 8.55656 19.8533 8.55656Z" fill="currentColor"/>
  <path d="M10.355 10.209H7.02543C3.15177 10.209 0 13.3679 0 17.2505V30.6328L1.97112 28.8496C1.98382 28.8374 3.37529 27.6291 5.35912 27.6291H9.35979C9.35064 27.4759 9.3354 27.3241 9.3354 27.1683V25.2635H5.35912C4.1866 25.2635 3.16599 25.5481 2.36027 25.8928V17.2505C2.36027 14.672 4.45281 12.5741 7.02594 12.5741H10.3555C12.9286 12.5741 15.0212 14.672 15.0212 17.2505V20.5876C15.0212 21.9095 14.4659 23.0994 13.583 23.9508V26.8353C15.836 25.6611 17.3809 23.3036 17.3809 20.5876V17.2505C17.3809 13.3679 14.2292 10.209 10.3555 10.209H10.355Z" fill="currentColor"/>
  <path d="M20.6333 16.791H18.2913C18.301 16.9453 18.3248 17.095 18.3248 17.2518V19.1567H20.6333C23.2064 19.1567 25.2989 21.2545 25.2989 23.833V32.4753C24.4932 32.1301 23.4726 31.846 22.3011 31.846H17.3047C14.7316 31.846 12.6391 29.7482 12.6391 27.1697V23.8325C12.6391 22.5107 13.1943 21.3207 14.0773 20.4693V17.5848C11.8242 18.759 10.2793 21.1165 10.2793 23.8325V27.1697C10.2793 31.0522 13.4311 34.2111 17.3047 34.2111H22.3011C24.2814 34.2111 25.68 35.4245 25.6881 35.4317L27.6592 37.2148V23.8325C27.6592 19.95 24.5075 16.791 20.6338 16.791H20.6333Z" fill="currentColor"/>
</svg> 