<svg width="24" height="21" viewBox="0 0 24 21" fill="none" xmlns="http://www.w3.org/2000/svg">
<path d="M7.2207 0.000976562C7.73888 -0.00243178 8.24959 0.123631 8.70605 0.369141C9.16227 0.614555 9.54963 0.970418 9.83398 1.40332L10.6875 2.68066L10.6934 2.69043C10.7953 2.84674 10.9337 2.97387 11.0947 3.06152C11.2557 3.14915 11.4355 3.1943 11.6172 3.19434H17.8691C18.6966 3.19446 19.4882 3.52735 20.0703 4.11523C20.652 4.70285 20.9775 5.49752 20.9775 6.32422V7.62012C21.1042 7.6633 21.2289 7.71386 21.3496 7.77344C21.7768 7.98429 22.1492 8.2912 22.4395 8.66895C22.7297 9.04676 22.9299 9.4863 23.0254 9.95312C23.1206 10.4191 23.1086 10.9005 22.9912 11.3613L22.9922 11.3623L21.3682 17.752V17.7529C21.196 18.4263 20.8057 19.0247 20.2568 19.4512C19.7095 19.8764 19.0358 20.1048 18.3428 20.1016V20.1025H3.1084C2.2809 20.1025 1.48934 19.7705 0.907227 19.1826C0.3254 18.5949 0 17.7995 0 16.9727V3.12988C6.12928e-06 2.30305 0.32539 1.5076 0.907227 0.919922C1.48933 0.332162 2.28096 6.74079e-05 3.1084 0H7.2207V0.000976562ZM3.1084 2C2.81776 2.00007 2.53674 2.1165 2.32812 2.32715C2.11912 2.53825 2.00001 2.82708 2 3.12988V16.9727C2 17.2754 2.11914 17.5643 2.32812 17.7754C2.53675 17.9861 2.81771 18.1025 3.1084 18.1025H18.3496C18.5941 18.1042 18.8334 18.0233 19.0293 17.8711C19.2253 17.7188 19.3669 17.5035 19.4297 17.2578L21.0537 10.8701V10.8682C21.0967 10.6999 21.1012 10.5238 21.0664 10.3535C21.0316 10.1831 20.9582 10.0239 20.8535 9.8877C20.7489 9.75151 20.6154 9.64217 20.4639 9.56738C20.3125 9.49273 20.147 9.45387 19.9795 9.4541H8.65625L8.50879 9.46777C8.36219 9.49142 8.22093 9.54482 8.09375 9.62598C7.92417 9.73426 7.78491 9.88774 7.69336 10.0713L7.68848 10.0811L6.10742 13.1689C5.85572 13.6604 5.25325 13.8551 4.76172 13.6035C4.27021 13.3518 4.07546 12.7494 4.32715 12.2578L5.9082 9.16992C6.16049 8.66803 6.54311 8.24287 7.0166 7.94043C7.49319 7.63612 8.04407 7.4674 8.60938 7.4541H18.9775V6.32422C18.9775 6.02166 18.8581 5.73349 18.6494 5.52246C18.4408 5.31182 18.1597 5.19446 17.8691 5.19434H11.6162C11.1 5.19418 10.5921 5.06515 10.1387 4.81836C9.68821 4.57315 9.30592 4.21963 9.02441 3.79102L8.1709 2.51367L8.16406 2.50488C8.06116 2.34706 7.92173 2.21859 7.75879 2.13086C7.59581 2.04321 7.41394 1.99822 7.23047 2H3.1084Z" fill="#7E7C7C"/>
</svg>
