<svg width="22" height="21" viewBox="0 0 22 21" fill="none" xmlns="http://www.w3.org/2000/svg">
<mask id="path-1-outside-1_1_227" maskUnits="userSpaceOnUse" x="0" y="0" width="20" height="21" fill="black">
<rect fill="white" width="20" height="21"/>
<path d="M11.0264 2.05566C11.3033 2.05566 11.5698 2.1509 11.7656 2.32129C11.9613 2.49161 12.0712 2.72302 12.0713 2.96387V3.64551H12.6523C13.7717 3.64544 14.8491 4.01687 15.665 4.68359C16.481 5.35034 16.9748 6.26233 17.0449 7.23438L17.2754 10.4453C17.3646 11.6693 17.8373 12.8492 18.6416 13.8564C18.8078 14.0645 18.9095 14.3063 18.9365 14.5586C18.9636 14.811 18.9152 15.0656 18.7959 15.2969C18.6766 15.5281 18.4905 15.7287 18.2559 15.8789C18.0211 16.0291 17.7454 16.1232 17.4561 16.1533L13.8984 16.5244V17.501C13.8984 18.1635 13.5959 18.799 13.0576 19.2676C12.5191 19.7361 11.788 20 11.0264 20C10.2649 19.9999 9.53452 19.7361 8.99609 19.2676C8.45774 18.799 8.15527 18.1635 8.15527 17.501V16.5244L4.59766 16.1533C4.30863 16.1231 4.03336 16.028 3.79883 15.8779C3.56423 15.7278 3.37807 15.5271 3.25879 15.2959C3.13954 15.0648 3.09128 14.8108 3.11816 14.5586C3.14507 14.3064 3.24614 14.0645 3.41211 13.8564C4.2164 12.8492 4.6891 11.6693 4.77832 10.4453L5.00879 7.23438C5.07892 6.26234 5.57272 5.35034 6.38867 4.68359C7.20462 4.0169 8.28204 3.64544 9.40137 3.64551H9.98242V2.96387C9.9825 2.723 10.0923 2.49161 10.2881 2.32129C10.4838 2.15099 10.7496 2.05577 11.0264 2.05566ZM9.72168 16.8193V17.501C9.72168 18.1278 10.3061 18.6365 11.0264 18.6367C11.7469 18.6367 12.332 18.1279 12.332 17.501V16.8193H9.72168ZM9.40137 5.00879C8.68051 5.00871 7.98646 5.24745 7.46094 5.67676C6.93552 6.10607 6.61755 6.69345 6.57227 7.31934L6.34277 10.5303C6.23541 12.0028 5.66699 13.4222 4.69922 14.6338C4.68718 14.6488 4.6797 14.6663 4.67773 14.6846C4.67577 14.7028 4.67888 14.7215 4.6875 14.7383C4.69612 14.7549 4.70966 14.7694 4.72656 14.7803C4.74344 14.7911 4.76338 14.7976 4.78418 14.7998L8.68652 15.208C10.2414 15.3697 11.8123 15.3697 13.3672 15.208L17.2695 14.7998C17.2903 14.7976 17.3103 14.7911 17.3271 14.7803C17.344 14.7694 17.3576 14.7549 17.3662 14.7383C17.3748 14.7215 17.3779 14.7028 17.376 14.6846C17.374 14.6663 17.3665 14.6488 17.3545 14.6338C16.3871 13.4221 15.819 12.0027 15.7119 10.5303L15.4814 7.31934C15.4362 6.69344 15.1182 6.10607 14.5928 5.67676C14.0672 5.24742 13.3732 5.00871 12.6523 5.00879H9.40137ZM4.3457 1.00098C4.56207 0.990779 4.77517 1.0502 4.93848 1.16602C5.10152 1.28173 5.20274 1.44474 5.21973 1.62012C5.23661 1.79573 5.16751 1.97045 5.02832 2.10547L3.60254 3.43457C3.04895 3.94995 2.73549 4.60702 2.71777 5.29102L2.65625 7.72949C2.654 7.81787 2.62963 7.90538 2.58594 7.98633C2.54228 8.06708 2.47966 8.14009 2.40137 8.20117C2.32289 8.26237 2.23023 8.31064 2.12891 8.34277C2.0276 8.37489 1.91926 8.3905 1.81055 8.38867C1.70189 8.38682 1.59465 8.36751 1.49512 8.33203C1.39559 8.29654 1.30573 8.24537 1.23047 8.18164C1.15517 8.11786 1.09618 8.04231 1.05664 7.95996C1.01723 7.87779 0.997825 7.79032 1 7.70215L1.0625 5.26172C1.08821 4.26224 1.54583 3.3021 2.35449 2.54883L3.78125 1.2207C3.92695 1.09038 4.12942 1.01121 4.3457 1.00098Z"/>
</mask>
<path d="M11.0264 2.05566C11.3033 2.05566 11.5698 2.1509 11.7656 2.32129C11.9613 2.49161 12.0712 2.72302 12.0713 2.96387V3.64551H12.6523C13.7717 3.64544 14.8491 4.01687 15.665 4.68359C16.481 5.35034 16.9748 6.26233 17.0449 7.23438L17.2754 10.4453C17.3646 11.6693 17.8373 12.8492 18.6416 13.8564C18.8078 14.0645 18.9095 14.3063 18.9365 14.5586C18.9636 14.811 18.9152 15.0656 18.7959 15.2969C18.6766 15.5281 18.4905 15.7287 18.2559 15.8789C18.0211 16.0291 17.7454 16.1232 17.4561 16.1533L13.8984 16.5244V17.501C13.8984 18.1635 13.5959 18.799 13.0576 19.2676C12.5191 19.7361 11.788 20 11.0264 20C10.2649 19.9999 9.53452 19.7361 8.99609 19.2676C8.45774 18.799 8.15527 18.1635 8.15527 17.501V16.5244L4.59766 16.1533C4.30863 16.1231 4.03336 16.028 3.79883 15.8779C3.56423 15.7278 3.37807 15.5271 3.25879 15.2959C3.13954 15.0648 3.09128 14.8108 3.11816 14.5586C3.14507 14.3064 3.24614 14.0645 3.41211 13.8564C4.2164 12.8492 4.6891 11.6693 4.77832 10.4453L5.00879 7.23438C5.07892 6.26234 5.57272 5.35034 6.38867 4.68359C7.20462 4.0169 8.28204 3.64544 9.40137 3.64551H9.98242V2.96387C9.9825 2.723 10.0923 2.49161 10.2881 2.32129C10.4838 2.15099 10.7496 2.05577 11.0264 2.05566ZM9.72168 16.8193V17.501C9.72168 18.1278 10.3061 18.6365 11.0264 18.6367C11.7469 18.6367 12.332 18.1279 12.332 17.501V16.8193H9.72168ZM9.40137 5.00879C8.68051 5.00871 7.98646 5.24745 7.46094 5.67676C6.93552 6.10607 6.61755 6.69345 6.57227 7.31934L6.34277 10.5303C6.23541 12.0028 5.66699 13.4222 4.69922 14.6338C4.68718 14.6488 4.6797 14.6663 4.67773 14.6846C4.67577 14.7028 4.67888 14.7215 4.6875 14.7383C4.69612 14.7549 4.70966 14.7694 4.72656 14.7803C4.74344 14.7911 4.76338 14.7976 4.78418 14.7998L8.68652 15.208C10.2414 15.3697 11.8123 15.3697 13.3672 15.208L17.2695 14.7998C17.2903 14.7976 17.3103 14.7911 17.3271 14.7803C17.344 14.7694 17.3576 14.7549 17.3662 14.7383C17.3748 14.7215 17.3779 14.7028 17.376 14.6846C17.374 14.6663 17.3665 14.6488 17.3545 14.6338C16.3871 13.4221 15.819 12.0027 15.7119 10.5303L15.4814 7.31934C15.4362 6.69344 15.1182 6.10607 14.5928 5.67676C14.0672 5.24742 13.3732 5.00871 12.6523 5.00879H9.40137ZM4.3457 1.00098C4.56207 0.990779 4.77517 1.0502 4.93848 1.16602C5.10152 1.28173 5.20274 1.44474 5.21973 1.62012C5.23661 1.79573 5.16751 1.97045 5.02832 2.10547L3.60254 3.43457C3.04895 3.94995 2.73549 4.60702 2.71777 5.29102L2.65625 7.72949C2.654 7.81787 2.62963 7.90538 2.58594 7.98633C2.54228 8.06708 2.47966 8.14009 2.40137 8.20117C2.32289 8.26237 2.23023 8.31064 2.12891 8.34277C2.0276 8.37489 1.91926 8.3905 1.81055 8.38867C1.70189 8.38682 1.59465 8.36751 1.49512 8.33203C1.39559 8.29654 1.30573 8.24537 1.23047 8.18164C1.15517 8.11786 1.09618 8.04231 1.05664 7.95996C1.01723 7.87779 0.997825 7.79032 1 7.70215L1.0625 5.26172C1.08821 4.26224 1.54583 3.3021 2.35449 2.54883L3.78125 1.2207C3.92695 1.09038 4.12942 1.01121 4.3457 1.00098Z" fill="#7E7C7C"/>
<path d="M11.0264 2.05566V1.85566H11.0263L11.0264 2.05566ZM11.7656 2.32129L11.8969 2.17042L11.8969 2.17041L11.7656 2.32129ZM12.0713 2.96387H12.2713V2.9638L12.0713 2.96387ZM12.0713 3.64551H11.8713V3.84551H12.0713V3.64551ZM12.6523 3.64551V3.84551H12.6524L12.6523 3.64551ZM15.665 4.68359L15.7916 4.52872L15.7916 4.52872L15.665 4.68359ZM17.0449 7.23438L17.2444 7.22006L17.2444 7.21998L17.0449 7.23438ZM17.2754 10.4453L17.0759 10.4596L17.0759 10.4599L17.2754 10.4453ZM18.6416 13.8564L18.4853 13.9812L18.4854 13.9813L18.6416 13.8564ZM18.9365 14.5586L19.1354 14.5373V14.5373L18.9365 14.5586ZM18.7959 15.2969L18.9736 15.3886L18.9736 15.3886L18.7959 15.2969ZM18.2559 15.8789L18.3637 16.0474L18.3637 16.0474L18.2559 15.8789ZM17.4561 16.1533L17.4353 15.9544H17.4353L17.4561 16.1533ZM13.8984 16.5244L13.8777 16.3255L13.6984 16.3442V16.5244H13.8984ZM13.8984 17.501H13.6984H13.8984ZM13.0576 19.2676L13.1889 19.4185L13.1889 19.4184L13.0576 19.2676ZM11.0264 20L11.0263 20.2H11.0264V20ZM8.99609 19.2676L8.86479 19.4184L8.86481 19.4185L8.99609 19.2676ZM8.15527 17.501H8.35527H8.15527ZM8.15527 16.5244H8.35527V16.3442L8.17602 16.3255L8.15527 16.5244ZM4.59766 16.1533L4.57685 16.3522L4.57691 16.3522L4.59766 16.1533ZM3.79883 15.8779L3.69101 16.0464L3.69105 16.0464L3.79883 15.8779ZM3.25879 15.2959L3.08105 15.3876L3.08106 15.3876L3.25879 15.2959ZM3.11816 14.5586L2.91929 14.5374L2.91929 14.5374L3.11816 14.5586ZM3.41211 13.8564L3.25582 13.7316L3.25577 13.7317L3.41211 13.8564ZM4.77832 10.4453L4.97779 10.4599L4.97781 10.4596L4.77832 10.4453ZM5.00879 7.23438L4.80931 7.21998L4.8093 7.22006L5.00879 7.23438ZM6.38867 4.68359L6.26213 4.52872L6.26212 4.52872L6.38867 4.68359ZM9.40137 3.64551L9.40136 3.84551H9.40137V3.64551ZM9.98242 3.64551V3.84551H10.1824V3.64551H9.98242ZM9.98242 2.96387L9.78242 2.9638V2.96387H9.98242ZM10.2881 2.32129L10.1568 2.17041L10.1568 2.17041L10.2881 2.32129ZM9.72168 16.8193V16.6193H9.52168V16.8193H9.72168ZM11.0264 18.6367L11.0263 18.8367H11.0264V18.6367ZM12.332 16.8193H12.532V16.6193H12.332V16.8193ZM9.40137 5.00879L9.40135 5.20879H9.40137V5.00879ZM7.46094 5.67676L7.33441 5.52187L7.33439 5.52188L7.46094 5.67676ZM6.57227 7.31934L6.37279 7.3049L6.37277 7.30508L6.57227 7.31934ZM6.34277 10.5303L6.54224 10.5448L6.54226 10.5445L6.34277 10.5303ZM4.69922 14.6338L4.85539 14.7587L4.85549 14.7586L4.69922 14.6338ZM4.67773 14.6846L4.47889 14.6631L4.47888 14.6632L4.67773 14.6846ZM4.6875 14.7383L4.50969 14.8299L4.5099 14.8303L4.6875 14.7383ZM4.72656 14.7803L4.61865 14.9487L4.61866 14.9487L4.72656 14.7803ZM4.78418 14.7998L4.76282 14.9987L4.76337 14.9987L4.78418 14.7998ZM8.68652 15.208L8.66572 15.4069L8.66583 15.4069L8.68652 15.208ZM13.3672 15.208L13.3879 15.4069L13.388 15.4069L13.3672 15.208ZM17.2695 14.7998L17.2903 14.9987L17.291 14.9986L17.2695 14.7998ZM17.3271 14.7803L17.4351 14.9487L17.4352 14.9486L17.3271 14.7803ZM17.3662 14.7383L17.5438 14.8302L17.544 14.8298L17.3662 14.7383ZM17.376 14.6846L17.5748 14.6632L17.5748 14.6631L17.376 14.6846ZM17.3545 14.6338L17.1982 14.7586L17.1983 14.7587L17.3545 14.6338ZM15.7119 10.5303L15.5124 10.5446L15.5124 10.5448L15.7119 10.5303ZM15.4814 7.31934L15.6809 7.30502L15.6809 7.3049L15.4814 7.31934ZM14.5928 5.67676L14.7193 5.52188L14.7193 5.52187L14.5928 5.67676ZM12.6523 5.00879V5.20879H12.6524L12.6523 5.00879ZM4.3457 1.00098L4.33629 0.801198L4.33625 0.8012L4.3457 1.00098ZM4.93848 1.16602L5.05423 1.00292L5.05417 1.00288L4.93848 1.16602ZM5.21973 1.62012L5.41881 1.60098L5.41879 1.60083L5.21973 1.62012ZM5.02832 2.10547L5.16472 2.25179L5.16757 2.24902L5.02832 2.10547ZM3.60254 3.43457L3.73882 3.58095L3.73891 3.58086L3.60254 3.43457ZM2.71777 5.29102L2.51784 5.28584L2.51784 5.28597L2.71777 5.29102ZM2.65625 7.72949L2.85619 7.73458L2.85619 7.73454L2.65625 7.72949ZM2.58594 7.98633L2.76187 8.08145L2.76194 8.08132L2.58594 7.98633ZM2.40137 8.20117L2.52436 8.35888L2.52439 8.35886L2.40137 8.20117ZM2.12891 8.34277L2.18935 8.53342L2.18937 8.53342L2.12891 8.34277ZM1.81055 8.38867L1.80714 8.58864L1.80719 8.58864L1.81055 8.38867ZM1.49512 8.33203L1.42794 8.52041L1.42796 8.52042L1.49512 8.33203ZM1.23047 8.18164L1.1012 8.33425L1.10122 8.33427L1.23047 8.18164ZM1.05664 7.95996L0.876314 8.04646L0.876343 8.04652L1.05664 7.95996ZM1 7.70215L0.800065 7.69703L0.800061 7.69722L1 7.70215ZM1.0625 5.26172L0.862566 5.25658L0.862566 5.2566L1.0625 5.26172ZM2.35449 2.54883L2.21822 2.40244L2.21817 2.40248L2.35449 2.54883ZM3.78125 1.2207L3.64789 1.07161L3.64498 1.07431L3.78125 1.2207ZM11.0264 2.05566V2.25566C11.259 2.25566 11.4778 2.33594 11.6343 2.47217L11.7656 2.32129L11.8969 2.17041C11.6618 1.96586 11.3476 1.85566 11.0264 1.85566V2.05566ZM11.7656 2.32129L11.6343 2.47216C11.7901 2.6077 11.8712 2.78561 11.8713 2.96394L12.0713 2.96387L12.2713 2.9638C12.2712 2.66043 12.1326 2.37552 11.8969 2.17042L11.7656 2.32129ZM12.0713 2.96387H11.8713V3.64551H12.0713H12.2713V2.96387H12.0713ZM12.0713 3.64551V3.84551H12.6523V3.64551V3.44551H12.0713V3.64551ZM12.6523 3.64551L12.6524 3.84551C13.7286 3.84545 14.7606 4.20281 15.5385 4.83847L15.665 4.68359L15.7916 4.52872C14.9376 3.83093 13.8148 3.44544 12.6523 3.44551L12.6523 3.64551ZM15.665 4.68359L15.5385 4.83846C16.3158 5.47361 16.7796 6.33645 16.8454 7.24877L17.0449 7.23438L17.2444 7.21998C17.17 6.18822 16.6462 5.22706 15.7916 4.52872L15.665 4.68359ZM17.0449 7.23438L16.8454 7.24869L17.0759 10.4596L17.2754 10.4453L17.4749 10.431L17.2444 7.22006L17.0449 7.23438ZM17.2754 10.4453L17.0759 10.4599C17.1682 11.7262 17.6572 12.9442 18.4853 13.9812L18.6416 13.8564L18.7979 13.7316C18.0174 12.7543 17.561 11.6124 17.4749 10.4308L17.2754 10.4453ZM18.6416 13.8564L18.4854 13.9813C18.6291 14.1612 18.7149 14.3675 18.7377 14.5799L18.9365 14.5586L19.1354 14.5373C19.1041 14.2452 18.9865 13.9678 18.7979 13.7316L18.6416 13.8564ZM18.9365 14.5586L18.7377 14.5799C18.7605 14.7925 18.72 15.0078 18.6182 15.2052L18.7959 15.2969L18.9736 15.3886C19.1105 15.1233 19.1667 14.8296 19.1354 14.5373L18.9365 14.5586ZM18.7959 15.2969L18.6182 15.2052C18.5161 15.4029 18.3552 15.5779 18.1481 15.7104L18.2559 15.8789L18.3637 16.0474C18.6258 15.8796 18.8371 15.6533 18.9736 15.3886L18.7959 15.2969ZM18.2559 15.8789L18.1481 15.7104C17.9411 15.8429 17.6954 15.9273 17.4353 15.9544L17.4561 16.1533L17.4768 16.3522C17.7953 16.319 18.1012 16.2153 18.3637 16.0474L18.2559 15.8789ZM17.4561 16.1533L17.4353 15.9544L13.8777 16.3255L13.8984 16.5244L13.9192 16.7233L17.4768 16.3522L17.4561 16.1533ZM13.8984 16.5244H13.6984V17.501H13.8984H14.0984V16.5244H13.8984ZM13.8984 17.501H13.6984C13.6984 18.1008 13.4248 18.6828 12.9263 19.1167L13.0576 19.2676L13.1889 19.4184C13.7671 18.9152 14.0984 18.2262 14.0984 17.501H13.8984ZM13.0576 19.2676L12.9263 19.1167C12.4267 19.5514 11.7431 19.8 11.0264 19.8V20V20.2C11.8328 20.2 12.6115 19.9209 13.1889 19.4185L13.0576 19.2676ZM11.0264 20L11.0264 19.8C10.3098 19.7999 9.62692 19.5513 9.12737 19.1167L8.99609 19.2676L8.86481 19.4185C9.44212 19.9208 10.2201 20.1999 11.0263 20.2L11.0264 20ZM8.99609 19.2676L9.1274 19.1167C8.62888 18.6828 8.35527 18.1008 8.35527 17.501H8.15527H7.95527C7.95527 18.2262 8.28661 18.9152 8.86479 19.4184L8.99609 19.2676ZM8.15527 17.501H8.35527V16.5244H8.15527H7.95527V17.501H8.15527ZM8.15527 16.5244L8.17602 16.3255L4.61841 15.9544L4.59766 16.1533L4.57691 16.3522L8.13452 16.7233L8.15527 16.5244ZM4.59766 16.1533L4.61846 15.9544C4.35916 15.9273 4.11388 15.8421 3.90661 15.7095L3.79883 15.8779L3.69105 16.0464C3.95284 16.2139 4.2581 16.3189 4.57685 16.3522L4.59766 16.1533ZM3.79883 15.8779L3.90664 15.7095C3.69957 15.5769 3.53854 15.4019 3.43652 15.2042L3.25879 15.2959L3.08106 15.3876C3.21761 15.6522 3.4289 15.8786 3.69101 16.0464L3.79883 15.8779ZM3.25879 15.2959L3.43652 15.2042C3.3348 15.007 3.29439 14.7923 3.31704 14.5798L3.11816 14.5586L2.91929 14.5374C2.88816 14.8294 2.94428 15.1225 3.08105 15.3876L3.25879 15.2959ZM3.11816 14.5586L3.31703 14.5798C3.33972 14.3673 3.4251 14.1608 3.56845 13.9812L3.41211 13.8564L3.25577 13.7317C3.06718 13.9681 2.95042 14.2456 2.91929 14.5374L3.11816 14.5586ZM3.41211 13.8564L3.5684 13.9812C4.39653 12.9442 4.88548 11.7263 4.97779 10.4599L4.77832 10.4453L4.57885 10.4308C4.49272 11.6124 4.03628 12.7543 3.25582 13.7316L3.41211 13.8564ZM4.77832 10.4453L4.97781 10.4596L5.20828 7.24869L5.00879 7.23438L4.8093 7.22006L4.57883 10.431L4.77832 10.4453ZM5.00879 7.23438L5.20827 7.24877C5.27409 6.33645 5.73794 5.47361 6.51522 4.83846L6.38867 4.68359L6.26212 4.52872C5.4075 5.22706 4.88374 6.18822 4.80931 7.21998L5.00879 7.23438ZM6.38867 4.68359L6.51522 4.83847C7.29315 4.20283 8.3251 3.84545 9.40136 3.84551L9.40137 3.64551L9.40138 3.44551C8.23898 3.44544 7.11609 3.83096 6.26213 4.52872L6.38867 4.68359ZM9.40137 3.64551V3.84551H9.98242V3.64551V3.44551H9.40137V3.64551ZM9.98242 3.64551H10.1824V2.96387H9.98242H9.78242V3.64551H9.98242ZM9.98242 2.96387L10.1824 2.96394C10.1825 2.78559 10.2636 2.60771 10.4194 2.47217L10.2881 2.32129L10.1568 2.17041C9.92107 2.37552 9.78253 2.66042 9.78242 2.9638L9.98242 2.96387ZM10.2881 2.32129L10.4194 2.47217C10.5759 2.33595 10.7941 2.25575 11.0264 2.25566L11.0264 2.05566L11.0263 1.85566C10.7051 1.85578 10.3917 1.96603 10.1568 2.17041L10.2881 2.32129ZM9.72168 16.8193H9.52168V17.501H9.72168H9.92168V16.8193H9.72168ZM9.72168 17.501H9.52168C9.52168 18.2634 10.2226 18.8365 11.0263 18.8367L11.0264 18.6367L11.0264 18.4367C10.3896 18.4365 9.92168 17.9921 9.92168 17.501H9.72168ZM11.0264 18.6367V18.8367C11.8302 18.8367 12.532 18.2636 12.532 17.501H12.332H12.132C12.132 17.9921 11.6635 18.4367 11.0264 18.4367V18.6367ZM12.332 17.501H12.532V16.8193H12.332H12.132V17.501H12.332ZM12.332 16.8193V16.6193H9.72168V16.8193V17.0193H12.332V16.8193ZM9.40137 5.00879L9.40139 4.80879C8.63756 4.80871 7.89801 5.06144 7.33441 5.52187L7.46094 5.67676L7.58747 5.83164C8.0749 5.43345 8.72346 5.20872 9.40135 5.20879L9.40137 5.00879ZM7.46094 5.67676L7.33439 5.52188C6.77029 5.98281 6.42239 6.61933 6.37279 7.3049L6.57227 7.31934L6.77174 7.33377C6.81271 6.76756 7.10075 6.22934 7.58748 5.83163L7.46094 5.67676ZM6.57227 7.31934L6.37277 7.30508L6.14328 10.516L6.34277 10.5303L6.54226 10.5445L6.77176 7.33359L6.57227 7.31934ZM6.34277 10.5303L6.1433 10.5157C6.03903 11.9459 5.48685 13.3273 4.54295 14.509L4.69922 14.6338L4.85549 14.7586C5.84713 13.5172 6.4318 12.0597 6.54224 10.5448L6.34277 10.5303ZM4.69922 14.6338L4.54305 14.5088C4.50901 14.5514 4.48524 14.6043 4.47889 14.6631L4.67773 14.6846L4.87658 14.706C4.87417 14.7284 4.86536 14.7463 4.85539 14.7587L4.69922 14.6338ZM4.67773 14.6846L4.47888 14.6632C4.47297 14.718 4.48213 14.7763 4.50969 14.8298L4.6875 14.7383L4.86531 14.6467C4.87563 14.6668 4.87856 14.6876 4.87658 14.706L4.67773 14.6846ZM4.6875 14.7383L4.5099 14.8303C4.53593 14.8805 4.57466 14.9205 4.61865 14.9487L4.72656 14.7803L4.83448 14.6119C4.84466 14.6184 4.85631 14.6293 4.8651 14.6463L4.6875 14.7383ZM4.72656 14.7803L4.61866 14.9487C4.66495 14.9783 4.71536 14.9936 4.76282 14.9987L4.78418 14.7998L4.80554 14.6009C4.81139 14.6016 4.82194 14.6039 4.83446 14.6119L4.72656 14.7803ZM4.78418 14.7998L4.76337 14.9987L8.66572 15.4069L8.68652 15.208L8.70733 15.0091L4.80499 14.6009L4.78418 14.7998ZM8.68652 15.208L8.66583 15.4069C10.2344 15.5701 11.8193 15.5701 13.3879 15.4069L13.3672 15.208L13.3465 15.0091C11.8054 15.1694 10.2483 15.1694 8.70721 15.0091L8.68652 15.208ZM13.3672 15.208L13.388 15.4069L17.2903 14.9987L17.2695 14.7998L17.2487 14.6009L13.3464 15.0091L13.3672 15.208ZM17.2695 14.7998L17.291 14.9986C17.3383 14.9935 17.3887 14.9784 17.4351 14.9487L17.3271 14.7803L17.2192 14.6119C17.2319 14.6038 17.2424 14.6016 17.248 14.601L17.2695 14.7998ZM17.3271 14.7803L17.4352 14.9486C17.4789 14.9205 17.5178 14.8806 17.5438 14.8302L17.3662 14.7383L17.1886 14.6464C17.1974 14.6292 17.2091 14.6184 17.2191 14.6119L17.3271 14.7803ZM17.3662 14.7383L17.544 14.8298C17.5716 14.7763 17.5807 14.718 17.5748 14.6632L17.376 14.6846L17.1771 14.706C17.1751 14.6876 17.1781 14.6668 17.1884 14.6467L17.3662 14.7383ZM17.376 14.6846L17.5748 14.6631C17.5685 14.6043 17.5447 14.5514 17.5107 14.5088L17.3545 14.6338L17.1983 14.7587C17.1884 14.7463 17.1795 14.7284 17.1771 14.706L17.376 14.6846ZM17.3545 14.6338L17.5108 14.509C16.5672 13.3272 16.0154 11.9458 15.9114 10.5158L15.7119 10.5303L15.5124 10.5448C15.6226 12.0596 16.2069 13.517 17.1982 14.7586L17.3545 14.6338ZM15.7119 10.5303L15.9114 10.516L15.6809 7.30502L15.4814 7.31934L15.282 7.33365L15.5124 10.5446L15.7119 10.5303ZM15.4814 7.31934L15.6809 7.3049C15.6313 6.61933 15.2834 5.98281 14.7193 5.52188L14.5928 5.67676L14.4662 5.83163C14.953 6.22934 15.241 6.76756 15.282 7.33377L15.4814 7.31934ZM14.5928 5.67676L14.7193 5.52187C14.1557 5.06142 13.4162 4.80871 12.6523 4.80879L12.6523 5.00879L12.6524 5.20879C13.3303 5.20872 13.9788 5.43342 14.4662 5.83164L14.5928 5.67676ZM12.6523 5.00879V4.80879H9.40137V5.00879V5.20879H12.6523V5.00879ZM4.3457 1.00098L4.35512 1.20075C4.53066 1.19248 4.6989 1.2413 4.82278 1.32916L4.93848 1.16602L5.05417 1.00288C4.85144 0.859102 4.59348 0.789076 4.33629 0.801198L4.3457 1.00098ZM4.93848 1.16602L4.82272 1.32911C4.94579 1.41646 5.01008 1.53017 5.02066 1.6394L5.21973 1.62012L5.41879 1.60083C5.3954 1.3593 5.25725 1.147 5.05423 1.00292L4.93848 1.16602ZM5.21973 1.62012L5.02064 1.63925C5.03106 1.74761 4.98974 1.86425 4.88907 1.96191L5.02832 2.10547L5.16757 2.24902C5.34528 2.07664 5.44216 1.84385 5.41881 1.60098L5.21973 1.62012ZM5.02832 2.10547L4.89195 1.95917L3.46616 3.28828L3.60254 3.43457L3.73891 3.58086L5.16469 2.25176L5.02832 2.10547ZM3.60254 3.43457L3.46626 3.28819C2.87797 3.83586 2.5371 4.54212 2.51784 5.28584L2.71777 5.29102L2.91771 5.29619C2.93387 4.67192 3.21992 4.06404 3.73882 3.58095L3.60254 3.43457ZM2.71777 5.29102L2.51784 5.28597L2.45631 7.72445L2.65625 7.72949L2.85619 7.73454L2.91771 5.29606L2.71777 5.29102ZM2.65625 7.72949L2.45631 7.72441C2.45492 7.77915 2.43977 7.83605 2.40993 7.89134L2.58594 7.98633L2.76194 8.08132C2.81948 7.97471 2.85308 7.85659 2.85619 7.73458L2.65625 7.72949ZM2.58594 7.98633L2.41 7.89121C2.38044 7.94589 2.33653 7.99809 2.27834 8.04348L2.40137 8.20117L2.52439 8.35886C2.62279 8.28209 2.70412 8.18827 2.76187 8.08145L2.58594 7.98633ZM2.40137 8.20117L2.27838 8.04346C2.21971 8.08921 2.14849 8.12674 2.06845 8.15213L2.12891 8.34277L2.18937 8.53342C2.31196 8.49454 2.42606 8.43554 2.52436 8.35888L2.40137 8.20117ZM2.12891 8.34277L2.06846 8.15213C1.98828 8.17755 1.90152 8.19017 1.81391 8.1887L1.81055 8.38867L1.80719 8.58864C1.937 8.59082 2.06692 8.57224 2.18935 8.53342L2.12891 8.34277ZM1.81055 8.38867L1.81395 8.1887C1.7265 8.18721 1.64083 8.17165 1.56228 8.14364L1.49512 8.33203L1.42796 8.52042C1.54846 8.56338 1.67727 8.58643 1.80714 8.58864L1.81055 8.38867ZM1.49512 8.33203L1.5623 8.14365C1.48399 8.11572 1.41546 8.07622 1.35971 8.02901L1.23047 8.18164L1.10122 8.33427C1.196 8.41452 1.3072 8.47735 1.42794 8.52041L1.49512 8.33203ZM1.23047 8.18164L1.35974 8.02903C1.30449 7.98224 1.26352 7.92878 1.23694 7.8734L1.05664 7.95996L0.876343 8.04652C0.92883 8.15585 1.00584 8.25348 1.1012 8.33425L1.23047 8.18164ZM1.05664 7.95996L1.23697 7.87346C1.21057 7.81843 1.19858 7.76217 1.19994 7.70708L1 7.70215L0.800061 7.69722C0.79707 7.81847 0.823884 7.93716 0.876314 8.04646L1.05664 7.95996ZM1 7.70215L1.19993 7.70727L1.26243 5.26684L1.0625 5.26172L0.862566 5.2566L0.800066 7.69703L1 7.70215ZM1.0625 5.26172L1.26243 5.26686C1.28661 4.32708 1.71685 3.41613 2.49081 2.69517L2.35449 2.54883L2.21817 2.40248C1.37482 3.18808 0.889814 4.19741 0.862566 5.25658L1.0625 5.26172ZM2.35449 2.54883L2.49076 2.69522L3.91752 1.36709L3.78125 1.2207L3.64498 1.07431L2.21822 2.40244L2.35449 2.54883ZM3.78125 1.2207L3.91459 1.36977C4.02257 1.27319 4.17988 1.20904 4.35515 1.20075L4.3457 1.00098L4.33625 0.8012C4.07896 0.813369 3.83133 0.907572 3.64791 1.07164L3.78125 1.2207Z" fill="#7E7C7C" mask="url(#path-1-outside-1_1_227)"/>
<circle cx="17" cy="5" r="5" fill="#5570F1"/>
</svg>
