<svg width="24" height="24" viewBox="0 0 24 24" fill="none" xmlns="http://www.w3.org/2000/svg">
<path d="M5.81445 2.05957C6.3972 1.94131 7.00113 2.0015 7.5498 2.2334C8.09831 2.46526 8.56638 2.85783 8.89551 3.36035C9.22454 3.86292 9.40039 4.45397 9.40039 5.05762L9.38965 5.30371C9.34642 5.82316 9.17005 6.32215 8.88086 6.75391L10.9189 9.35254C11.2752 9.20979 11.6561 9.13943 12.04 9.14355C12.4769 9.14826 12.9074 9.25021 13.3008 9.44336C13.6941 9.63658 14.041 9.91611 14.3164 10.2607C14.5591 10.5644 14.7411 10.913 14.8535 11.2861H17.5508C17.7324 10.6944 18.0848 10.1701 18.5674 9.78711C19.091 9.37164 19.736 9.1446 20.4004 9.14258L20.6104 9.15039C21.0978 9.18453 21.5709 9.33958 21.9873 9.60352C22.463 9.90516 22.8459 10.337 23.0928 10.8486C23.3395 11.3602 23.4414 11.9321 23.3857 12.499C23.33 13.066 23.119 13.6068 22.7773 14.0586C22.4357 14.5102 21.9763 14.8562 21.4512 15.0557C20.9258 15.2551 20.3552 15.2998 19.8057 15.1855C19.2564 15.0712 18.75 14.8018 18.3438 14.4092C17.9749 14.0525 17.7034 13.6061 17.5508 13.1143H14.8535C14.7411 13.4874 14.5591 13.836 14.3164 14.1396C14.0409 14.4843 13.6942 14.7638 13.3008 14.957C12.9073 15.1502 12.4761 15.2532 12.0391 15.2578C11.655 15.2618 11.2743 15.1898 10.918 15.0469L8.88086 17.6455C9.17029 18.0775 9.34646 18.5769 9.38965 19.0967L9.40039 19.3428C9.40032 19.9464 9.22458 20.5375 8.89551 21.04C8.56636 21.5425 8.09827 21.9352 7.5498 22.167C7.00119 22.3988 6.39713 22.4591 5.81445 22.3408C5.2318 22.2226 4.69662 21.9307 4.27734 21.5029C3.85834 21.0753 3.57348 20.5305 3.45801 19.9385C3.34265 19.3465 3.40162 18.7327 3.62793 18.1748C3.85448 17.6167 4.2391 17.1382 4.73242 16.8018C5.22578 16.4655 5.8063 16.2861 6.40039 16.2861H6.40137C6.77143 16.2878 7.13782 16.3581 7.48145 16.4951L9.51953 13.8975C9.18351 13.3983 9.00105 12.8073 9.00098 12.2002C9.00098 11.5927 9.18326 11.0013 9.51953 10.502L7.48145 7.9043C7.13776 8.04137 6.7715 8.11255 6.40137 8.11426H6.40039C5.80638 8.11426 5.22574 7.93479 4.73242 7.59863C4.23911 7.2623 3.85453 6.7836 3.62793 6.22559C3.40156 5.66774 3.34273 5.05385 3.45801 4.46191C3.57342 3.86989 3.85836 3.32518 4.27734 2.89746C4.69663 2.46964 5.23174 2.17786 5.81445 2.05957ZM5.85449 22.1455C5.92225 22.1592 5.99036 22.1702 6.05859 22.1787C5.9903 22.1701 5.9223 22.1583 5.85449 22.1445C5.78689 22.1308 5.71943 22.1154 5.65332 22.0967C5.71959 22.1154 5.78675 22.1318 5.85449 22.1455ZM8.48535 21.248C8.52722 21.2004 8.56869 21.1522 8.60742 21.1016L8.6123 21.0938C8.5716 21.1467 8.5292 21.1981 8.48535 21.248ZM15.501 17.7148C16.3882 17.715 17.1004 18.4474 17.1006 19.3428C17.1004 20.2381 16.3882 20.9715 15.501 20.9717C14.6136 20.9717 13.9006 20.2382 13.9004 19.3428C13.9005 18.4473 14.6136 17.7148 15.501 17.7148ZM15.3574 20.7646H15.377C15.3586 20.763 15.3404 20.7612 15.3223 20.7588C15.334 20.7604 15.3456 20.7634 15.3574 20.7646ZM15.2012 20.7373C15.2176 20.7411 15.2343 20.7439 15.251 20.7471C15.2343 20.7439 15.2176 20.741 15.2012 20.7373ZM5.80176 20.6348C5.81385 20.6406 5.82661 20.6449 5.83887 20.6504C5.79538 20.6309 5.75244 20.6099 5.71094 20.5859L5.80176 20.6348ZM6.16699 18.1377C5.93501 18.1848 5.72082 18.3011 5.55273 18.4727C5.38478 18.6442 5.27023 18.8636 5.22363 19.1025C5.17713 19.3415 5.20075 19.5896 5.29199 19.8145C5.38332 20.0392 5.53818 20.2308 5.73535 20.3652C5.93256 20.4996 6.16402 20.5713 6.40039 20.5713C6.71722 20.5713 7.02173 20.4427 7.24707 20.2129C7.47249 19.9829 7.60049 19.6698 7.60059 19.3428C7.60053 19.0992 7.52954 18.8611 7.39746 18.6592C7.26514 18.4571 7.07717 18.2995 6.8584 18.207C6.63964 18.1146 6.39895 18.0906 6.16699 18.1377ZM5.02734 19.0635C5.02055 19.0983 5.01496 19.1338 5.01074 19.1689L5.02734 19.0645C5.03884 19.0055 5.05365 18.9473 5.07227 18.8906C5.05372 18.947 5.03882 19.0047 5.02734 19.0635ZM7.56445 18.5498C7.58368 18.5792 7.60216 18.609 7.61914 18.6396C7.63596 18.67 7.65147 18.701 7.66602 18.7324C7.65132 18.7008 7.63612 18.6693 7.61914 18.6387C7.60218 18.6081 7.58367 18.5782 7.56445 18.5488C7.55717 18.5377 7.54859 18.5275 7.54102 18.5166C7.54872 18.5278 7.55704 18.5385 7.56445 18.5498ZM7.4834 18.4395C7.47383 18.4275 7.46403 18.4159 7.4541 18.4043C7.46406 18.4158 7.47382 18.4275 7.4834 18.4395ZM6.93652 18.0234C6.96824 18.0369 6.99969 18.0508 7.03027 18.0664C6.99966 18.0506 6.96838 18.0359 6.93652 18.0225C6.91062 18.0115 6.88381 18.0025 6.85742 17.9932C6.88396 18.0025 6.91049 18.0124 6.93652 18.0234ZM4.53809 17.208C4.48252 17.2585 4.42926 17.3115 4.37793 17.3662C4.47064 17.2674 4.57056 17.1754 4.67676 17.0908L4.53809 17.208ZM19.8467 14.9902C19.9085 15.0031 19.9709 15.012 20.0332 15.0205C19.9709 15.012 19.9086 15.0021 19.8467 14.9893C19.7826 14.9759 19.719 14.9611 19.6562 14.9434C19.719 14.9612 19.7826 14.9769 19.8467 14.9902ZM21.0088 14.9795C21.071 14.9654 21.133 14.95 21.1943 14.9316L21.1963 14.9307C21.1343 14.9492 21.0717 14.9653 21.0088 14.9795ZM18.4824 14.2656C18.5298 14.3114 18.5787 14.3553 18.6289 14.3975C18.5786 14.3553 18.5299 14.3105 18.4824 14.2646C18.4352 14.219 18.3895 14.1718 18.3457 14.123C18.3896 14.1719 18.4351 14.2198 18.4824 14.2656ZM22.6182 13.9375L22.7188 13.7959C22.7208 13.7929 22.7216 13.7891 22.7236 13.7861C22.6899 13.8374 22.6553 13.8884 22.6182 13.9375ZM3.60059 10.5713C4.48789 10.5715 5.2002 11.3047 5.2002 12.2002C5.19999 13.0955 4.48777 13.8289 3.60059 13.8291C2.71325 13.8291 2.00021 13.0956 2 12.2002C2 11.3046 2.71312 10.5713 3.60059 10.5713ZM3.45703 13.6211L3.60059 13.6289C3.6474 13.6289 3.69363 13.6257 3.73926 13.6211C3.69363 13.6257 3.64739 13.6279 3.60059 13.6279C3.50808 13.6279 3.41757 13.6181 3.33008 13.6006C3.37182 13.6089 3.41405 13.6166 3.45703 13.6211ZM11.7676 10.9951C11.5356 11.0422 11.3214 11.1586 11.1533 11.3301C10.9853 11.5016 10.8698 11.721 10.8232 11.96C10.7768 12.1989 10.8013 12.4471 10.8926 12.6719C10.9839 12.8965 11.138 13.0883 11.335 13.2227C11.5322 13.3571 11.7646 13.4287 12.001 13.4287C12.3177 13.4286 12.6224 13.3001 12.8477 13.0703C13.0731 12.8403 13.2001 12.5272 13.2002 12.2002C13.2002 11.9564 13.1293 11.7177 12.9971 11.5156C12.8648 11.3138 12.6766 11.1569 12.458 11.0645C12.2395 10.9722 11.9993 10.9482 11.7676 10.9951ZM20.168 10.9951C19.936 11.0422 19.7218 11.1586 19.5537 11.3301C19.3857 11.5016 19.2702 11.721 19.2236 11.96C19.1772 12.1989 19.2017 12.4471 19.293 12.6719C19.3843 12.8965 19.5384 13.0883 19.7354 13.2227C19.9324 13.357 20.1642 13.4286 20.4004 13.4287C20.7173 13.4287 21.0227 13.3002 21.248 13.0703C21.4734 12.8403 21.6005 12.5272 21.6006 12.2002C21.6006 11.9564 21.5297 11.7177 21.3975 11.5156C21.2652 11.3138 21.077 11.1569 20.8584 11.0645C20.6399 10.9722 20.3997 10.9482 20.168 10.9951ZM12.9902 13.21L13.084 13.1055C13.0969 13.0894 13.107 13.0713 13.1191 13.0547C13.0795 13.1087 13.0376 13.1617 12.9902 13.21ZM23.1865 12.4795L23.1982 12.3047C23.1984 12.3008 23.1981 12.2969 23.1982 12.293C23.1961 12.355 23.1926 12.4175 23.1865 12.4795ZM10.627 11.9209C10.61 12.0081 10.6023 12.0964 10.6016 12.1846C10.6022 12.1315 10.6049 12.0783 10.6113 12.0254L10.627 11.9219V11.9209ZM19.0273 11.9209C19.0103 12.0081 19.0027 12.0964 19.002 12.1846C19.0025 12.1315 19.0053 12.0783 19.0117 12.0254L19.0273 11.9219V11.9209ZM11.0107 11.1895C10.9479 11.2536 10.892 11.3239 10.8428 11.3984C10.8728 11.3531 10.9052 11.3092 10.9404 11.2676L11.0107 11.1904C11.0517 11.1486 11.0952 11.1094 11.1406 11.0732C11.0953 11.1093 11.0517 11.1477 11.0107 11.1895ZM19.543 11.0723C19.497 11.1086 19.4526 11.1472 19.4111 11.1895C19.3483 11.2536 19.2924 11.3239 19.2432 11.3984C19.2732 11.3531 19.3056 11.3092 19.3408 11.2676L19.4111 11.1904C19.4527 11.1481 19.4969 11.1088 19.543 11.0723ZM11.5283 10.8545C11.5098 10.8613 11.4918 10.8694 11.4736 10.877C11.5236 10.8562 11.5747 10.838 11.627 10.8232L11.5283 10.8545ZM19.9287 10.8545C19.9102 10.8613 19.8922 10.8694 19.874 10.877C19.924 10.8562 19.9751 10.838 20.0273 10.8232L19.9287 10.8545ZM21.1387 9.44336C21.054 9.41983 20.9683 9.40044 20.8818 9.38477C20.9684 9.40016 21.054 9.41986 21.1387 9.44336ZM20.5967 9.34961C20.6849 9.35579 20.7725 9.36615 20.8594 9.38086C20.8363 9.37689 20.8133 9.37244 20.79 9.36914C20.7256 9.36 20.6608 9.35317 20.5957 9.34863L20.5967 9.34961ZM4.99902 7.53027C5.00441 7.53345 5.01022 7.53592 5.01562 7.53906C4.95774 7.50544 4.90037 7.47056 4.84473 7.43262L4.99902 7.53027ZM15.501 3.42871C16.3883 3.42888 17.1006 4.16211 17.1006 5.05762C17.1002 5.95282 16.3881 6.68538 15.501 6.68555C14.6137 6.68555 13.9007 5.95293 13.9004 5.05762C13.9004 4.162 14.6135 3.42871 15.501 3.42871ZM15.3574 6.47852L15.501 6.48633C15.5484 6.48632 15.5953 6.48324 15.6416 6.47852C15.5954 6.48323 15.5484 6.48534 15.501 6.48535C15.4044 6.48535 15.3098 6.47507 15.2188 6.45605C15.2642 6.46555 15.3104 6.47364 15.3574 6.47852ZM6.63379 3.85254C6.40181 3.80545 6.16117 3.82941 5.94238 3.92188C5.72366 4.01437 5.53562 4.17102 5.40332 4.37305C5.27106 4.57514 5.2002 4.81385 5.2002 5.05762C5.20037 5.38445 5.32745 5.69779 5.55273 5.92773C5.77809 6.15758 6.08352 6.28613 6.40039 6.28613C6.63669 6.28612 6.86826 6.21442 7.06543 6.08008C7.26264 5.94563 7.41745 5.75313 7.50879 5.52832C7.59985 5.30372 7.62351 5.05605 7.57715 4.81738C7.53056 4.57839 7.41511 4.35904 7.24707 4.1875C7.07903 4.01605 6.86569 3.89965 6.63379 3.85254ZM5.5127 6.16211C5.52324 6.17093 5.53513 6.17804 5.5459 6.18652C5.53061 6.1745 5.51482 6.16309 5.5 6.15039L5.5127 6.16211ZM14.1006 5.05762C14.1006 5.10672 14.1027 5.15529 14.1074 5.20312C14.1126 5.25477 14.1205 5.3056 14.1309 5.35547C14.1108 5.25922 14.1006 5.15899 14.1006 5.05664V5.05762ZM16.9004 5.05762C16.9003 5.15498 16.8903 5.24991 16.8721 5.3418C16.8811 5.29626 16.8889 5.25011 16.8936 5.20312L16.9004 5.05762Z" fill="#7E7C7C"/>
</svg>
