<svg width="35" height="35" viewBox="0 0 35 35" fill="none" xmlns="http://www.w3.org/2000/svg">
<path d="M23.1001 2.5C23.6521 2.50032 24.1001 2.94791 24.1001 3.5V5.2998H27.3003C29.3985 5.30023 31.0999 7.00137 31.1001 9.09961V28.7002C31.1 30.7985 29.3986 32.4996 27.3003 32.5H7.69971C5.60118 32.4999 3.90001 30.7987 3.8999 28.7002V9.09961C3.90011 7.00117 5.60124 5.29991 7.69971 5.2998H10.8999V3.5C10.8999 2.94772 11.3476 2.5 11.8999 2.5C12.452 2.50021 12.8999 2.94785 12.8999 3.5V5.2998H22.1001V3.5C22.1001 2.94772 22.5478 2.5 23.1001 2.5ZM5.8999 28.7002C5.90001 29.6942 6.70575 30.4999 7.69971 30.5H27.3003C28.294 30.4996 29.1 29.694 29.1001 28.7002V15.7002H5.8999V28.7002ZM11.9136 24.9004C12.4657 24.9006 12.9136 25.3482 12.9136 25.9004C12.9134 26.4524 12.4655 26.9002 11.9136 26.9004H11.8999C11.3477 26.9004 10.9001 26.4525 10.8999 25.9004C10.8999 25.3481 11.3476 24.9004 11.8999 24.9004H11.9136ZM17.5142 24.9004C18.0661 24.9007 18.5142 25.3483 18.5142 25.9004C18.5139 26.4523 18.066 26.9 17.5142 26.9004H17.4995C16.9475 26.9002 16.4997 26.4524 16.4995 25.9004C16.4995 25.3482 16.9474 24.9006 17.4995 24.9004H17.5142ZM23.1138 24.9004C23.6659 24.9006 24.1138 25.3482 24.1138 25.9004C24.1136 26.4524 23.6657 26.9002 23.1138 26.9004H23.1001C22.5479 26.9004 22.1003 26.4525 22.1001 25.9004C22.1001 25.3481 22.5478 24.9004 23.1001 24.9004H23.1138ZM11.9136 19.2998C12.4656 19.3 12.9135 19.7477 12.9136 20.2998C12.9136 20.852 12.4657 21.2996 11.9136 21.2998H11.8999C11.3476 21.2998 10.8999 20.8521 10.8999 20.2998C10.9 19.7476 11.3477 19.2998 11.8999 19.2998H11.9136ZM17.5142 19.2998C18.0661 19.3002 18.5141 19.7478 18.5142 20.2998C18.5142 20.8519 18.0661 21.2995 17.5142 21.2998H17.4995C16.9474 21.2996 16.4995 20.852 16.4995 20.2998C16.4996 19.7477 16.9475 19.3 17.4995 19.2998H17.5142ZM23.1138 19.2998C23.6658 19.3 24.1137 19.7477 24.1138 20.2998C24.1138 20.852 23.6659 21.2996 23.1138 21.2998H23.1001C22.5478 21.2998 22.1001 20.8521 22.1001 20.2998C22.1002 19.7476 22.5479 19.2998 23.1001 19.2998H23.1138ZM7.69971 7.2998C6.70581 7.29991 5.90011 8.10574 5.8999 9.09961V13.7002H29.1001V9.09961C29.0999 8.10594 28.2939 7.30023 27.3003 7.2998H24.1001V9.09961C24.1001 9.6517 23.6521 10.0993 23.1001 10.0996C22.5478 10.0996 22.1001 9.65189 22.1001 9.09961V7.2998H12.8999V9.09961C12.8999 9.65176 12.452 10.0994 11.8999 10.0996C11.3476 10.0996 10.8999 9.65189 10.8999 9.09961V7.2998H7.69971Z" fill="#7E7C7C"/>
</svg>
