<svg width="35" height="35" viewBox="0 0 35 35" fill="none" xmlns="http://www.w3.org/2000/svg">
<path d="M13.8511 21.5869C16.6739 21.5869 19.379 21.7977 21.4009 22.4756C22.4155 22.8158 23.3138 23.292 23.9653 23.9678C24.6347 24.6621 25.0131 25.5383 25.0132 26.5859C25.0131 27.6318 24.6378 28.5083 23.9722 29.2051C23.3238 29.8836 22.4286 30.3633 21.4155 30.707C19.3968 31.3918 16.6907 31.6084 13.8511 31.6084C11.0279 31.6084 8.32299 31.3997 6.30127 30.7236C5.28684 30.3844 4.38845 29.9097 3.73682 29.2344C3.0673 28.5403 2.68898 27.6642 2.68896 26.6162C2.68906 25.5701 3.06349 24.6925 3.729 23.9951C4.37725 23.3161 5.27258 22.8356 6.28564 22.4912C8.3044 21.8051 11.0105 21.5869 13.8511 21.5869ZM13.8511 23.0869C11.0449 23.0869 8.54438 23.3088 6.76904 23.9121C5.88551 24.2124 5.23554 24.5896 4.81396 25.0312C4.40992 25.4547 4.18905 25.963 4.18896 26.6162C4.18898 27.2679 4.41077 27.7723 4.81592 28.1924C5.23904 28.631 5.89058 29.0044 6.77686 29.3008C8.55728 29.8961 11.059 30.1084 13.8511 30.1084C16.6569 30.1084 19.1575 29.8884 20.9331 29.2861C21.8169 28.9863 22.4667 28.61 22.8882 28.1689C23.2921 27.7461 23.5131 27.2385 23.5132 26.5859C23.5131 25.9348 23.2908 25.4295 22.8853 25.0088C22.4618 24.5696 21.8096 24.1956 20.9233 23.8984C19.1429 23.3016 16.6417 23.0869 13.8511 23.0869ZM27.6626 20.873C28.8834 21.0549 30.0119 21.3709 30.853 21.9229C31.7318 22.4995 32.311 23.3502 32.311 24.499C32.311 25.2686 32.0497 25.9294 31.5776 26.4629C31.1195 26.9805 30.4922 27.3464 29.7974 27.6104C29.4102 27.7573 28.9767 27.5629 28.8296 27.1758C28.6825 26.7886 28.8771 26.3552 29.2642 26.208C29.8229 25.9958 30.2113 25.7437 30.4546 25.4688C30.6839 25.2096 30.811 24.9024 30.811 24.499C30.811 23.9435 30.5651 23.528 30.0298 23.1768C29.4568 22.8009 28.5811 22.5271 27.4419 22.3574C27.0324 22.2964 26.7493 21.9144 26.8101 21.5049C26.8711 21.0953 27.253 20.8122 27.6626 20.873ZM13.8511 3.3916C17.9482 3.39175 21.2723 6.71296 21.2739 10.8115L21.2651 11.1924C21.0814 15.1026 17.859 18.2225 13.9009 18.2373H13.8511C9.75142 18.2373 6.42641 14.9145 6.42627 10.8145C6.42635 6.71434 9.75139 3.3916 13.8511 3.3916ZM13.8511 4.8916C10.5794 4.8916 7.92635 7.54321 7.92627 10.8145C7.92641 14.0856 10.5794 16.7373 13.8511 16.7373H13.895C17.1531 16.7252 19.7859 14.0747 19.7739 10.8174V10.8145C19.7738 7.54319 17.121 4.89175 13.8511 4.8916ZM23.7124 5.71484C23.7796 5.30636 24.1652 5.0288 24.5737 5.0957C27.3147 5.54544 29.4056 7.92377 29.4058 10.791V10.792C29.4005 13.7012 27.2435 16.1042 24.4429 16.498C24.0327 16.5557 23.6529 16.2695 23.5952 15.8594C23.5377 15.4493 23.8238 15.0694 24.2339 15.0117C26.305 14.7204 27.9011 12.9422 27.9058 10.791L27.9009 10.5928C27.808 8.56154 26.2956 6.89869 24.3315 6.57617C23.9229 6.50915 23.6455 6.12349 23.7124 5.71484Z" fill="#7E7C7C"/>
<path d="M13.8511 21.5869L13.8511 21.3369H13.8511V21.5869ZM21.4009 22.4756L21.4804 22.2386L21.4803 22.2386L21.4009 22.4756ZM23.9653 23.9678L24.1453 23.7943L24.1453 23.7943L23.9653 23.9678ZM25.0132 26.5859L25.2632 26.5859V26.5859L25.0132 26.5859ZM23.9722 29.2051L24.1529 29.3778L24.1529 29.3778L23.9722 29.2051ZM21.4155 30.707L21.4958 30.9438L21.4958 30.9438L21.4155 30.707ZM13.8511 31.6084V31.8584H13.8511L13.8511 31.6084ZM6.30127 30.7236L6.22198 30.9607H6.22199L6.30127 30.7236ZM3.73682 29.2344L3.55689 29.4079L3.55691 29.408L3.73682 29.2344ZM2.68896 26.6162L2.43896 26.6162V26.6162L2.68896 26.6162ZM3.729 23.9951L3.54817 23.8225L3.54814 23.8225L3.729 23.9951ZM6.28564 22.4912L6.20519 22.2545L6.20518 22.2545L6.28564 22.4912ZM13.8511 23.0869L13.8511 22.8369H13.8511V23.0869ZM6.76904 23.9121L6.6886 23.6754L6.68858 23.6754L6.76904 23.9121ZM4.81396 25.0312L4.63313 24.8586L4.63308 24.8587L4.81396 25.0312ZM4.18896 26.6162L3.93896 26.6162V26.6162L4.18896 26.6162ZM4.81592 28.1924L4.63597 28.3659L4.63599 28.366L4.81592 28.1924ZM6.77686 29.3008L6.69756 29.5379L6.69757 29.5379L6.77686 29.3008ZM13.8511 30.1084V30.3584H13.8511L13.8511 30.1084ZM20.9331 29.2861L21.0134 29.5229L21.0134 29.5229L20.9331 29.2861ZM22.8882 28.1689L23.0689 28.3417L23.069 28.3416L22.8882 28.1689ZM23.5132 26.5859L23.7632 26.586V26.5859L23.5132 26.5859ZM22.8853 25.0088L23.0652 24.8353L23.0652 24.8353L22.8853 25.0088ZM20.9233 23.8984L21.0028 23.6614L21.0028 23.6614L20.9233 23.8984ZM27.6626 20.873L27.6994 20.6258L27.6993 20.6258L27.6626 20.873ZM30.853 21.9229L30.9902 21.7138L30.9902 21.7138L30.853 21.9229ZM32.311 24.499L32.561 24.499V24.499H32.311ZM31.5776 26.4629L31.7648 26.6286L31.7649 26.6286L31.5776 26.4629ZM29.7974 27.6104L29.8861 27.8441L29.8862 27.8441L29.7974 27.6104ZM28.8296 27.1758L28.5959 27.2646L28.5959 27.2646L28.8296 27.1758ZM29.2642 26.208L29.1754 25.9743L29.1753 25.9743L29.2642 26.208ZM30.4546 25.4688L30.6418 25.6344L30.6418 25.6344L30.4546 25.4688ZM30.811 24.499L31.061 24.4991V24.499H30.811ZM30.0298 23.1768L30.1669 22.9677L30.1669 22.9677L30.0298 23.1768ZM27.4419 22.3574L27.405 22.6047L27.4051 22.6047L27.4419 22.3574ZM26.8101 21.5049L26.5628 21.4681L26.5628 21.4682L26.8101 21.5049ZM13.8511 3.3916L13.8511 3.1416H13.8511V3.3916ZM21.2739 10.8115L21.5239 10.8173L21.5239 10.8114L21.2739 10.8115ZM21.2651 11.1924L21.5149 11.2041L21.5151 11.1982L21.2651 11.1924ZM13.9009 18.2373V18.4873L13.9018 18.4873L13.9009 18.2373ZM13.8511 18.2373V18.4873V18.2373ZM6.42627 10.8145L6.17627 10.8144V10.8145L6.42627 10.8145ZM13.8511 4.8916L13.8511 4.6416H13.8511V4.8916ZM7.92627 10.8145L7.67627 10.8144V10.8145L7.92627 10.8145ZM13.8511 16.7373V16.9873V16.7373ZM13.895 16.7373V16.9873L13.896 16.9873L13.895 16.7373ZM19.7739 10.8174H19.5239L19.5239 10.8183L19.7739 10.8174ZM19.7739 10.8145H20.0239V10.8144L19.7739 10.8145ZM23.7124 5.71484L23.4657 5.67426L23.4657 5.67447L23.7124 5.71484ZM24.5737 5.0957L24.6142 4.849L24.6141 4.84899L24.5737 5.0957ZM29.4058 10.791H29.6558V10.791L29.4058 10.791ZM29.4058 10.792L29.6558 10.7924V10.792H29.4058ZM24.4429 16.498L24.4777 16.7456L24.4777 16.7456L24.4429 16.498ZM23.5952 15.8594L23.3476 15.8941L23.3476 15.8942L23.5952 15.8594ZM24.2339 15.0117L24.2687 15.2593L24.2687 15.2593L24.2339 15.0117ZM27.9058 10.791L28.1559 10.7916L28.1557 10.7849L27.9058 10.791ZM27.9009 10.5928L28.1509 10.5866L28.1506 10.5814L27.9009 10.5928ZM24.3315 6.57617L24.3721 6.32948L24.372 6.32947L24.3315 6.57617ZM13.8511 21.5869L13.8511 21.8369C16.6685 21.8369 19.3397 22.0482 21.3214 22.7126L21.4009 22.4756L21.4803 22.2386C19.4182 21.5472 16.6792 21.3369 13.8511 21.3369L13.8511 21.5869ZM21.4009 22.4756L21.3214 22.7126C22.3145 23.0456 23.1718 23.5049 23.7854 24.1413L23.9653 23.9678L24.1453 23.7943C23.4558 23.0791 22.5164 22.5859 21.4804 22.2386L21.4009 22.4756ZM23.9653 23.9678L23.7853 24.1413C24.4108 24.7901 24.7631 25.6045 24.7632 26.586L25.0132 26.5859L25.2632 26.5859C25.2631 25.4722 24.8586 24.5342 24.1453 23.7943L23.9653 23.9678ZM25.0132 26.5859L24.7632 26.5859C24.7631 27.5662 24.4135 28.3812 23.7914 29.0324L23.9722 29.2051L24.1529 29.3778C24.8621 28.6355 25.2631 27.6974 25.2632 26.5859L25.0132 26.5859ZM23.9722 29.2051L23.7914 29.0324C23.1808 29.6713 22.3266 30.1339 21.3352 30.4703L21.4155 30.707L21.4958 30.9438C22.5305 30.5928 23.4667 30.0958 24.1529 29.3778L23.9722 29.2051ZM21.4155 30.707L21.3352 30.4703C19.357 31.1413 16.6851 31.3584 13.8511 31.3584L13.8511 31.6084L13.8511 31.8584C16.6963 31.8584 19.4365 31.6423 21.4958 30.9438L21.4155 30.707ZM13.8511 31.6084V31.3584C11.0331 31.3584 8.36206 31.1491 6.38055 30.4865L6.30127 30.7236L6.22199 30.9607C8.28392 31.6502 11.0227 31.8584 13.8511 31.8584V31.6084ZM6.30127 30.7236L6.38056 30.4865C5.3875 30.1544 4.53028 29.6966 3.91672 29.0608L3.73682 29.2344L3.55691 29.408C4.24662 30.1228 5.18618 30.6143 6.22198 30.9607L6.30127 30.7236ZM3.73682 29.2344L3.91675 29.0608C3.29123 28.4123 2.93898 27.5981 2.93896 26.6162L2.68896 26.6162L2.43896 26.6162C2.43898 27.7303 2.84338 28.6683 3.55689 29.4079L3.73682 29.2344ZM2.68896 26.6162L2.93896 26.6162C2.93905 25.6355 3.28794 24.8194 3.90986 24.1677L3.729 23.9951L3.54814 23.8225C2.83904 24.5656 2.43906 25.5046 2.43896 26.6162L2.68896 26.6162ZM3.729 23.9951L3.90984 24.1677C4.52031 23.5282 5.37467 23.0649 6.3661 22.7279L6.28564 22.4912L6.20518 22.2545C5.1705 22.6062 4.23418 23.1039 3.54817 23.8225L3.729 23.9951ZM6.28564 22.4912L6.36609 22.7279C8.34429 22.0556 11.0162 21.8369 13.8511 21.8369V21.5869V21.3369C11.0048 21.3369 8.26451 21.5546 6.20519 22.2545L6.28564 22.4912ZM13.8511 23.0869V22.8369C11.0391 22.8369 8.5045 23.0583 6.6886 23.6754L6.76904 23.9121L6.84948 24.1488C8.58427 23.5593 11.0506 23.3369 13.8511 23.3369V23.0869ZM6.76904 23.9121L6.68858 23.6754C5.78355 23.983 5.09253 24.3774 4.63313 24.8586L4.81396 25.0312L4.99479 25.2039C5.37854 24.8019 5.98747 24.4418 6.8495 24.1488L6.76904 23.9121ZM4.81396 25.0312L4.63308 24.8587C4.18543 25.3279 3.93906 25.8976 3.93896 26.6162L4.18896 26.6162L4.43896 26.6162C4.43904 26.0284 4.63441 25.5816 4.99485 25.2038L4.81396 25.0312ZM4.18896 26.6162L3.93896 26.6162C3.93898 27.3339 4.1868 27.9002 4.63597 28.3659L4.81592 28.1924L4.99586 28.0188C4.63473 27.6444 4.43898 27.2018 4.43896 26.6162L4.18896 26.6162ZM4.81592 28.1924L4.63599 28.366C5.0972 28.8441 5.78993 29.2343 6.69756 29.5379L6.77686 29.3008L6.85615 29.0637C5.99124 28.7744 5.38088 28.418 4.99585 28.0188L4.81592 28.1924ZM6.77686 29.3008L6.69757 29.5379C8.51824 30.1467 11.0539 30.3584 13.8511 30.3584V30.1084V29.8584C11.0642 29.8584 8.59632 29.6456 6.85614 29.0637L6.77686 29.3008ZM13.8511 30.1084L13.8511 30.3584C16.6625 30.3584 19.1972 30.1389 21.0134 29.5229L20.9331 29.2861L20.8528 29.0494C19.1177 29.6379 16.6513 29.8584 13.8511 29.8584L13.8511 30.1084ZM20.9331 29.2861L21.0134 29.5229C21.9186 29.2158 22.6095 28.8224 23.0689 28.3417L22.8882 28.1689L22.7074 27.9962C22.3238 28.3976 21.7151 28.7569 20.8528 29.0494L20.9331 29.2861ZM22.8882 28.1689L23.069 28.3416C23.5164 27.8732 23.7631 27.304 23.7632 26.586L23.5132 26.5859L23.2632 26.5859C23.2631 27.173 23.0677 27.6191 22.7074 27.9963L22.8882 28.1689ZM23.5132 26.5859L23.7632 26.5859C23.7631 25.8687 23.5147 25.3016 23.0652 24.8353L22.8853 25.0088L22.7053 25.1823C23.0669 25.5575 23.2631 26.001 23.2632 26.586L23.5132 26.5859ZM22.8853 25.0088L23.0652 24.8353C22.6037 24.3566 21.9104 23.9657 21.0028 23.6614L20.9233 23.8984L20.8439 24.1355C21.7088 24.4255 22.3199 24.7826 22.7053 25.1823L22.8853 25.0088ZM20.9233 23.8984L21.0028 23.6614C19.1821 23.0511 16.647 22.8369 13.8511 22.8369L13.8511 23.0869L13.8511 23.3369C16.6363 23.3369 19.1037 23.5521 20.8439 24.1355L20.9233 23.8984ZM27.6626 20.873L27.6258 21.1203C28.8329 21.3001 29.9194 21.6092 30.7159 22.1319L30.853 21.9229L30.9902 21.7138C30.1044 21.1326 28.9339 20.8096 27.6994 20.6258L27.6626 20.873ZM30.853 21.9229L30.7159 22.1319C31.5378 22.6712 32.061 23.4495 32.061 24.499H32.311H32.561C32.561 23.2509 31.9258 22.3278 30.9902 21.7138L30.853 21.9229ZM32.311 24.499L32.061 24.499C32.061 25.2076 31.8221 25.8094 31.3904 26.2972L31.5776 26.4629L31.7649 26.6286C32.2774 26.0493 32.561 25.3297 32.561 24.499L32.311 24.499ZM31.5776 26.4629L31.3904 26.2972C30.9682 26.7743 30.3808 27.1213 29.7086 27.3767L29.7974 27.6104L29.8862 27.8441C30.6036 27.5715 31.2709 27.1867 31.7648 26.6286L31.5776 26.4629ZM29.7974 27.6104L29.7086 27.3766C29.4503 27.4747 29.1613 27.3448 29.0633 27.087L28.8296 27.1758L28.5959 27.2646C28.7921 27.7809 29.3701 28.0399 29.8861 27.8441L29.7974 27.6104ZM28.8296 27.1758L29.0633 27.087C28.9652 26.8288 29.095 26.5397 29.353 26.4417L29.2642 26.208L29.1753 25.9743C28.6591 26.1706 28.3998 26.7485 28.5959 27.2646L28.8296 27.1758ZM29.2642 26.208L29.3529 26.4417C29.9341 26.221 30.3625 25.95 30.6418 25.6344L30.4546 25.4688L30.2674 25.3031C30.06 25.5374 29.7116 25.7706 29.1754 25.9743L29.2642 26.208ZM30.4546 25.4688L30.6418 25.6344C30.9116 25.3295 31.061 24.9634 31.061 24.4991L30.811 24.499L30.561 24.499C30.561 24.8414 30.4562 25.0897 30.2673 25.3031L30.4546 25.4688ZM30.811 24.499H31.061C31.061 24.1822 30.9903 23.8944 30.8364 23.6341C30.6836 23.3757 30.4574 23.1583 30.1669 22.9677L30.0298 23.1768L29.8926 23.3858C30.1376 23.5465 30.3019 23.7125 30.4059 23.8885C30.5088 24.0626 30.561 24.2603 30.561 24.499H30.811ZM30.0298 23.1768L30.1669 22.9677C29.5492 22.5625 28.6314 22.2818 27.4787 22.1101L27.4419 22.3574L27.4051 22.6047C28.5309 22.7724 29.3644 23.0393 29.8927 23.3858L30.0298 23.1768ZM27.4419 22.3574L27.4788 22.1102C27.2057 22.0695 27.0168 21.8146 27.0574 21.5416L26.8101 21.5049L26.5628 21.4682C26.4817 22.0142 26.859 22.5233 27.405 22.6047L27.4419 22.3574ZM26.8101 21.5049L27.0573 21.5417C27.098 21.2686 27.3528 21.0798 27.6259 21.1203L27.6626 20.873L27.6993 20.6258C27.1532 20.5446 26.6441 20.922 26.5628 21.4681L26.8101 21.5049ZM13.8511 3.3916L13.8511 3.6416C17.8103 3.64175 21.0223 6.85113 21.0239 10.8116L21.2739 10.8115L21.5239 10.8114C21.5222 6.57479 18.0862 3.14176 13.8511 3.1416L13.8511 3.3916ZM21.2739 10.8115L21.024 10.8058L21.0152 11.1866L21.2651 11.1924L21.5151 11.1982L21.5239 10.8173L21.2739 10.8115ZM21.2651 11.1924L21.0154 11.1806C20.8379 14.9585 17.7244 17.973 13.8999 17.9873L13.9009 18.2373L13.9018 18.4873C17.9937 18.472 21.3249 15.2468 21.5149 11.2041L21.2651 11.1924ZM13.9009 18.2373V17.9873H13.8511V18.2373V18.4873H13.9009V18.2373ZM13.8511 18.2373V17.9873C9.88941 17.9873 6.67641 14.7764 6.67627 10.8144L6.42627 10.8145L6.17627 10.8145C6.17642 15.0527 9.61344 18.4873 13.8511 18.4873V18.2373ZM6.42627 10.8145L6.67627 10.8145C6.67635 6.8525 9.88937 3.6416 13.8511 3.6416V3.3916V3.1416C9.6134 3.1416 6.17635 6.57617 6.17627 10.8144L6.42627 10.8145ZM13.8511 4.8916V4.6416C10.4414 4.6416 7.67635 7.40505 7.67627 10.8144L7.92627 10.8145L8.17627 10.8145C8.17635 7.68137 10.7173 5.1416 13.8511 5.1416V4.8916ZM7.92627 10.8145L7.67627 10.8145C7.67642 14.2238 10.4414 16.9873 13.8511 16.9873V16.7373V16.4873C10.7174 16.4873 8.17641 13.9475 8.17627 10.8144L7.92627 10.8145ZM13.8511 16.7373V16.9873H13.895V16.7373V16.4873H13.8511V16.7373ZM13.895 16.7373L13.896 16.9873C17.292 16.9746 20.0364 14.212 20.0239 10.8165L19.7739 10.8174L19.5239 10.8183C19.5354 13.9375 17.0143 16.4757 13.8941 16.4873L13.895 16.7373ZM19.7739 10.8174H20.0239V10.8145H19.7739H19.5239V10.8174H19.7739ZM19.7739 10.8145L20.0239 10.8144C20.0238 7.40508 17.2591 4.64176 13.8511 4.6416L13.8511 4.8916L13.8511 5.1416C16.983 5.14175 19.5238 7.68131 19.5239 10.8145L19.7739 10.8145ZM23.7124 5.71484L23.9591 5.75543C24.0039 5.48276 24.2613 5.29787 24.5333 5.34242L24.5737 5.0957L24.6141 4.84899C24.069 4.75972 23.5553 5.12996 23.4657 5.67426L23.7124 5.71484ZM24.5737 5.0957L24.5333 5.3424C27.1554 5.77265 29.1556 8.04828 29.1558 10.791L29.4058 10.791L29.6558 10.791C29.6556 7.79926 27.4739 5.31823 24.6142 4.849L24.5737 5.0957ZM29.4058 10.791H29.1558V10.792H29.4058H29.6558V10.791H29.4058ZM29.4058 10.792L29.1558 10.7915C29.1507 13.5745 27.0872 15.8737 24.4081 16.2505L24.4429 16.498L24.4777 16.7456C27.3997 16.3347 29.6503 13.8279 29.6558 10.7924L29.4058 10.792ZM24.4429 16.498L24.4081 16.2505C24.1346 16.2889 23.8812 16.098 23.8428 15.8246L23.5952 15.8594L23.3476 15.8942C23.4245 16.4411 23.9308 16.8225 24.4777 16.7456L24.4429 16.498ZM23.5952 15.8594L23.8428 15.8247C23.8044 15.5512 23.9954 15.2977 24.2687 15.2593L24.2339 15.0117L24.1991 14.7642C23.6522 14.841 23.271 15.3474 23.3476 15.8941L23.5952 15.8594ZM24.2339 15.0117L24.2687 15.2593C26.4613 14.9509 28.1509 13.069 28.1558 10.7916L27.9058 10.791L27.6558 10.7905C27.6514 12.8155 26.1488 14.4899 24.1991 14.7642L24.2339 15.0117ZM27.9058 10.791L28.1557 10.7849L28.1508 10.5866L27.9009 10.5928L27.651 10.5989L27.6558 10.7972L27.9058 10.791ZM27.9009 10.5928L28.1506 10.5814C28.0523 8.43081 26.4514 6.67093 24.3721 6.32948L24.3315 6.57617L24.291 6.82287C26.1398 7.12646 27.5637 8.69227 27.6511 10.6042L27.9009 10.5928ZM24.3315 6.57617L24.372 6.32947C24.0994 6.28476 23.9146 6.0275 23.9591 5.75521L23.7124 5.71484L23.4657 5.67447C23.3765 6.21948 23.7463 6.73353 24.2911 6.82288L24.3315 6.57617Z" fill="#7E7C7C"/>
</svg>
