<svg width="24" height="24" viewBox="0 0 24 24" fill="none" xmlns="http://www.w3.org/2000/svg">
<path d="M16.877 8.9209C17.2888 8.96339 17.5881 9.3313 17.5459 9.74316L16.874 16.2754C16.8245 16.7581 16.7837 17.1644 16.7227 17.4951C16.6598 17.8356 16.5664 18.1544 16.3818 18.4521L16.3809 18.4512C16.0984 18.9081 15.6865 19.2714 15.1973 19.4961H15.1963C14.8803 19.6409 14.5521 19.6981 14.2021 19.7246C13.8611 19.7505 13.4446 19.75 12.9443 19.75H11.0557C10.5558 19.75 10.1392 19.7506 9.79785 19.7246C9.44776 19.6979 9.11907 19.6406 8.80273 19.4951V19.4941C8.31345 19.2695 7.89973 18.9081 7.61719 18.4512V18.4502C7.43389 18.1531 7.34024 17.8352 7.27734 17.4951C7.24678 17.3299 7.22152 17.1456 7.19727 16.9424L7.125 16.2754L6.4541 9.74316C6.41186 9.33129 6.71122 8.96339 7.12305 8.9209C7.53505 8.87856 7.90388 9.17787 7.94629 9.58984L8.61719 16.1211C8.66962 16.6281 8.70525 16.9649 8.75293 17.2227C8.79865 17.4697 8.84569 17.5859 8.89258 17.6621C9.01725 17.8637 9.20327 18.0284 9.42871 18.1318H9.42969C9.51879 18.1728 9.64878 18.2085 9.91113 18.2285C10.1824 18.2492 10.5328 18.25 11.0557 18.25H12.9443C13.4674 18.25 13.8176 18.2491 14.0889 18.2285C14.3514 18.2086 14.4818 18.1728 14.5713 18.1318C14.7963 18.0283 14.982 17.8645 15.1064 17.6631V17.6621C15.1537 17.586 15.2014 17.4703 15.2471 17.2227C15.2946 16.9651 15.3298 16.6292 15.3818 16.1221L16.0537 9.58984C16.0961 9.17783 16.4649 8.87851 16.877 8.9209ZM10.7998 10.083C11.2139 10.083 11.5496 10.4189 11.5498 10.833V14.7227C11.5496 15.1367 11.2139 15.4727 10.7998 15.4727C10.3858 15.4726 10.05 15.1366 10.0498 14.7227V10.833C10.05 10.419 10.3858 10.0831 10.7998 10.083ZM13.2002 10.083C13.6142 10.0831 13.95 10.419 13.9502 10.833V14.7227C13.95 15.1366 13.6142 15.4726 13.2002 15.4727C12.7861 15.4727 12.4504 15.1367 12.4502 14.7227V10.833C12.4504 10.4189 12.7861 10.083 13.2002 10.083ZM13.2148 4.25C13.9119 4.25 14.4871 4.71523 14.6924 5.3418L14.7285 5.46973L14.7412 5.53418L14.9551 6.97266H18C18.4142 6.97266 18.75 7.30844 18.75 7.72266C18.7498 8.13667 18.4141 8.47266 18 8.47266H6C5.58593 8.47266 5.25023 8.13667 5.25 7.72266C5.25 7.30844 5.58579 6.97266 6 6.97266H9.04492L9.25879 5.53418L9.27148 5.4707C9.43576 4.77845 10.0427 4.25 10.7852 4.25H13.2148ZM10.7637 5.75977C10.7534 5.76822 10.741 5.78349 10.7334 5.80762L10.5615 6.97266H13.4385L13.2656 5.80957C13.2578 5.78452 13.2466 5.76834 13.2363 5.75977C13.2253 5.75069 13.2179 5.75 13.2148 5.75H10.7852C10.782 5.75 10.7747 5.75072 10.7637 5.75977Z" fill="#7E7C7C"/>
</svg>
