<svg width="24" height="24" viewBox="0 0 24 24" fill="none" xmlns="http://www.w3.org/2000/svg">
<path d="M14.7271 4.18164C15.2793 4.18164 15.727 4.62944 15.7271 5.18164V5.54492H16.7729C18.0783 5.54497 19.1361 6.60389 19.1362 7.90918V17.4541C19.1362 18.7595 18.0783 19.8183 16.7729 19.8184H7.22705C5.9219 19.8181 4.86377 18.7593 4.86377 17.4541V7.90918C4.86387 6.60404 5.92195 5.54521 7.22705 5.54492H8.27295V5.18164C8.27305 4.6295 8.72081 4.18174 9.27295 4.18164C9.82513 4.18169 10.2729 4.62947 10.2729 5.18164V5.54492H13.7271V5.18164C13.7271 4.62962 14.1751 4.18193 14.7271 4.18164ZM6.86377 17.4541C6.86377 17.6548 7.02646 17.8181 7.22705 17.8184H16.7729C16.9737 17.8183 17.1362 17.6549 17.1362 17.4541V11.6357H6.86377V17.4541ZM9.27979 15.0908C9.83196 15.0909 10.2797 15.5387 10.2798 16.0908C10.2797 16.643 9.83199 17.0908 9.27979 17.0908H9.27295C8.72078 17.0907 8.273 16.643 8.27295 16.0908C8.27305 15.5387 8.72081 15.0909 9.27295 15.0908H9.27979ZM12.0073 15.0908C12.5594 15.091 13.0072 15.5387 13.0073 16.0908C13.0073 16.6429 12.5594 17.0906 12.0073 17.0908H12.0005C11.4483 17.0907 11.0005 16.643 11.0005 16.0908C11.0006 15.5387 11.4483 15.0909 12.0005 15.0908H12.0073ZM14.7339 15.0908C15.2861 15.0908 15.7338 15.5386 15.7339 16.0908C15.7338 16.6431 15.2861 17.0908 14.7339 17.0908H14.7271C14.175 17.0905 13.7271 16.6429 13.7271 16.0908C13.7271 15.5388 14.1751 15.0911 14.7271 15.0908H14.7339ZM9.27979 12.3633C9.8319 12.3633 10.2796 12.8112 10.2798 13.3633C10.2798 13.9155 9.83202 14.3632 9.27979 14.3633H9.27295C8.72075 14.3632 8.27295 13.9155 8.27295 13.3633C8.27314 12.8112 8.72086 12.3634 9.27295 12.3633H9.27979ZM12.0073 12.3633C12.5593 12.3635 13.0071 12.8113 13.0073 13.3633C13.0073 13.9154 12.5594 14.3631 12.0073 14.3633H12.0005C11.4483 14.3632 11.0005 13.9155 11.0005 13.3633C11.0007 12.8112 11.4484 12.3634 12.0005 12.3633H12.0073ZM14.7339 12.3633C15.2861 12.3633 15.7337 12.8112 15.7339 13.3633C15.7339 13.9156 15.2862 14.3633 14.7339 14.3633H14.7271C14.175 14.363 13.7271 13.9154 13.7271 13.3633C13.7272 12.8113 14.1751 12.3636 14.7271 12.3633H14.7339ZM7.22705 7.54492C7.02652 7.54521 6.86387 7.70861 6.86377 7.90918V9.63574H17.1362V7.90918C17.1361 7.70846 16.9737 7.54497 16.7729 7.54492H15.7271V7.90918C15.7269 8.46134 15.2792 8.90918 14.7271 8.90918C14.1751 8.90889 13.7272 8.46116 13.7271 7.90918V7.54492H10.2729V7.90918C10.2728 8.46131 9.8251 8.90913 9.27295 8.90918C8.72083 8.90908 8.27309 8.46128 8.27295 7.90918V7.54492H7.22705Z" fill="#7E7C7C"/>
</svg>
