<svg width="22" height="22" viewBox="0 0 22 22" fill="none" xmlns="http://www.w3.org/2000/svg">
<path d="M12.5531 0.871338C13.0902 0.864861 13.6141 1.04012 14.0375 1.37134C14.4654 1.70632 14.7649 2.1832 14.8744 2.71997H14.8754L15.1205 3.89966C15.1612 3.92204 15.2022 3.945 15.2426 3.96802L16.4388 3.57544L16.4418 3.57446C16.7543 3.47278 17.0854 3.43751 17.4125 3.46997C17.7395 3.50251 18.0567 3.60276 18.3431 3.76392L18.3451 3.76489C18.6561 3.94078 18.9186 4.18364 19.1176 4.46899L19.1996 4.59399V4.59497L20.7845 7.21216H20.7836C21.0719 7.67416 21.1854 8.22412 21.1029 8.76294C21.0194 9.3073 20.7413 9.80222 20.3207 10.1575L19.3832 10.9583V11.0481L20.3187 11.8811H20.3177C20.7222 12.2283 20.9931 12.7064 21.0814 13.2327C21.1706 13.7648 21.0663 14.3103 20.7904 14.7737L20.7914 14.7747L19.2611 17.3909L19.2582 17.3958C19.0494 17.7476 18.7511 18.038 18.3939 18.2375L18.39 18.2395C18.0382 18.4341 17.6426 18.5368 17.2406 18.5393C16.9913 18.5408 16.743 18.5037 16.5052 18.429L16.4916 18.425L15.3002 18.0315C15.2584 18.0551 15.2164 18.0789 15.1742 18.1018L14.9301 19.2795V19.2805C14.8187 19.8149 14.5205 20.2914 14.0902 20.6272L14.0912 20.6282C13.6678 20.9595 13.144 21.1355 12.6068 21.1292V21.1301H9.43689V21.1292C8.96759 21.1347 8.50833 21.0013 8.11755 20.7463L7.95251 20.6282C7.52288 20.2921 7.22557 19.8145 7.11462 19.2805L6.86853 18.0979C6.82843 18.0758 6.78819 18.0532 6.74841 18.0305L5.5531 18.425L5.53943 18.429C5.30159 18.5037 5.05337 18.5408 4.80408 18.5393H4.8031C4.4018 18.5364 4.00677 18.4338 3.65564 18.2395L3.65369 18.2375C3.29707 18.0387 2.99843 17.7494 2.78943 17.3987V17.3977L1.2074 14.7883L1.20837 14.7874C0.920155 14.3196 0.809254 13.7633 0.898804 13.2209C0.981758 12.7191 1.23185 12.2623 1.60388 11.9192L2.46716 10.8274L1.67126 10.1184L1.67224 10.1174C1.26823 9.77028 0.996759 9.29287 0.908569 8.76685C0.818745 8.23022 0.924256 7.67895 1.20544 7.21313L1.20642 7.21118L2.79236 4.59595C3.0008 4.24795 3.29655 3.95989 3.65076 3.76196L3.65466 3.76001C3.99449 3.57202 4.37518 3.47023 4.76306 3.46118C4.94273 3.45115 5.12311 3.46137 5.30017 3.49146L5.48181 3.52954L5.52673 3.54028L5.5697 3.55591L6.72595 3.96216C6.76487 3.94025 6.8039 3.91805 6.84314 3.89673L7.08826 2.71997L7.13806 2.52271C7.27487 2.06885 7.54931 1.6665 7.92517 1.37231C8.3484 1.04097 8.8725 0.865107 9.40955 0.871338V0.869385H12.5531V0.871338ZM9.38904 2.86938C9.30576 2.86781 9.22419 2.89518 9.15857 2.94653H9.15759C9.10056 2.99116 9.061 3.05529 9.04626 3.12622V3.1272L8.70349 4.77466L8.60193 5.26294L8.15076 5.47583C7.88354 5.60169 7.62478 5.7441 7.37537 5.90356L6.96521 6.16626L6.50525 6.00415L4.96716 5.46411C4.93575 5.4586 4.90335 5.45624 4.87146 5.45825L4.84412 5.45923L4.8158 5.46021C4.74923 5.46075 4.68282 5.47618 4.62439 5.50806C4.5759 5.53551 4.5357 5.57634 4.5072 5.62427L4.50232 5.63306L2.91638 8.24829C2.88285 8.30476 2.87042 8.37193 2.88123 8.43677C2.89222 8.5019 2.92639 8.56128 2.97693 8.60376L2.98962 8.6145L3.00134 8.62524L4.27185 9.7561L4.60681 10.054V11.3479L4.39099 11.6204L3.12244 13.2229L3.05505 13.3079L2.97107 13.3772C2.91875 13.42 2.88348 13.4804 2.87244 13.5471C2.86145 13.6137 2.87497 13.6822 2.91052 13.7395L2.91833 13.7512L4.5033 16.3684L4.5072 16.3752C4.53599 16.4235 4.57827 16.4631 4.62732 16.4905C4.68515 16.5219 4.74999 16.5385 4.8158 16.5393C4.85766 16.5396 4.89987 16.5333 4.93982 16.5208L6.55701 15.9875L7.00916 15.8381L7.40955 16.095C7.53444 16.1748 7.66199 16.2513 7.79138 16.3235L8.18591 16.5286L8.63025 16.7424L8.72986 17.2249L9.07263 18.8733C9.08732 18.9441 9.12707 19.0083 9.18396 19.053H9.18494C9.25063 19.1044 9.33299 19.1318 9.41638 19.1301H12.6273C12.7108 19.1319 12.793 19.1044 12.8588 19.053L12.8607 19.052C12.9179 19.0074 12.9572 18.9433 12.972 18.8723L13.3129 17.2258L13.4144 16.7366L13.8676 16.5237C14.135 16.3981 14.3925 16.2557 14.64 16.0969L15.0414 15.8401L15.4935 15.9895L17.1039 16.5208C17.1438 16.5333 17.187 16.5405 17.2289 16.5403C17.2954 16.5398 17.3609 16.5222 17.4193 16.4905C17.4681 16.463 17.5089 16.4234 17.5375 16.3752L19.0658 13.7649L19.0726 13.7532C19.107 13.6963 19.1198 13.6283 19.1088 13.5627C19.0977 13.4976 19.0637 13.4382 19.0131 13.3958L19.0004 13.385L18.9886 13.3743L17.7181 12.2434L17.3832 11.9456V10.0334L17.7347 9.73462L19.0248 8.63599L19.0306 8.6311C19.0822 8.58773 19.1161 8.52686 19.1263 8.46021C19.1365 8.39345 19.1226 8.32472 19.0863 8.26782L19.0795 8.25806L19.0736 8.24731L17.4886 5.6311V5.63013C17.4566 5.57812 17.4121 5.53593 17.3617 5.50708L17.2904 5.47583C17.2659 5.46815 17.2399 5.46276 17.2142 5.46021C17.1627 5.45518 17.1102 5.46077 17.0609 5.47681L15.432 6.01196L14.9779 6.16138L14.5765 5.90259C14.33 5.7434 14.0735 5.59954 13.808 5.4729L13.3607 5.26001L13.2601 4.77466L12.9174 3.1272L12.9154 3.12036C12.903 3.05878 12.8668 2.99496 12.8051 2.94653C12.7393 2.89519 12.657 2.86766 12.5736 2.86938H9.38904ZM10.9984 6.48853C12.1948 6.48853 13.3428 6.9639 14.1888 7.80981C15.0347 8.65584 15.5101 9.80389 15.5101 11.0002C15.51 12.1965 15.0346 13.3437 14.1888 14.1897C13.3428 15.0357 12.1949 15.511 10.9984 15.511C9.80213 15.5109 8.65488 15.0356 7.80896 14.1897C6.9632 13.3437 6.48681 12.1965 6.48669 11.0002C6.48675 9.80383 6.96303 8.65585 7.80896 7.80981C8.65487 6.96394 9.80216 6.48866 10.9984 6.48853ZM10.9984 8.48853C10.3326 8.48866 9.69387 8.75306 9.22302 9.22388C8.75215 9.69483 8.48675 10.3342 8.48669 11.0002C8.48681 11.6661 8.75232 12.3048 9.22302 12.7756C9.69388 13.2465 10.3326 13.5109 10.9984 13.511C11.6644 13.511 12.3038 13.2466 12.7748 12.7756C13.2455 12.3048 13.51 11.6661 13.5101 11.0002C13.5101 10.3343 13.2456 9.69482 12.7748 9.22388C12.3038 8.75305 11.6643 8.48853 10.9984 8.48853Z" fill="#7E7C7C"/>
</svg>
