<svg width="24" height="23" viewBox="0 0 24 23" fill="none" xmlns="http://www.w3.org/2000/svg">
<path d="M23.7786 1.88742C23.9243 1.73103 24.0036 1.52418 23.9999 1.31045C23.9961 1.09671 23.9095 0.892791 23.7584 0.741637C23.6072 0.590483 23.4033 0.5039 23.1896 0.500129C22.9758 0.496357 22.769 0.575693 22.6126 0.721421L20.3994 2.93462C19.4989 2.29631 18.4017 1.99718 17.3018 2.0902C16.202 2.18321 15.1706 2.66236 14.3901 3.44282L13.2153 4.61872C12.8546 4.97969 12.6519 5.46911 12.6519 5.97942C12.6519 6.48973 12.8546 6.97915 13.2153 7.34012L17.1588 11.2847C17.3375 11.4635 17.5498 11.6053 17.7833 11.7021C18.0169 11.7988 18.2672 11.8486 18.52 11.8486C18.7728 11.8486 19.0232 11.7988 19.2567 11.7021C19.4903 11.6053 19.7025 11.4635 19.8813 11.2847L21.0561 10.1099C21.8367 9.32958 22.3161 8.2982 22.4093 7.19838C22.5025 6.09855 22.2036 5.00121 21.5654 4.10062L23.7786 1.88742ZM19.8351 4.60992L19.8593 4.63522L19.8626 4.63742L19.8648 4.64072L19.8901 4.66492C20.1711 4.94584 20.3941 5.27937 20.5462 5.64648C20.6983 6.01358 20.7766 6.40705 20.7766 6.80442C20.7766 7.20179 20.6983 7.59526 20.5462 7.96237C20.3941 8.32947 20.1711 8.663 19.8901 8.94392L18.7153 10.1176C18.6897 10.1432 18.6594 10.1636 18.626 10.1774C18.5926 10.1913 18.5568 10.1984 18.5206 10.1984C18.4844 10.1984 18.4486 10.1913 18.4152 10.1774C18.3818 10.1636 18.3514 10.1432 18.3259 10.1176L14.3813 6.17412C14.3557 6.14858 14.3354 6.11823 14.3215 6.08482C14.3076 6.05141 14.3005 6.01559 14.3005 5.97942C14.3005 5.94325 14.3076 5.90743 14.3215 5.87402C14.3354 5.84061 14.3557 5.81027 14.3813 5.78472L15.5561 4.60992C15.837 4.32887 16.1705 4.10593 16.5376 3.95382C16.9047 3.80171 17.2982 3.72342 17.6956 3.72342C18.0929 3.72342 18.4864 3.80171 18.8535 3.95382C19.2206 4.10593 19.5542 4.32887 19.8351 4.60992ZM11.6786 10.6874C11.7596 10.6119 11.8246 10.5208 11.8697 10.4196C11.9148 10.3184 11.9391 10.2092 11.941 10.0984C11.943 9.98762 11.9226 9.87759 11.8811 9.77486C11.8396 9.67214 11.7779 9.57882 11.6995 9.50048C11.6212 9.42214 11.5279 9.36038 11.4251 9.31889C11.3224 9.27739 11.2124 9.25702 11.1016 9.25897C10.9908 9.26092 10.8816 9.28517 10.7804 9.33026C10.6792 9.37535 10.5881 9.44037 10.5126 9.52142L8.62058 11.4134L8.10358 10.8964C7.94889 10.7419 7.7392 10.6551 7.52058 10.6551C7.30195 10.6551 7.09227 10.7419 6.93758 10.8964L4.98508 12.8489C4.20445 13.6293 3.72509 14.6606 3.63188 15.7605C3.53867 16.8603 3.83761 17.9576 4.47578 18.8582L2.26258 21.0714C2.18152 21.1469 2.11651 21.238 2.07142 21.3392C2.02633 21.4404 2.00208 21.5497 2.00013 21.6604C1.99817 21.7712 2.01855 21.8813 2.06004 21.984C2.10154 22.0867 2.1633 22.18 2.24164 22.2584C2.31998 22.3367 2.41329 22.3985 2.51602 22.44C2.61875 22.4815 2.72878 22.5018 2.83955 22.4999C2.95033 22.4979 3.05957 22.4737 3.16077 22.4286C3.26197 22.3835 3.35305 22.3185 3.42858 22.2374L5.64178 20.0242C6.54236 20.6624 7.6397 20.9613 8.73953 20.8681C9.83936 20.7749 10.8707 20.2956 11.6511 19.5149L13.6036 17.5624C13.7581 17.4077 13.8449 17.198 13.8449 16.9794C13.8449 16.7608 13.7581 16.5511 13.6036 16.3964L13.0866 15.8794L14.9786 13.9874C15.0596 13.9119 15.1246 13.8208 15.1697 13.7196C15.2148 13.6184 15.2391 13.5092 15.241 13.3984C15.243 13.2876 15.2226 13.1776 15.1811 13.0749C15.1396 12.9721 15.0779 12.8788 14.9995 12.8005C14.9212 12.7221 14.8279 12.6604 14.7251 12.6189C14.6224 12.5774 14.5124 12.557 14.4016 12.559C14.2908 12.5609 14.1816 12.5852 14.0804 12.6303C13.9792 12.6754 13.8881 12.7404 13.8126 12.8214L11.9206 14.7134L9.78658 12.5794L11.6786 10.6874ZM8.03318 13.1591L8.03758 13.1624L8.04088 13.1668L11.3332 16.4591L11.3376 16.4624L11.3409 16.4668L11.8535 16.9794L10.4851 18.3489C10.2042 18.63 9.87063 18.8529 9.50352 19.005C9.13642 19.1571 8.74295 19.2354 8.34558 19.2354C7.94821 19.2354 7.55474 19.1571 7.18763 19.005C6.82053 18.8529 6.48699 18.63 6.20608 18.3489L6.15108 18.2939C5.87003 18.013 5.64708 17.6795 5.49498 17.3124C5.34287 16.9453 5.26458 16.5518 5.26458 16.1544C5.26458 15.7571 5.34287 15.3636 5.49498 14.9965C5.64708 14.6294 5.87003 14.2958 6.15108 14.0149L7.52058 12.6476L8.03318 13.1591Z" fill="#7E7C7C"/>
</svg>
