<svg width="24" height="24" viewBox="0 0 24 24" fill="none" xmlns="http://www.w3.org/2000/svg">
<path d="M10.2353 5C9.81176 5 9.52941 5.28 9.52941 5.7V18.3C9.52941 18.72 9.81176 19 10.2353 19C10.6588 19 10.9412 18.72 10.9412 18.3V5.7C10.9412 5.28 10.6588 5 10.2353 5ZM6.70588 12C6.28235 12 6 12.28 6 12.7V18.3C6 18.72 6.28235 19 6.70588 19C7.12941 19 7.41176 18.72 7.41176 18.3V12.7C7.41176 12.28 7.12941 12 6.70588 12ZM13.7647 9.2C13.3412 9.2 13.0588 9.48 13.0588 9.9V18.3C13.0588 18.72 13.3412 19 13.7647 19C14.1882 19 14.4706 18.72 14.4706 18.3V9.9C14.4706 9.48 14.1882 9.2 13.7647 9.2ZM17.2941 14.8C16.8706 14.8 16.5882 15.08 16.5882 15.5V18.3C16.5882 18.72 16.8706 19 17.2941 19C17.7176 19 18 18.72 18 18.3V15.5C18 15.08 17.7176 14.8 17.2941 14.8Z" fill="#7E7C7C"/>
</svg>
