<svg width="24" height="24" viewBox="0 0 24 24" fill="none" xmlns="http://www.w3.org/2000/svg">
<path fill-rule="evenodd" clip-rule="evenodd" d="M15.78 9.841C15.6394 9.98145 15.4488 10.0603 15.25 10.0603C15.0512 10.0603 14.8606 9.98145 14.72 9.841L12.75 7.871V15.25C12.75 15.4489 12.671 15.6397 12.5303 15.7803C12.3897 15.921 12.1989 16 12 16C11.8011 16 11.6103 15.921 11.4697 15.7803C11.329 15.6397 11.25 15.4489 11.25 15.25V7.871L9.28 9.841C9.13783 9.97348 8.94978 10.0456 8.75548 10.0422C8.56118 10.0387 8.37579 9.96003 8.23838 9.82262C8.10097 9.68521 8.02225 9.49982 8.01883 9.30552C8.0154 9.11122 8.08752 8.92318 8.22 8.781L11.47 5.531L12 5L12.53 5.53L15.78 8.78C15.8497 8.84965 15.905 8.93235 15.9427 9.02338C15.9804 9.1144 15.9998 9.21197 15.9998 9.3105C15.9998 9.40903 15.9804 9.5066 15.9427 9.59762C15.905 9.68865 15.8497 9.77135 15.78 9.841ZM6.5 13.75C6.5 13.5511 6.42098 13.3603 6.28033 13.2197C6.13968 13.079 5.94891 13 5.75 13C5.55109 13 5.36032 13.079 5.21967 13.2197C5.07902 13.3603 5 13.5511 5 13.75V17C5 17.5304 5.21071 18.0391 5.58579 18.4142C5.96086 18.7893 6.46957 19 7 19H17C17.5304 19 18.0391 18.7893 18.4142 18.4142C18.7893 18.0391 19 17.5304 19 17V13.75C19 13.5511 18.921 13.3603 18.7803 13.2197C18.6397 13.079 18.4489 13 18.25 13C18.0511 13 17.8603 13.079 17.7197 13.2197C17.579 13.3603 17.5 13.5511 17.5 13.75V17C17.5 17.1326 17.4473 17.2598 17.3536 17.3536C17.2598 17.4473 17.1326 17.5 17 17.5H7C6.86739 17.5 6.74021 17.4473 6.64645 17.3536C6.55268 17.2598 6.5 17.1326 6.5 17V13.75Z" fill="#7E7C7C"/>
</svg>
