<svg width="24" height="24" viewBox="0 0 24 24" fill="none" xmlns="http://www.w3.org/2000/svg">
<path d="M9.5918 13.957C11.4523 13.957 13.2647 14.0953 14.6348 14.5547C15.3236 14.7856 15.9565 15.1158 16.4238 15.6006C16.9088 16.1038 17.1836 16.7427 17.1836 17.499C17.1836 18.2539 16.9112 18.8936 16.4287 19.3984C15.9638 19.8848 15.3333 20.2169 14.6455 20.4502C13.2772 20.9143 11.4637 21.0566 9.5918 21.0566C7.73144 21.0566 5.91962 20.9199 4.5498 20.4619C3.86118 20.2316 3.22813 19.9024 2.76074 19.418C2.27545 18.9149 2.00001 18.2752 2 17.5186C2.00011 16.7639 2.27282 16.1243 2.75488 15.6191C3.21974 15.1321 3.85011 14.7993 4.53809 14.5654C5.90637 14.1003 7.71926 13.957 9.5918 13.957ZM9.5918 15.457C7.75349 15.457 6.14538 15.603 5.02051 15.9854C4.4621 16.1752 4.07796 16.4058 3.83984 16.6553C3.61917 16.8866 3.5001 17.1568 3.5 17.5186C3.50001 17.8788 3.619 18.1469 3.83984 18.376C4.07875 18.6236 4.4649 18.8516 5.02539 19.0391C6.15394 19.4164 7.76253 19.5566 9.5918 19.5566C11.4297 19.5566 13.0379 19.4118 14.1631 19.0303C14.7217 18.8408 15.1066 18.6105 15.3447 18.3613C15.5653 18.1304 15.6836 17.8605 15.6836 17.499C15.6836 17.1391 15.565 16.8712 15.3438 16.6416C15.1046 16.3935 14.7187 16.1645 14.1582 15.9766C13.0296 15.5982 11.4203 15.457 9.5918 15.457ZM18.7061 13.4902C19.5222 13.6118 20.3076 13.8269 20.9062 14.2197C21.5422 14.6372 21.9793 15.2708 21.9795 16.127C21.9795 16.6954 21.7853 17.1903 21.4336 17.5879C21.0957 17.9698 20.6422 18.2297 20.1621 18.4121C19.7749 18.5592 19.3414 18.3647 19.1943 17.9775C19.0475 17.5906 19.2422 17.158 19.6289 17.0107C19.9728 16.8801 20.1865 16.7328 20.3096 16.5938C20.4187 16.4704 20.4795 16.3294 20.4795 16.127C20.4794 15.8639 20.3757 15.6657 20.083 15.4736C19.7525 15.2568 19.2201 15.0841 18.4854 14.9746C18.0757 14.9136 17.7926 14.5317 17.8535 14.1221C17.9145 13.7124 18.2964 13.4293 18.7061 13.4902ZM9.5918 2C12.4268 2 14.7274 4.29855 14.7275 7.13477H14.7266C14.7357 9.96112 12.4519 12.2589 9.62598 12.2695H9.5918C6.75592 12.2694 4.45605 9.97112 4.45605 7.13477C4.45618 4.29852 6.756 2.00014 9.5918 2ZM15.8184 3.74316C15.8854 3.33445 16.271 3.05705 16.6797 3.12402C18.6032 3.43953 20.0702 5.10787 20.0703 7.12012V7.12207C20.0662 9.16326 18.553 10.8488 16.5879 11.125C16.1779 11.1826 15.7981 10.8962 15.7402 10.4863C15.6828 10.0763 15.9689 9.69737 16.3789 9.63965C17.6149 9.46595 18.5672 8.40373 18.5703 7.12012C18.5702 5.85471 17.6476 4.80323 16.4375 4.60449C16.029 4.53749 15.7518 4.15165 15.8184 3.74316ZM9.5918 3.5C7.58398 3.50014 5.95618 5.1274 5.95605 7.13477C5.95605 9.14224 7.58391 10.7694 9.5918 10.7695H9.62012C11.6193 10.7621 13.235 9.13613 13.2275 7.1377L13.2266 7.13477H13.2275C13.2274 5.1272 11.5986 3.5 9.5918 3.5Z" fill="#7E7C7C"/>
<path d="M9.5918 13.957V13.707H9.5918L9.5918 13.957ZM14.6348 14.5547L14.7142 14.3177H14.7142L14.6348 14.5547ZM16.4238 15.6006L16.6038 15.4271L16.6038 15.4271L16.4238 15.6006ZM17.1836 17.499L17.4336 17.499V17.499L17.1836 17.499ZM16.4287 19.3984L16.6094 19.5712L16.6095 19.5712L16.4287 19.3984ZM14.6455 20.4502L14.7258 20.6869L14.7258 20.6869L14.6455 20.4502ZM9.5918 21.0566L9.5918 21.3066H9.5918V21.0566ZM4.5498 20.4619L4.47052 20.699L4.47053 20.699L4.5498 20.4619ZM2.76074 19.418L2.58081 19.5915L2.58084 19.5916L2.76074 19.418ZM2 17.5186L1.75 17.5185V17.5186L2 17.5186ZM2.75488 15.6191L2.57404 15.4465L2.57402 15.4465L2.75488 15.6191ZM4.53809 14.5654L4.45763 14.3287H4.45763L4.53809 14.5654ZM9.5918 15.457V15.207H9.5918L9.5918 15.457ZM5.02051 15.9854L4.94005 15.7487L4.94004 15.7487L5.02051 15.9854ZM3.83984 16.6553L3.65898 16.4827L3.65896 16.4827L3.83984 16.6553ZM3.5 17.5186L3.25 17.5185V17.5186L3.5 17.5186ZM3.83984 18.376L3.65987 18.5495L3.65992 18.5495L3.83984 18.376ZM5.02539 19.0391L4.94611 19.2762L4.94611 19.2762L5.02539 19.0391ZM9.5918 19.5566L9.5918 19.8066H9.5918V19.5566ZM14.1631 19.0303L14.2434 19.267L14.2434 19.267L14.1631 19.0303ZM15.3447 18.3613L15.5255 18.5341L15.5255 18.534L15.3447 18.3613ZM15.6836 17.499L15.9336 17.499V17.499L15.6836 17.499ZM15.3438 16.6416L15.5238 16.4681L15.5237 16.4681L15.3438 16.6416ZM14.1582 15.9766L14.2377 15.7395L14.2377 15.7395L14.1582 15.9766ZM18.7061 13.4902L18.7429 13.243L18.7428 13.243L18.7061 13.4902ZM20.9062 14.2197L21.0434 14.0107L21.0434 14.0107L20.9062 14.2197ZM21.9795 16.127L22.2295 16.127V16.1269L21.9795 16.127ZM21.4336 17.5879L21.6208 17.7536L21.6208 17.7535L21.4336 17.5879ZM20.1621 18.4121L20.2509 18.6458L20.2509 18.6458L20.1621 18.4121ZM19.1943 17.9775L18.9606 18.0662L18.9606 18.0663L19.1943 17.9775ZM19.6289 17.0107L19.5401 16.777L19.5399 16.7771L19.6289 17.0107ZM20.3096 16.5938L20.4968 16.7594L20.4968 16.7594L20.3096 16.5938ZM20.4795 16.127L20.7295 16.127V16.1268L20.4795 16.127ZM20.083 15.4736L20.2202 15.2646L20.2202 15.2646L20.083 15.4736ZM18.4854 14.9746L18.5222 14.7273L18.5222 14.7273L18.4854 14.9746ZM17.8535 14.1221L17.6062 14.0852L17.6062 14.0853L17.8535 14.1221ZM9.5918 2V1.75H9.59178L9.5918 2ZM14.7275 7.13477V7.38477C14.7938 7.38477 14.8574 7.35842 14.9043 7.31154C14.9512 7.26465 14.9775 7.20106 14.9775 7.13475L14.7275 7.13477ZM14.7266 7.13477V6.88477C14.6601 6.88477 14.5964 6.91122 14.5495 6.95828C14.5026 7.00533 14.4763 7.06913 14.4766 7.13558L14.7266 7.13477ZM9.62598 12.2695V12.5195L9.62691 12.5195L9.62598 12.2695ZM9.5918 12.2695L9.59178 12.5195H9.5918V12.2695ZM4.45605 7.13477L4.20605 7.13475V7.13477H4.45605ZM15.8184 3.74316L15.5717 3.7027L15.5716 3.70294L15.8184 3.74316ZM16.6797 3.12402L16.7202 2.87732L16.7201 2.87731L16.6797 3.12402ZM20.0703 7.12012H20.3203V7.12011L20.0703 7.12012ZM20.0703 7.12207L20.3203 7.12258V7.12207H20.0703ZM16.5879 11.125L16.6227 11.3726L16.6227 11.3726L16.5879 11.125ZM15.7402 10.4863L15.4927 10.521L15.4927 10.5213L15.7402 10.4863ZM16.3789 9.63965L16.3441 9.39208L16.3441 9.39209L16.3789 9.63965ZM18.5703 7.12012L18.8203 7.12073V7.1201L18.5703 7.12012ZM16.4375 4.60449L16.478 4.3578L16.478 4.35779L16.4375 4.60449ZM9.5918 3.5V3.25H9.59178L9.5918 3.5ZM5.95605 7.13477L5.70605 7.13475V7.13477H5.95605ZM9.5918 10.7695L9.59178 11.0195H9.5918V10.7695ZM9.62012 10.7695V11.0195L9.62105 11.0195L9.62012 10.7695ZM13.2275 7.1377L13.4775 7.13676C13.4774 7.11021 13.4731 7.08383 13.4647 7.05864L13.2275 7.1377ZM13.2266 7.13477V6.88477C13.1462 6.88477 13.0707 6.9234 13.0238 6.98859C12.9768 7.05378 12.964 7.13759 12.9894 7.21382L13.2266 7.13477ZM13.2275 7.13477V7.38477C13.2938 7.38477 13.3574 7.35842 13.4043 7.31154C13.4512 7.26465 13.4775 7.20106 13.4775 7.13475L13.2275 7.13477ZM9.5918 13.957V14.207C11.4469 14.207 13.2254 14.3459 14.5553 14.7917L14.6348 14.5547L14.7142 14.3177C13.3039 13.8448 11.4577 13.707 9.5918 13.707V13.957ZM14.6348 14.5547L14.5553 14.7917C15.2227 15.0155 15.8146 15.3288 16.2438 15.7741L16.4238 15.6006L16.6038 15.4271C16.0985 14.9029 15.4244 14.5558 14.7142 14.3177L14.6348 14.5547ZM16.4238 15.6006L16.2438 15.7741C16.6848 16.2316 16.9336 16.8087 16.9336 17.499L17.1836 17.499L17.4336 17.499C17.4336 16.6766 17.1328 15.9759 16.6038 15.4271L16.4238 15.6006ZM17.1836 17.499L16.9336 17.499C16.9336 18.1884 16.6867 18.7666 16.248 19.2257L16.4287 19.3984L16.6095 19.5712C17.1356 19.0206 17.4336 18.3193 17.4336 17.499L17.1836 17.499ZM16.4287 19.3984L16.248 19.2257C15.8209 19.6724 15.2315 19.9874 14.5652 20.2134L14.6455 20.4502L14.7258 20.6869C15.435 20.4464 16.1066 20.0972 16.6094 19.5712L16.4287 19.3984ZM14.6455 20.4502L14.5652 20.2134C13.2374 20.6638 11.458 20.8066 9.5918 20.8066V21.0566V21.3066C11.4694 21.3066 13.317 21.1648 14.7258 20.6869L14.6455 20.4502ZM9.5918 21.0566L9.5918 20.8066C7.73668 20.8066 5.9587 20.6694 4.62908 20.2248L4.5498 20.4619L4.47053 20.699C5.88053 21.1704 7.7262 21.3066 9.5918 21.3066L9.5918 21.0566ZM4.5498 20.4619L4.62909 20.2248C3.96179 20.0017 3.36993 19.6893 2.94065 19.2444L2.76074 19.418L2.58084 19.5916C3.08633 20.1154 3.76058 20.4616 4.47052 20.699L4.5498 20.4619ZM2.76074 19.418L2.94067 19.2444C2.49939 18.787 2.25001 18.2091 2.25 17.5186L2 17.5186L1.75 17.5186C1.75001 18.3413 2.05151 19.0428 2.58081 19.5915L2.76074 19.418ZM2 17.5186L2.25 17.5186C2.2501 16.8294 2.49718 16.2513 2.93574 15.7917L2.75488 15.6191L2.57402 15.4465C2.04845 15.9973 1.75012 16.6983 1.75 17.5185L2 17.5186ZM2.75488 15.6191L2.93572 15.7918C3.36276 15.3444 3.95209 15.0287 4.61854 14.8021L4.53809 14.5654L4.45763 14.3287C3.74814 14.5699 3.07672 14.9199 2.57404 15.4465L2.75488 15.6191ZM4.53809 14.5654L4.61854 14.8021C5.9463 14.3508 7.72505 14.207 9.5918 14.207L9.5918 13.957L9.5918 13.707C7.71346 13.707 5.86644 13.8499 4.45763 14.3287L4.53809 14.5654ZM9.5918 15.457L9.5918 15.207C7.74786 15.207 6.10553 15.3525 4.94005 15.7487L5.02051 15.9854L5.10097 16.2221C6.18524 15.8535 7.75913 15.707 9.5918 15.707L9.5918 15.457ZM5.02051 15.9854L4.94004 15.7487C4.35986 15.9459 3.9348 16.1937 3.65898 16.4827L3.83984 16.6553L4.0207 16.8279C4.22113 16.6179 4.56434 16.4045 5.10098 16.222L5.02051 15.9854ZM3.83984 16.6553L3.65896 16.4827C3.39484 16.7595 3.25012 17.0912 3.25 17.5185L3.5 17.5186L3.75 17.5186C3.75009 17.2224 3.84351 17.0136 4.02073 16.8278L3.83984 16.6553ZM3.5 17.5186L3.25 17.5186C3.25001 17.9447 3.39498 18.2748 3.65987 18.5495L3.83984 18.376L4.01982 18.2025C3.84302 18.0191 3.75001 17.8128 3.75 17.5185L3.5 17.5186ZM3.83984 18.376L3.65992 18.5495C3.93694 18.8367 4.36431 19.0816 4.94611 19.2762L5.02539 19.0391L5.10468 18.802C4.56549 18.6217 4.22055 18.4105 4.01977 18.2024L3.83984 18.376ZM5.02539 19.0391L4.94611 19.2762C6.1149 19.667 7.75739 19.8066 9.5918 19.8066L9.5918 19.5566L9.5918 19.3066C7.76768 19.3066 6.19298 19.1659 5.10467 18.802L5.02539 19.0391ZM9.5918 19.5566V19.8066C11.4353 19.8066 13.0776 19.6624 14.2434 19.267L14.1631 19.0303L14.0828 18.7935C12.9982 19.1613 11.4242 19.3066 9.5918 19.3066V19.5566ZM14.1631 19.0303L14.2434 19.267C14.8237 19.0702 15.2496 18.8228 15.5255 18.5341L15.3447 18.3613L15.164 18.1886C14.9637 18.3982 14.6198 18.6114 14.0828 18.7935L14.1631 19.0303ZM15.3447 18.3613L15.5255 18.534C15.7898 18.2572 15.9336 17.9257 15.9336 17.499L15.6836 17.499L15.4336 17.499C15.4336 17.7953 15.3407 18.0036 15.1639 18.1887L15.3447 18.3613ZM15.6836 17.499L15.9336 17.499C15.9336 17.0732 15.789 16.7434 15.5238 16.4681L15.3438 16.6416L15.1637 16.8151C15.3409 16.9989 15.4336 17.2051 15.4336 17.499L15.6836 17.499ZM15.3438 16.6416L15.5237 16.4681C15.2467 16.1807 14.8198 15.9347 14.2377 15.7395L14.1582 15.9766L14.0787 16.2136C14.6176 16.3943 14.9625 16.6064 15.1638 16.8151L15.3438 16.6416ZM14.1582 15.9766L14.2377 15.7395C13.0687 15.3476 11.4255 15.207 9.5918 15.207V15.457V15.707C11.415 15.707 12.9904 15.8487 14.0787 16.2136L14.1582 15.9766ZM18.7061 13.4902L18.6692 13.7375C19.4717 13.857 20.215 14.0652 20.7691 14.4287L20.9062 14.2197L21.0434 14.0107C20.4001 13.5886 19.5728 13.3666 18.7429 13.243L18.7061 13.4902ZM20.9062 14.2197L20.7691 14.4287C21.3482 14.8089 21.7294 15.37 21.7295 16.127L21.9795 16.127L22.2295 16.1269C22.2293 15.1715 21.7363 14.4655 21.0434 14.0107L20.9062 14.2197ZM21.9795 16.127L21.7295 16.127C21.7295 16.6345 21.5575 17.0704 21.2463 17.4223L21.4336 17.5879L21.6208 17.7535C22.0131 17.3101 22.2295 16.7563 22.2295 16.127L21.9795 16.127ZM21.4336 17.5879L21.2464 17.4222C20.9443 17.7636 20.5308 18.0046 20.0733 18.1784L20.1621 18.4121L20.2509 18.6458C20.7536 18.4548 21.2471 18.176 21.6208 17.7536L21.4336 17.5879ZM20.1621 18.4121L20.0733 18.1784C19.815 18.2765 19.526 18.1467 19.428 17.8888L19.1943 17.9775L18.9606 18.0663C19.1568 18.5828 19.7348 18.8419 20.2509 18.6458L20.1621 18.4121ZM19.1943 17.9775L19.4281 17.8889C19.3303 17.631 19.4599 17.3426 19.7179 17.2444L19.6289 17.0107L19.5399 16.7771C19.0244 16.9734 18.7648 17.5501 18.9606 18.0662L19.1943 17.9775ZM19.6289 17.0107L19.7177 17.2444C20.0848 17.105 20.3382 16.9386 20.4968 16.7594L20.3096 16.5938L20.1223 16.4281C20.0348 16.527 19.8607 16.6553 19.5401 16.777L19.6289 17.0107ZM20.3096 16.5938L20.4968 16.7594C20.6462 16.5905 20.7295 16.3906 20.7295 16.127L20.4795 16.127L20.2295 16.1269C20.2295 16.2681 20.1912 16.3503 20.1223 16.4281L20.3096 16.5938ZM20.4795 16.127L20.7295 16.1268C20.7294 15.9603 20.6959 15.7992 20.6065 15.647C20.5187 15.4975 20.3873 15.3743 20.2202 15.2646L20.083 15.4736L19.9458 15.6826C20.0713 15.765 20.1382 15.8369 20.1754 15.9003C20.211 15.9609 20.2294 16.0305 20.2295 16.1271L20.4795 16.127ZM20.083 15.4736L20.2202 15.2646C19.8448 15.0183 19.2703 14.8388 18.5222 14.7273L18.4854 14.9746L18.4485 15.2219C19.1699 15.3293 19.6601 15.4952 19.9459 15.6827L20.083 15.4736ZM18.4854 14.9746L18.5222 14.7273C18.249 14.6867 18.0602 14.4318 18.1008 14.1588L17.8535 14.1221L17.6062 14.0853C17.525 14.6315 17.9024 15.1405 18.4485 15.2219L18.4854 14.9746ZM17.8535 14.1221L18.1008 14.1589C18.1415 13.8857 18.3963 13.6969 18.6693 13.7375L18.7061 13.4902L18.7428 13.243C18.1966 13.1617 17.6876 13.5391 17.6062 14.0852L17.8535 14.1221ZM9.5918 2V2.25C12.2888 2.25 14.4774 4.43671 14.4775 7.13478L14.7275 7.13477L14.9775 7.13475C14.9774 4.16039 12.5648 1.75 9.5918 1.75V2ZM14.7275 7.13477V6.88477H14.7266V7.13477V7.38477H14.7275V7.13477ZM14.7266 7.13477L14.4766 7.13558C14.4853 9.82379 12.3131 12.0094 9.62504 12.0195L9.62598 12.2695L9.62691 12.5195C12.5908 12.5084 14.9862 10.0984 14.9766 7.13396L14.7266 7.13477ZM9.62598 12.2695V12.0195H9.5918V12.2695V12.5195H9.62598V12.2695ZM9.5918 12.2695L9.59181 12.0195C6.89391 12.0194 4.70605 9.83296 4.70605 7.13477H4.45605H4.20605C4.20605 10.1093 6.61794 12.5194 9.59178 12.5195L9.5918 12.2695ZM4.45605 7.13477L4.70605 7.13478C4.70618 4.43667 6.894 2.25013 9.59181 2.25L9.5918 2L9.59178 1.75C6.61801 1.75015 4.20619 4.16037 4.20605 7.13475L4.45605 7.13477ZM15.8184 3.74316L16.0651 3.78363C16.1098 3.51093 16.367 3.32612 16.6393 3.37073L16.6797 3.12402L16.7201 2.87731C16.1749 2.78799 15.661 3.15796 15.5717 3.7027L15.8184 3.74316ZM16.6797 3.12402L16.6392 3.37073C18.444 3.66675 19.8202 5.2324 19.8203 7.12013L20.0703 7.12012L20.3203 7.12011C20.3202 4.98334 18.7625 3.21231 16.7202 2.87732L16.6797 3.12402ZM20.0703 7.12012H19.8203V7.12207H20.0703H20.3203V7.12012H20.0703ZM20.0703 7.12207L19.8203 7.12156C19.8164 9.03654 18.3968 10.6183 16.5531 10.8774L16.5879 11.125L16.6227 11.3726C18.7093 11.0793 20.3159 9.28998 20.3203 7.12258L20.0703 7.12207ZM16.5879 11.125L16.5531 10.8774C16.2799 10.9158 16.0264 10.7248 15.9878 10.4514L15.7402 10.4863L15.4927 10.5213C15.5698 11.0677 16.0759 11.4494 16.6227 11.3726L16.5879 11.125ZM15.7402 10.4863L15.9878 10.4517C15.9496 10.1786 16.1402 9.92572 16.4138 9.88721L16.3789 9.63965L16.3441 9.39209C15.7977 9.46901 15.4161 9.97412 15.4927 10.521L15.7402 10.4863ZM16.3789 9.63965L16.4137 9.88722C17.7713 9.69642 18.8169 8.5303 18.8203 7.12073L18.5703 7.12012L18.3203 7.11951C18.3175 8.27716 17.4584 9.23548 16.3441 9.39208L16.3789 9.63965ZM18.5703 7.12012L18.8203 7.1201C18.8202 5.73041 17.8071 4.57608 16.478 4.3578L16.4375 4.60449L16.397 4.85119C17.4881 5.03039 18.3203 5.97901 18.3203 7.12013L18.5703 7.12012ZM16.4375 4.60449L16.478 4.35779C16.2057 4.31313 16.0207 4.05576 16.0651 3.78339L15.8184 3.74316L15.5716 3.70294C15.4828 4.24754 15.8523 4.76186 16.397 4.8512L16.4375 4.60449ZM9.5918 3.5L9.59178 3.25C7.44598 3.25015 5.70619 4.98925 5.70605 7.13475L5.95605 7.13477L6.20605 7.13478C6.20617 5.26554 7.72199 3.75013 9.59181 3.75L9.5918 3.5ZM5.95605 7.13477H5.70605C5.70605 9.2804 7.44592 11.0194 9.59178 11.0195L9.5918 10.7695L9.59181 10.5195C7.7219 10.5194 6.20605 9.00409 6.20605 7.13477H5.95605ZM9.5918 10.7695V11.0195H9.62012V10.7695V10.5195H9.5918V10.7695ZM9.62012 10.7695L9.62105 11.0195C11.7581 11.0116 13.4855 9.27347 13.4775 7.13676L13.2275 7.1377L12.9775 7.13863C12.9845 8.99879 11.4805 10.5126 9.61918 10.5195L9.62012 10.7695ZM13.2275 7.1377L13.4647 7.05864L13.4637 7.05571L13.2266 7.13477L12.9894 7.21382L12.9904 7.21675L13.2275 7.1377ZM13.2266 7.13477V7.38477H13.2275V7.13477V6.88477H13.2266V7.13477ZM13.2275 7.13477L13.4775 7.13475C13.4774 4.98902 11.7366 3.25 9.5918 3.25V3.5V3.75C11.4607 3.75 12.9774 5.26538 12.9775 7.13478L13.2275 7.13477Z" fill="#7E7C7C"/>
</svg>
