<svg width="24" height="24" viewBox="0 0 24 24" fill="none" xmlns="http://www.w3.org/2000/svg">
<path d="M10.5571 13.1621C11.6827 13.1621 12.8137 13.2447 13.686 13.5371C14.1259 13.6846 14.5558 13.9036 14.8823 14.2422C15.2266 14.5993 15.4232 15.0579 15.4233 15.5918C15.4233 16.1242 15.2285 16.5822 14.8862 16.9404C14.5613 17.2804 14.1334 17.5012 13.6938 17.6504C12.8222 17.946 11.6901 18.0312 10.5571 18.0312C9.43182 18.0312 8.30131 17.9497 7.4292 17.6582C6.98936 17.5111 6.55861 17.2927 6.23193 16.9541C5.88744 16.5969 5.69092 16.1376 5.69092 15.6035C5.6911 15.0714 5.88604 14.6132 6.22803 14.2549C6.55282 13.9147 6.98078 13.6934 7.42041 13.5439C8.29206 13.2477 9.42379 13.1621 10.5571 13.1621ZM10.5571 14.6621C9.45805 14.6621 8.53109 14.7503 7.90283 14.9639C7.59324 15.0691 7.41118 15.1874 7.31299 15.29C7.23231 15.3746 7.19106 15.4643 7.19092 15.6035C7.19092 15.7413 7.23181 15.8289 7.31201 15.9121C7.41022 16.0139 7.59324 16.1312 7.90479 16.2354C8.53567 16.4463 9.46297 16.5312 10.5571 16.5312C11.6561 16.5312 12.5829 16.4436 13.2114 16.2305C13.5217 16.1252 13.7042 16.0069 13.8022 15.9043C13.8828 15.8199 13.9233 15.7309 13.9233 15.5918C13.9233 15.4546 13.8836 15.3667 13.8032 15.2832C13.7047 15.1811 13.521 15.0634 13.2095 14.959C12.5785 14.7475 11.6507 14.6621 10.5571 14.6621ZM16.0845 12.8848C16.5916 12.9603 17.1143 13.0979 17.5278 13.3691C17.979 13.6652 18.3089 14.1333 18.3091 14.7666C18.3091 15.1816 18.1648 15.5499 17.9048 15.8438C17.6588 16.1216 17.3387 16.3009 17.0229 16.4209C16.6358 16.5678 16.2022 16.3735 16.0552 15.9863C15.9082 15.5992 16.1028 15.1657 16.4897 15.0186C16.6692 14.9504 16.7504 14.8849 16.7817 14.8496C16.795 14.8346 16.8001 14.825 16.8022 14.8193C16.8044 14.8135 16.8091 14.7977 16.8091 14.7666C16.809 14.7262 16.8007 14.7127 16.7974 14.707C16.7914 14.6971 16.7696 14.6657 16.7046 14.623C16.559 14.5278 16.2889 14.4325 15.8638 14.3691C15.4543 14.308 15.1711 13.9261 15.2319 13.5166C15.2929 13.1071 15.675 12.824 16.0845 12.8848ZM10.5571 5.96875C12.427 5.96875 13.9445 7.48412 13.9458 9.35449L13.9419 9.52832C13.8578 11.3139 12.3858 12.7384 10.5786 12.7451H10.5571C8.68632 12.7449 7.1688 11.2286 7.16846 9.35742C7.16846 7.48591 8.68611 5.96892 10.5571 5.96875ZM14.0083 7.26758C14.0753 6.85883 14.4619 6.5814 14.8706 6.64844C16.1697 6.86175 17.1606 7.98841 17.1606 9.34766V9.34863C17.1582 10.7277 16.1357 11.8661 14.8081 12.0527C14.3981 12.1104 14.0183 11.825 13.9604 11.415C13.9028 11.0049 14.189 10.6251 14.5991 10.5674C15.1974 10.4833 15.6588 9.96891 15.6606 9.34766L15.6558 9.23438C15.6047 8.67297 15.177 8.21911 14.6274 8.12891C14.2188 8.06189 13.9415 7.67621 14.0083 7.26758ZM10.5571 7.46875C9.51409 7.46892 8.66846 8.31479 8.66846 9.35742C8.6688 10.3998 9.5143 11.2449 10.5571 11.2451H10.5728C11.6106 11.2412 12.4496 10.3965 12.4458 9.35938V9.35742C12.4458 8.31457 11.5996 7.46875 10.5571 7.46875Z" fill="#7E7C7C"/>
<path d="M10.5571 13.1621V12.9121H10.5571L10.5571 13.1621ZM13.686 13.5371L13.7655 13.3001L13.7655 13.3001L13.686 13.5371ZM14.8823 14.2422L15.0623 14.0687L15.0623 14.0686L14.8823 14.2422ZM15.4233 15.5918H15.6733V15.5917L15.4233 15.5918ZM14.8862 16.9404L15.067 17.1132L15.067 17.1131L14.8862 16.9404ZM13.6938 17.6504L13.7741 17.8871L13.7742 17.8871L13.6938 17.6504ZM10.5571 18.0312L10.5571 18.2812H10.5571V18.0312ZM7.4292 17.6582L7.34991 17.8953L7.34994 17.8953L7.4292 17.6582ZM6.23193 16.9541L6.05198 17.1276L6.05202 17.1277L6.23193 16.9541ZM5.69092 15.6035L5.44092 15.6034V15.6035H5.69092ZM6.22803 14.2549L6.0472 14.0822L6.04717 14.0823L6.22803 14.2549ZM7.42041 13.5439L7.33995 13.3072L7.33995 13.3072L7.42041 13.5439ZM10.5571 14.6621V14.4121H10.5571L10.5571 14.6621ZM7.90283 14.9639L7.82238 14.7272L7.82235 14.7272L7.90283 14.9639ZM7.31299 15.29L7.1323 15.1173L7.13213 15.1174L7.31299 15.29ZM7.19092 15.6035L6.94092 15.6033V15.6035H7.19092ZM7.31201 15.9121L7.13201 16.0856L7.1321 16.0857L7.31201 15.9121ZM7.90479 16.2354L7.82549 16.4724L7.82552 16.4725L7.90479 16.2354ZM10.5571 16.5312L10.5571 16.7812H10.5571V16.5312ZM13.2114 16.2305L13.2917 16.4672L13.2917 16.4672L13.2114 16.2305ZM13.8022 15.9043L13.983 16.077L13.9831 16.0769L13.8022 15.9043ZM13.9233 15.5918H14.1733V15.5916L13.9233 15.5918ZM13.8032 15.2832L13.9833 15.1098L13.9831 15.1096L13.8032 15.2832ZM13.2095 14.959L13.2889 14.722L13.2889 14.7219L13.2095 14.959ZM16.0845 12.8848L16.1213 12.6375L16.1211 12.6375L16.0845 12.8848ZM17.5278 13.3691L17.665 13.1601L17.6649 13.1601L17.5278 13.3691ZM18.3091 14.7666L18.5591 14.7666V14.7665L18.3091 14.7666ZM17.9048 15.8438L18.092 16.0095L18.092 16.0094L17.9048 15.8438ZM17.0229 16.4209L17.1116 16.6546L17.1118 16.6546L17.0229 16.4209ZM16.0552 15.9863L15.8215 16.0751L15.8215 16.0751L16.0552 15.9863ZM16.4897 15.0186L16.401 14.7848L16.4009 14.7849L16.4897 15.0186ZM16.7817 14.8496L16.9688 15.0155L16.9691 15.0151L16.7817 14.8496ZM16.8022 14.8193L17.0357 14.9088L17.0364 14.907L16.8022 14.8193ZM16.8091 14.7666L17.0591 14.7666V14.7662L16.8091 14.7666ZM16.7974 14.707L17.0124 14.5794L17.0122 14.5792L16.7974 14.707ZM16.7046 14.623L16.8417 14.414L16.8415 14.4139L16.7046 14.623ZM15.8638 14.3691L15.8268 14.6164L15.8269 14.6164L15.8638 14.3691ZM15.2319 13.5166L14.9847 13.4798L14.9846 13.4799L15.2319 13.5166ZM10.5571 5.96875V5.71875H10.5571L10.5571 5.96875ZM13.9458 9.35449L14.1958 9.36011L14.1958 9.35431L13.9458 9.35449ZM13.9419 9.52832L14.1917 9.54009L14.1918 9.53394L13.9419 9.52832ZM10.5786 12.7451V12.9951L10.5795 12.9951L10.5786 12.7451ZM10.5571 12.7451L10.5571 12.9951H10.5571V12.7451ZM7.16846 9.35742H6.91846V9.35747L7.16846 9.35742ZM14.0083 7.26758L13.7616 7.22711L13.7616 7.22723L14.0083 7.26758ZM14.8706 6.64844L14.9111 6.40174L14.9111 6.40173L14.8706 6.64844ZM17.1606 9.34766H17.4106V9.34766L17.1606 9.34766ZM17.1606 9.34863L17.4106 9.34908V9.34863H17.1606ZM14.8081 12.0527L14.8429 12.3003L14.8429 12.3003L14.8081 12.0527ZM13.9604 11.415L13.7129 11.4498L13.7129 11.45L13.9604 11.415ZM14.5991 10.5674L14.5643 10.3198L14.5643 10.3198L14.5991 10.5674ZM15.6606 9.34766L15.9109 9.34838L15.9104 9.33689L15.6606 9.34766ZM15.6558 9.23438L15.9058 9.2236L15.9047 9.21172L15.6558 9.23438ZM14.6274 8.12891L14.6679 7.88221L14.6679 7.8822L14.6274 8.12891ZM10.5571 7.46875V7.21875H10.5571L10.5571 7.46875ZM8.66846 9.35742H8.41846V9.3575L8.66846 9.35742ZM10.5571 11.2451L10.5571 11.4951H10.5571V11.2451ZM10.5728 11.2451V11.4951L10.5737 11.4951L10.5728 11.2451ZM12.4458 9.35938H12.1958L12.1958 9.36029L12.4458 9.35938ZM10.5571 13.1621V13.4121C11.6773 13.4121 12.7744 13.4952 13.6066 13.7741L13.686 13.5371L13.7655 13.3001C12.853 12.9942 11.6882 12.9121 10.5571 12.9121V13.1621ZM13.686 13.5371L13.6066 13.7741C14.0249 13.9144 14.4138 14.1165 14.7024 14.4157L14.8823 14.2422L15.0623 14.0686C14.6978 13.6907 14.2268 13.4547 13.7655 13.3001L13.686 13.5371ZM14.8823 14.2422L14.7023 14.4157C15.0027 14.7272 15.1732 15.1239 15.1733 15.5918L15.4233 15.5918L15.6733 15.5917C15.6732 14.9918 15.4506 14.4715 15.0623 14.0687L14.8823 14.2422ZM15.4233 15.5918H15.1733C15.1733 16.0586 15.0042 16.455 14.7055 16.7677L14.8862 16.9404L15.067 17.1131C15.4528 16.7093 15.6733 16.1898 15.6733 15.5918H15.4233ZM14.8862 16.9404L14.7055 16.7677C14.4183 17.0682 14.0314 17.2719 13.6135 17.4136L13.6938 17.6504L13.7742 17.8871C14.2355 17.7306 14.7043 17.4926 15.067 17.1132L14.8862 16.9404ZM13.6938 17.6504L13.6135 17.4136C12.7823 17.6956 11.6843 17.7812 10.5571 17.7812V18.0312V18.2812C11.6958 18.2812 12.862 18.1965 13.7741 17.8871L13.6938 17.6504ZM10.5571 18.0312L10.5571 17.7812C9.43707 17.7812 8.3404 17.6992 7.50846 17.4211L7.4292 17.6582L7.34994 17.8953C8.26223 18.2003 9.42656 18.2812 10.5571 18.2812L10.5571 18.0312ZM7.4292 17.6582L7.50849 17.4211C7.08986 17.2811 6.70037 17.0796 6.41185 16.7805L6.23193 16.9541L6.05202 17.1277C6.41686 17.5058 6.88886 17.7411 7.34991 17.8953L7.4292 17.6582ZM6.23193 16.9541L6.41188 16.7806C6.1115 16.4691 5.94092 16.0716 5.94092 15.6035H5.69092H5.44092C5.44092 16.2035 5.66339 16.7247 6.05198 17.1276L6.23193 16.9541ZM5.69092 15.6035L5.94092 15.6036C5.94108 15.1371 6.11032 14.7403 6.40889 14.4275L6.22803 14.2549L6.04717 14.0823C5.66176 14.4861 5.44112 15.0057 5.44092 15.6034L5.69092 15.6035ZM6.22803 14.2549L6.40885 14.4275C6.69595 14.1268 7.08301 13.9227 7.50087 13.7806L7.42041 13.5439L7.33995 13.3072C6.87855 13.4641 6.40969 13.7026 6.0472 14.0822L6.22803 14.2549ZM7.42041 13.5439L7.50087 13.7806C8.332 13.4981 9.42959 13.4121 10.5571 13.4121L10.5571 13.1621L10.5571 12.9121C9.41798 12.9121 8.25212 12.9972 7.33995 13.3072L7.42041 13.5439ZM10.5571 14.6621L10.5571 14.4121C9.45251 14.4121 8.49128 14.4998 7.82238 14.7272L7.90283 14.9639L7.98329 15.2006C8.5709 15.0008 9.46358 14.9121 10.5571 14.9121L10.5571 14.6621ZM7.90283 14.9639L7.82235 14.7272C7.49082 14.8399 7.26803 14.9753 7.1323 15.1173L7.31299 15.29L7.49367 15.4628C7.55432 15.3994 7.69566 15.2984 7.98332 15.2006L7.90283 14.9639ZM7.31299 15.29L7.13213 15.1174C7.00795 15.2476 6.94113 15.3987 6.94092 15.6033L7.19092 15.6035L7.44092 15.6038C7.441 15.53 7.45667 15.5016 7.49385 15.4626L7.31299 15.29ZM7.19092 15.6035H6.94092C6.94092 15.6978 6.95504 15.7874 6.98998 15.8729C7.02498 15.9585 7.07565 16.0271 7.13201 16.0856L7.31201 15.9121L7.49202 15.7386C7.46817 15.7139 7.45829 15.6971 7.45279 15.6837C7.44724 15.6701 7.44092 15.647 7.44092 15.6035H7.19092ZM7.31201 15.9121L7.1321 16.0857C7.2683 16.2269 7.4924 16.361 7.82549 16.4724L7.90479 16.2354L7.98408 15.9983C7.69408 15.9013 7.55215 15.8009 7.49192 15.7385L7.31201 15.9121ZM7.90479 16.2354L7.82552 16.4725C8.49666 16.6968 9.45787 16.7812 10.5571 16.7812L10.5571 16.5312L10.5571 16.2812C9.46807 16.2812 8.57469 16.1957 7.98405 15.9982L7.90479 16.2354ZM10.5571 16.5312V16.7812C11.6615 16.7812 12.6226 16.6941 13.2917 16.4672L13.2114 16.2305L13.1312 15.9937C12.5432 16.193 11.6506 16.2812 10.5571 16.2812V16.5312ZM13.2114 16.2305L13.2917 16.4672C13.6239 16.3545 13.8473 16.219 13.983 16.077L13.8022 15.9043L13.6215 15.7316C13.5611 15.7947 13.4196 15.8959 13.1311 15.9937L13.2114 16.2305ZM13.8022 15.9043L13.9831 16.0769C14.1076 15.9465 14.1733 15.7958 14.1733 15.5918H13.9233H13.6733C13.6733 15.666 13.658 15.6934 13.6214 15.7317L13.8022 15.9043ZM13.9233 15.5918L14.1733 15.5916C14.1733 15.4985 14.1597 15.4093 14.1253 15.3239C14.0907 15.2382 14.0403 15.169 13.9833 15.1098L13.8032 15.2832L13.6231 15.4566C13.6465 15.4809 13.6561 15.4974 13.6615 15.5108C13.6671 15.5245 13.6733 15.5479 13.6733 15.5919L13.9233 15.5918ZM13.8032 15.2832L13.9831 15.1096C13.8467 14.9682 13.622 14.8336 13.2889 14.722L13.2095 14.959L13.13 15.196C13.42 15.2932 13.5627 15.394 13.6233 15.4568L13.8032 15.2832ZM13.2095 14.959L13.2889 14.7219C12.6177 14.497 11.6559 14.4121 10.5571 14.4121V14.6621V14.9121C11.6455 14.9121 12.5394 14.9981 13.13 15.196L13.2095 14.959ZM16.0845 12.8848L16.0476 13.132C16.541 13.2055 17.0217 13.3362 17.3907 13.5782L17.5278 13.3691L17.6649 13.1601C17.2068 12.8596 16.6421 12.7151 16.1213 12.6375L16.0845 12.8848ZM17.5278 13.3691L17.3907 13.5782C17.7852 13.8371 18.0589 14.2329 18.0591 14.7667L18.3091 14.7666L18.5591 14.7665C18.5589 14.0337 18.1727 13.4933 17.665 13.1601L17.5278 13.3691ZM18.3091 14.7666L18.0591 14.7666C18.0591 15.1203 17.9373 15.4298 17.7176 15.6781L17.9048 15.8438L18.092 16.0094C18.3924 15.67 18.5591 15.2428 18.5591 14.7666L18.3091 14.7666ZM17.9048 15.8438L17.7176 15.678C17.5073 15.9156 17.2271 16.0759 16.9341 16.1872L17.0229 16.4209L17.1118 16.6546C17.4504 16.5259 17.8103 16.3277 18.092 16.0095L17.9048 15.8438ZM17.0229 16.4209L16.9343 16.1872C16.6759 16.2852 16.3868 16.1553 16.2889 15.8976L16.0552 15.9863L15.8215 16.0751C16.0177 16.5916 16.5958 16.8504 17.1116 16.6546L17.0229 16.4209ZM16.0552 15.9863L16.2889 15.8976C16.1909 15.6394 16.3207 15.3503 16.5786 15.2522L16.4897 15.0186L16.4009 14.7849C15.8848 14.9812 15.6255 15.5591 15.8215 16.0751L16.0552 15.9863ZM16.4897 15.0186L16.5785 15.2523C16.7806 15.1755 16.9016 15.0912 16.9688 15.0155L16.7817 14.8496L16.5947 14.6837C16.5992 14.6787 16.5578 14.7253 16.401 14.7848L16.4897 15.0186ZM16.7817 14.8496L16.9691 15.0151C16.9959 14.9848 17.0199 14.9499 17.0357 14.9088L16.8022 14.8193L16.5688 14.7299C16.5802 14.7 16.594 14.6845 16.5944 14.6841L16.7817 14.8496ZM16.8022 14.8193L17.0364 14.907C17.0505 14.8691 17.0591 14.8231 17.0591 14.7666L16.8091 14.7666L16.5591 14.7666C16.5591 14.7724 16.5583 14.7579 16.5681 14.7317L16.8022 14.8193ZM16.8091 14.7666L17.0591 14.7662C17.059 14.7294 17.0552 14.693 17.0456 14.6576C17.0406 14.6396 17.0344 14.623 17.0273 14.6076C17.0238 14.6001 17.0204 14.5936 17.0175 14.5883C17.0148 14.5835 17.0122 14.5792 17.0124 14.5794L16.7974 14.707L16.5824 14.8346C16.5832 14.8361 16.5785 14.8283 16.5739 14.8184C16.5693 14.8085 16.5658 14.7988 16.5634 14.7899C16.5587 14.7728 16.5591 14.7634 16.5591 14.767L16.8091 14.7666ZM16.7974 14.707L17.0122 14.5792C16.9838 14.5314 16.933 14.4739 16.8417 14.414L16.7046 14.623L16.5674 14.8321C16.5873 14.8451 16.5951 14.8528 16.5958 14.8535C16.5961 14.8538 16.5947 14.8525 16.5922 14.8492C16.5896 14.8458 16.5862 14.8411 16.5825 14.8349L16.7974 14.707ZM16.7046 14.623L16.8415 14.4139C16.6511 14.2892 16.3388 14.1872 15.9006 14.1219L15.8638 14.3691L15.8269 14.6164C16.239 14.6778 16.4669 14.7663 16.5677 14.8322L16.7046 14.623ZM15.8638 14.3691L15.9007 14.1219C15.6276 14.0811 15.4387 13.8262 15.4792 13.5533L15.2319 13.5166L14.9846 13.4799C14.9035 14.026 15.2811 14.5349 15.8268 14.6164L15.8638 14.3691ZM15.2319 13.5166L15.4792 13.5534C15.5199 13.2805 15.7747 13.0916 16.0478 13.1321L16.0845 12.8848L16.1211 12.6375C15.5752 12.5565 15.066 12.9337 14.9847 13.4798L15.2319 13.5166ZM10.5571 5.96875V6.21875C12.2891 6.21875 13.6946 7.62237 13.6958 9.35467L13.9458 9.35449L14.1958 9.35431C14.1944 7.34587 12.5649 5.71875 10.5571 5.71875V5.96875ZM13.9458 9.35449L13.6959 9.34888L13.692 9.5227L13.9419 9.52832L14.1918 9.53394L14.1957 9.36011L13.9458 9.35449ZM13.9419 9.52832L13.6922 9.51656C13.6143 11.1697 12.2512 12.4889 10.5777 12.4951L10.5786 12.7451L10.5795 12.9951C12.5204 12.9879 14.1013 11.4581 14.1916 9.54008L13.9419 9.52832ZM10.5786 12.7451V12.4951H10.5571V12.7451V12.9951H10.5786V12.7451ZM10.5571 12.7451L10.5572 12.4951C8.8243 12.495 7.41877 11.0905 7.41846 9.35738L7.16846 9.35742L6.91846 9.35747C6.91882 11.3668 8.54833 12.9949 10.5571 12.9951L10.5571 12.7451ZM7.16846 9.35742H7.41846C7.41846 7.62403 8.82414 6.21891 10.5572 6.21875L10.5571 5.96875L10.5571 5.71875C8.54807 5.71893 6.91846 7.3478 6.91846 9.35742H7.16846ZM14.0083 7.26758L14.255 7.30804C14.2997 7.03562 14.5576 6.85044 14.8301 6.89514L14.8706 6.64844L14.9111 6.40173C14.3661 6.31236 13.851 6.68204 13.7616 7.22711L14.0083 7.26758ZM14.8706 6.64844L14.8301 6.89513C16.0105 7.08895 16.9106 8.11296 16.9106 9.34766L17.1606 9.34766L17.4106 9.34766C17.4106 7.86386 16.329 6.63454 14.9111 6.40174L14.8706 6.64844ZM17.1606 9.34766H16.9106V9.34863H17.1606H17.4106V9.34766H17.1606ZM17.1606 9.34863L16.9106 9.34818C16.9084 10.601 15.9796 11.6356 14.7733 11.8052L14.8081 12.0527L14.8429 12.3003C16.2919 12.0966 17.4079 10.8545 17.4106 9.34908L17.1606 9.34863ZM14.8081 12.0527L14.7733 11.8052C14.4996 11.8436 14.2465 11.6531 14.208 11.3801L13.9604 11.415L13.7129 11.45C13.7901 11.9969 14.2965 12.3771 14.8429 12.3003L14.8081 12.0527ZM13.9604 11.415L14.208 11.3802C14.1696 11.1068 14.3605 10.8534 14.6339 10.8149L14.5991 10.5674L14.5643 10.3198C14.0175 10.3967 13.636 10.903 13.7129 11.4498L13.9604 11.415ZM14.5991 10.5674L14.6339 10.8149C15.3537 10.7138 15.9085 10.0956 15.9106 9.34838L15.6606 9.34766L15.4106 9.34693C15.4092 9.84223 15.041 10.2528 14.5643 10.3198L14.5991 10.5674ZM15.6606 9.34766L15.9104 9.33689L15.9055 9.22361L15.6558 9.23438L15.406 9.24514L15.4109 9.35842L15.6606 9.34766ZM15.6558 9.23438L15.9047 9.21172C15.8433 8.53614 15.3292 7.99075 14.6679 7.88221L14.6274 8.12891L14.587 8.37561C15.0248 8.44748 15.3661 8.8098 15.4068 9.25703L15.6558 9.23438ZM14.6274 8.12891L14.6679 7.8822C14.3954 7.8375 14.2105 7.58023 14.255 7.30793L14.0083 7.26758L13.7616 7.22723C13.6724 7.77218 14.0422 8.28627 14.587 8.37561L14.6274 8.12891ZM10.5571 7.46875L10.5571 7.21875C9.37601 7.21894 8.41846 8.17671 8.41846 9.35742H8.66846H8.91846C8.91846 8.45286 9.65217 7.7189 10.5572 7.71875L10.5571 7.46875ZM8.66846 9.35742L8.41846 9.3575C8.41884 10.5379 9.37631 11.4949 10.5571 11.4951L10.5571 11.2451L10.5572 10.9951C9.65229 10.995 8.91875 10.2616 8.91846 9.35734L8.66846 9.35742ZM10.5571 11.2451V11.4951H10.5728V11.2451V10.9951H10.5571V11.2451ZM10.5728 11.2451L10.5737 11.4951C11.7495 11.4907 12.7001 10.5338 12.6958 9.35846L12.4458 9.35938L12.1958 9.36029C12.1991 10.2592 11.4718 10.9918 10.5718 10.9951L10.5728 11.2451ZM12.4458 9.35938H12.6958V9.35742H12.4458H12.1958V9.35938H12.4458ZM12.4458 9.35742H12.6958C12.6958 8.17647 11.7376 7.21875 10.5571 7.21875V7.46875V7.71875C11.4616 7.71875 12.1958 8.45267 12.1958 9.35742H12.4458Z" fill="#7E7C7C"/>
</svg>
