<svg width="35" height="35" viewBox="0 0 35 35" fill="none" xmlns="http://www.w3.org/2000/svg">
<path d="M12.8672 4.74512C13.4914 4.74034 14.1031 4.90297 14.6455 5.21484C15.1872 5.52642 15.6399 5.97474 15.9688 6.51074L17.0488 8.23828L17.0547 8.24805L17.1846 8.43359C17.3227 8.60844 17.4866 8.75094 17.666 8.85547C17.9049 8.9945 18.1674 9.06435 18.4287 9.06445H26.3359C27.3344 9.06449 28.2744 9.49435 28.9551 10.2295C29.6333 10.9621 30.0029 11.94 30.0029 12.9453V14.9717C30.224 15.0376 30.4395 15.1247 30.6455 15.2334C31.1531 15.5013 31.5899 15.8876 31.9268 16.3564C32.2634 16.825 32.4926 17.3657 32.6016 17.9355C32.7104 18.5052 32.6972 19.0944 32.5625 19.6582L30.5088 28.2988V28.2998C30.3122 29.1216 29.8635 29.8637 29.2188 30.3994C28.5741 30.9348 27.7708 31.231 26.9355 31.2266V31.2275H7.66699C6.66884 31.2274 5.72844 30.7983 5.04785 30.0635C4.36977 29.3311 4.00024 28.3527 4 27.3477V8.625C4 7.61983 4.36981 6.64073 5.04785 5.9082C5.72844 5.17337 6.66883 4.74326 7.66699 4.74316L12.8672 4.74512ZM7.66699 6.74414C7.25092 6.74424 6.83418 6.92248 6.51465 7.26758C6.19302 7.61531 6 8.10286 6 8.625V27.3477C6.00024 27.8696 6.19303 28.3566 6.51465 28.7041C6.83417 29.0491 7.25096 29.2274 7.66699 29.2275H26.9434C27.2938 29.2301 27.6459 29.1067 27.9414 28.8613C28.2384 28.6145 28.4628 28.2556 28.5635 27.835L30.6172 19.1953V19.1934C30.6859 18.9056 30.6924 18.6032 30.6367 18.3115C30.5809 18.0197 30.4655 17.7501 30.3027 17.5234C30.1401 17.2971 29.9362 17.1214 29.7119 17.0029C29.488 16.8847 29.2462 16.8248 29.0049 16.8252H14.6797L14.5723 16.832C14.3229 16.8566 14.0771 16.9454 13.8555 17.0967C13.6014 17.2703 13.3849 17.5218 13.2402 17.832L13.2363 17.8418L11.2363 22.0186C10.9976 22.5162 10.4002 22.7266 9.90234 22.4883C9.40448 22.2498 9.19352 21.6523 9.43164 21.1543L11.4326 16.9775C11.7228 16.3595 12.1677 15.8267 12.7275 15.4443C13.2912 15.0596 13.9494 14.8433 14.6299 14.8262L14.6543 14.8252H28.0029V12.9453C28.0029 12.423 27.8101 11.9357 27.4883 11.5879C27.1687 11.2427 26.7521 11.0645 26.3359 11.0645H18.4277C17.8064 11.0642 17.1984 10.8972 16.6602 10.584C16.1256 10.2728 15.679 9.8284 15.3535 9.29785V9.29883L14.2734 7.57031L14.2676 7.56152V7.56055C14.1063 7.29615 13.8909 7.08866 13.6484 6.94922C13.4066 6.81018 13.1419 6.74135 12.8779 6.74414H7.66699Z" fill="#7E7C7C"/>
</svg>
