<svg width="24" height="24" viewBox="0 0 24 24" fill="none" xmlns="http://www.w3.org/2000/svg">
<mask id="path-1-outside-1_1_193" maskUnits="userSpaceOnUse" x="1.49988" y="1.5" width="21" height="21" fill="black">
<rect fill="white" x="1.49988" y="1.5" width="21" height="21"/>
<path d="M12.5262 3.55566C12.8032 3.55566 13.0697 3.6509 13.2655 3.82129C13.4612 3.99161 13.5711 4.22302 13.5712 4.46387V5.14551H14.1522C15.2716 5.14544 16.349 5.51687 17.1649 6.18359C17.9809 6.85034 18.4747 7.76233 18.5448 8.73438L18.7753 11.9453C18.8645 13.1693 19.3372 14.3492 20.1415 15.3564C20.3077 15.5645 20.4094 15.8063 20.4364 16.0586C20.4635 16.311 20.4151 16.5656 20.2958 16.7969C20.1765 17.0281 19.9904 17.2287 19.7557 17.3789C19.521 17.5291 19.2452 17.6232 18.9559 17.6533L15.3983 18.0244V19.001C15.3983 19.6635 15.0958 20.299 14.5575 20.7676C14.019 21.2361 13.2878 21.5 12.5262 21.5C11.7648 21.4999 11.0344 21.2361 10.496 20.7676C9.95762 20.299 9.65515 19.6635 9.65515 19.001V18.0244L6.09753 17.6533C5.8085 17.6231 5.53324 17.528 5.29871 17.3779C5.06411 17.2278 4.87795 17.0271 4.75867 16.7959C4.63942 16.5648 4.59116 16.3108 4.61804 16.0586C4.64495 15.8064 4.74602 15.5645 4.91199 15.3564C5.71628 14.3492 6.18898 13.1693 6.2782 11.9453L6.50867 8.73438C6.57879 7.76234 7.0726 6.85034 7.88855 6.18359C8.70449 5.5169 9.78192 5.14544 10.9012 5.14551H11.4823V4.46387C11.4824 4.223 11.5922 3.99161 11.788 3.82129C11.9837 3.65099 12.2495 3.55577 12.5262 3.55566ZM11.2216 19.001C11.2216 19.6278 11.8059 20.1365 12.5262 20.1367C13.2468 20.1367 13.8319 19.6279 13.8319 19.001V18.3193H11.2216V19.001ZM10.9012 6.50879C10.1804 6.50871 9.48634 6.74745 8.96082 7.17676C8.4354 7.60607 8.11743 8.19345 8.07214 8.81934L7.84265 12.0303C7.73529 13.5028 7.16687 14.9222 6.1991 16.1338C6.18706 16.1488 6.17958 16.1663 6.17761 16.1846C6.17565 16.2028 6.17876 16.2215 6.18738 16.2383C6.196 16.2549 6.20954 16.2694 6.22644 16.2803C6.24332 16.2911 6.26326 16.2976 6.28406 16.2998L10.1864 16.708C11.7412 16.8697 13.3122 16.8697 14.8671 16.708L18.7694 16.2998C18.7902 16.2976 18.8102 16.2911 18.827 16.2803C18.8439 16.2694 18.8575 16.2549 18.8661 16.2383C18.8747 16.2215 18.8778 16.2028 18.8759 16.1846C18.8739 16.1663 18.8664 16.1488 18.8544 16.1338C17.8869 14.9221 17.3188 13.5027 17.2118 12.0303L16.9813 8.81934C16.936 8.19344 16.6181 7.60607 16.0927 7.17676C15.5671 6.74742 14.8731 6.50871 14.1522 6.50879H10.9012ZM5.84558 2.50098C6.06195 2.49078 6.27505 2.5502 6.43835 2.66602C6.6014 2.78173 6.70262 2.94474 6.7196 3.12012C6.73649 3.29573 6.66739 3.47045 6.5282 3.60547L5.10242 4.93457C4.54882 5.44995 4.23536 6.10702 4.21765 6.79102L4.15613 9.22949C4.15388 9.31787 4.1295 9.40538 4.08582 9.48633C4.04216 9.56708 3.97953 9.64009 3.90125 9.70117C3.82277 9.76237 3.73011 9.81064 3.62878 9.84277C3.52748 9.87489 3.41914 9.8905 3.31042 9.88867C3.20177 9.88682 3.09452 9.86751 2.995 9.83203C2.89547 9.79654 2.80561 9.74537 2.73035 9.68164C2.65505 9.61786 2.59605 9.54231 2.55652 9.45996C2.5171 9.37779 2.4977 9.29032 2.49988 9.20215L2.56238 6.76172C2.58809 5.76224 3.04571 4.8021 3.85437 4.04883L5.28113 2.7207C5.42683 2.59038 5.62929 2.51121 5.84558 2.50098ZM18.994 2.50195C19.1579 2.51405 19.3108 2.59621 19.4188 2.73047L20.4862 4.05664C21.0913 4.80904 21.4338 5.76825 21.453 6.7666L21.4999 9.20215C21.5033 9.38039 21.4408 9.55299 21.327 9.68164C21.2134 9.81018 21.0576 9.88486 20.8934 9.88867C20.7291 9.89236 20.5696 9.82462 20.451 9.70117C20.3327 9.57777 20.264 9.40856 20.2606 9.23047L20.2137 6.79492C20.2008 6.11173 19.9665 5.45543 19.5526 4.94043L18.4862 3.61426C18.3782 3.47995 18.3237 3.30379 18.3348 3.12598C18.3461 2.94852 18.4214 2.78311 18.5448 2.66602C18.6685 2.54897 18.8303 2.48998 18.994 2.50195Z"/>
</mask>
<path d="M12.5262 3.55566C12.8032 3.55566 13.0697 3.6509 13.2655 3.82129C13.4612 3.99161 13.5711 4.22302 13.5712 4.46387V5.14551H14.1522C15.2716 5.14544 16.349 5.51687 17.1649 6.18359C17.9809 6.85034 18.4747 7.76233 18.5448 8.73438L18.7753 11.9453C18.8645 13.1693 19.3372 14.3492 20.1415 15.3564C20.3077 15.5645 20.4094 15.8063 20.4364 16.0586C20.4635 16.311 20.4151 16.5656 20.2958 16.7969C20.1765 17.0281 19.9904 17.2287 19.7557 17.3789C19.521 17.5291 19.2452 17.6232 18.9559 17.6533L15.3983 18.0244V19.001C15.3983 19.6635 15.0958 20.299 14.5575 20.7676C14.019 21.2361 13.2878 21.5 12.5262 21.5C11.7648 21.4999 11.0344 21.2361 10.496 20.7676C9.95762 20.299 9.65515 19.6635 9.65515 19.001V18.0244L6.09753 17.6533C5.8085 17.6231 5.53324 17.528 5.29871 17.3779C5.06411 17.2278 4.87795 17.0271 4.75867 16.7959C4.63942 16.5648 4.59116 16.3108 4.61804 16.0586C4.64495 15.8064 4.74602 15.5645 4.91199 15.3564C5.71628 14.3492 6.18898 13.1693 6.2782 11.9453L6.50867 8.73438C6.57879 7.76234 7.0726 6.85034 7.88855 6.18359C8.70449 5.5169 9.78192 5.14544 10.9012 5.14551H11.4823V4.46387C11.4824 4.223 11.5922 3.99161 11.788 3.82129C11.9837 3.65099 12.2495 3.55577 12.5262 3.55566ZM11.2216 19.001C11.2216 19.6278 11.8059 20.1365 12.5262 20.1367C13.2468 20.1367 13.8319 19.6279 13.8319 19.001V18.3193H11.2216V19.001ZM10.9012 6.50879C10.1804 6.50871 9.48634 6.74745 8.96082 7.17676C8.4354 7.60607 8.11743 8.19345 8.07214 8.81934L7.84265 12.0303C7.73529 13.5028 7.16687 14.9222 6.1991 16.1338C6.18706 16.1488 6.17958 16.1663 6.17761 16.1846C6.17565 16.2028 6.17876 16.2215 6.18738 16.2383C6.196 16.2549 6.20954 16.2694 6.22644 16.2803C6.24332 16.2911 6.26326 16.2976 6.28406 16.2998L10.1864 16.708C11.7412 16.8697 13.3122 16.8697 14.8671 16.708L18.7694 16.2998C18.7902 16.2976 18.8102 16.2911 18.827 16.2803C18.8439 16.2694 18.8575 16.2549 18.8661 16.2383C18.8747 16.2215 18.8778 16.2028 18.8759 16.1846C18.8739 16.1663 18.8664 16.1488 18.8544 16.1338C17.8869 14.9221 17.3188 13.5027 17.2118 12.0303L16.9813 8.81934C16.936 8.19344 16.6181 7.60607 16.0927 7.17676C15.5671 6.74742 14.8731 6.50871 14.1522 6.50879H10.9012ZM5.84558 2.50098C6.06195 2.49078 6.27505 2.5502 6.43835 2.66602C6.6014 2.78173 6.70262 2.94474 6.7196 3.12012C6.73649 3.29573 6.66739 3.47045 6.5282 3.60547L5.10242 4.93457C4.54882 5.44995 4.23536 6.10702 4.21765 6.79102L4.15613 9.22949C4.15388 9.31787 4.1295 9.40538 4.08582 9.48633C4.04216 9.56708 3.97953 9.64009 3.90125 9.70117C3.82277 9.76237 3.73011 9.81064 3.62878 9.84277C3.52748 9.87489 3.41914 9.8905 3.31042 9.88867C3.20177 9.88682 3.09452 9.86751 2.995 9.83203C2.89547 9.79654 2.80561 9.74537 2.73035 9.68164C2.65505 9.61786 2.59605 9.54231 2.55652 9.45996C2.5171 9.37779 2.4977 9.29032 2.49988 9.20215L2.56238 6.76172C2.58809 5.76224 3.04571 4.8021 3.85437 4.04883L5.28113 2.7207C5.42683 2.59038 5.62929 2.51121 5.84558 2.50098ZM18.994 2.50195C19.1579 2.51405 19.3108 2.59621 19.4188 2.73047L20.4862 4.05664C21.0913 4.80904 21.4338 5.76825 21.453 6.7666L21.4999 9.20215C21.5033 9.38039 21.4408 9.55299 21.327 9.68164C21.2134 9.81018 21.0576 9.88486 20.8934 9.88867C20.7291 9.89236 20.5696 9.82462 20.451 9.70117C20.3327 9.57777 20.264 9.40856 20.2606 9.23047L20.2137 6.79492C20.2008 6.11173 19.9665 5.45543 19.5526 4.94043L18.4862 3.61426C18.3782 3.47995 18.3237 3.30379 18.3348 3.12598C18.3461 2.94852 18.4214 2.78311 18.5448 2.66602C18.6685 2.54897 18.8303 2.48998 18.994 2.50195Z" fill="#7E7C7C"/>
<path d="M12.5262 3.55566V3.35566H12.5262L12.5262 3.55566ZM13.2655 3.82129L13.3968 3.67042L13.3968 3.67041L13.2655 3.82129ZM13.5712 4.46387H13.7712V4.4638L13.5712 4.46387ZM13.5712 5.14551H13.3712V5.34551H13.5712V5.14551ZM14.1522 5.14551V5.34551H14.1522L14.1522 5.14551ZM17.1649 6.18359L17.2915 6.02872L17.2915 6.02872L17.1649 6.18359ZM18.5448 8.73438L18.7443 8.72006L18.7443 8.71998L18.5448 8.73438ZM18.7753 11.9453L18.5758 11.9596L18.5758 11.9599L18.7753 11.9453ZM20.1415 15.3564L19.9852 15.4812L19.9852 15.4813L20.1415 15.3564ZM20.4364 16.0586L20.6353 16.0373V16.0373L20.4364 16.0586ZM20.2958 16.7969L20.4735 16.8886L20.4735 16.8886L20.2958 16.7969ZM19.7557 17.3789L19.8635 17.5474L19.8635 17.5474L19.7557 17.3789ZM18.9559 17.6533L18.9352 17.4544H18.9352L18.9559 17.6533ZM15.3983 18.0244L15.3776 17.8255L15.1983 17.8442V18.0244H15.3983ZM15.3983 19.001H15.1983H15.3983ZM14.5575 20.7676L14.6888 20.9185L14.6888 20.9184L14.5575 20.7676ZM12.5262 21.5L12.5262 21.7H12.5262V21.5ZM10.496 20.7676L10.3647 20.9184L10.3647 20.9185L10.496 20.7676ZM9.65515 19.001H9.85515H9.65515ZM9.65515 18.0244H9.85515V17.8442L9.6759 17.8255L9.65515 18.0244ZM6.09753 17.6533L6.07673 17.8522L6.07678 17.8522L6.09753 17.6533ZM5.29871 17.3779L5.19089 17.5464L5.19092 17.5464L5.29871 17.3779ZM4.75867 16.7959L4.58093 16.8876L4.58093 16.8876L4.75867 16.7959ZM4.61804 16.0586L4.41917 16.0374L4.41917 16.0374L4.61804 16.0586ZM4.91199 15.3564L4.7557 15.2316L4.75565 15.2317L4.91199 15.3564ZM6.2782 11.9453L6.47767 11.9599L6.47768 11.9596L6.2782 11.9453ZM6.50867 8.73438L6.30919 8.71998L6.30918 8.72006L6.50867 8.73438ZM7.88855 6.18359L7.762 6.02872L7.762 6.02872L7.88855 6.18359ZM10.9012 5.14551L10.9012 5.34551H10.9012V5.14551ZM11.4823 5.14551V5.34551H11.6823V5.14551H11.4823ZM11.4823 4.46387L11.2823 4.4638V4.46387H11.4823ZM11.788 3.82129L11.6567 3.67041L11.6567 3.67041L11.788 3.82129ZM12.5262 20.1367L12.5262 20.3367H12.5262V20.1367ZM13.8319 18.3193H14.0319V18.1193H13.8319V18.3193ZM11.2216 18.3193V18.1193H11.0216V18.3193H11.2216ZM10.9012 6.50879L10.9012 6.70879H10.9012V6.50879ZM8.96082 7.17676L8.83428 7.02187L8.83427 7.02188L8.96082 7.17676ZM8.07214 8.81934L7.87266 8.8049L7.87265 8.80508L8.07214 8.81934ZM7.84265 12.0303L8.04212 12.0448L8.04214 12.0445L7.84265 12.0303ZM6.1991 16.1338L6.35527 16.2587L6.35536 16.2586L6.1991 16.1338ZM6.17761 16.1846L5.97877 16.1631L5.97876 16.1632L6.17761 16.1846ZM6.18738 16.2383L6.00957 16.3299L6.00978 16.3303L6.18738 16.2383ZM6.22644 16.2803L6.11852 16.4487L6.11854 16.4487L6.22644 16.2803ZM6.28406 16.2998L6.26269 16.4987L6.26325 16.4987L6.28406 16.2998ZM10.1864 16.708L10.1656 16.9069L10.1657 16.9069L10.1864 16.708ZM14.8671 16.708L14.8878 16.9069L14.8879 16.9069L14.8671 16.708ZM18.7694 16.2998L18.7902 16.4987L18.7909 16.4986L18.7694 16.2998ZM18.827 16.2803L18.9349 16.4487L18.935 16.4486L18.827 16.2803ZM18.8661 16.2383L19.0437 16.3302L19.0439 16.3298L18.8661 16.2383ZM18.8759 16.1846L19.0747 16.1632L19.0747 16.1631L18.8759 16.1846ZM18.8544 16.1338L18.6981 16.2586L18.6982 16.2587L18.8544 16.1338ZM17.2118 12.0303L17.0123 12.0446L17.0123 12.0448L17.2118 12.0303ZM16.9813 8.81934L17.1808 8.80502L17.1808 8.8049L16.9813 8.81934ZM16.0927 7.17676L16.2192 7.02188L16.2192 7.02187L16.0927 7.17676ZM14.1522 6.50879V6.70879H14.1522L14.1522 6.50879ZM5.84558 2.50098L5.83617 2.3012L5.83613 2.3012L5.84558 2.50098ZM6.43835 2.66602L6.55411 2.50292L6.55405 2.50288L6.43835 2.66602ZM6.7196 3.12012L6.91869 3.10098L6.91867 3.10083L6.7196 3.12012ZM6.5282 3.60547L6.6646 3.75179L6.66745 3.74902L6.5282 3.60547ZM5.10242 4.93457L5.2387 5.08095L5.23879 5.08086L5.10242 4.93457ZM4.21765 6.79102L4.01772 6.78584L4.01771 6.78597L4.21765 6.79102ZM4.15613 9.22949L4.35606 9.23458L4.35606 9.23454L4.15613 9.22949ZM4.08582 9.48633L4.26175 9.58145L4.26182 9.58132L4.08582 9.48633ZM3.90125 9.70117L4.02424 9.85888L4.02427 9.85886L3.90125 9.70117ZM3.62878 9.84277L3.68923 10.0334L3.68924 10.0334L3.62878 9.84277ZM3.31042 9.88867L3.30702 10.0886L3.30707 10.0886L3.31042 9.88867ZM2.995 9.83203L2.92781 10.0204L2.92783 10.0204L2.995 9.83203ZM2.73035 9.68164L2.60108 9.83425L2.6011 9.83427L2.73035 9.68164ZM2.55652 9.45996L2.37619 9.54646L2.37622 9.54652L2.55652 9.45996ZM2.49988 9.20215L2.29994 9.19703L2.29994 9.19722L2.49988 9.20215ZM2.56238 6.76172L2.36244 6.75658L2.36244 6.7566L2.56238 6.76172ZM3.85437 4.04883L3.7181 3.90244L3.71805 3.90248L3.85437 4.04883ZM5.28113 2.7207L5.14776 2.57161L5.14486 2.57431L5.28113 2.7207ZM18.994 2.50195L19.0087 2.3025L19.0086 2.30249L18.994 2.50195ZM19.4188 2.73047L19.263 2.85583L19.263 2.85587L19.4188 2.73047ZM20.4862 4.05664L20.6421 3.93131L20.642 3.93124L20.4862 4.05664ZM21.453 6.7666L21.253 6.77045V6.77045L21.453 6.7666ZM21.4999 9.20215L21.6998 9.19834L21.6998 9.1983L21.4999 9.20215ZM21.327 9.68164L21.4769 9.81413L21.4769 9.81411L21.327 9.68164ZM20.8934 9.88867L20.8979 10.0886L20.8981 10.0886L20.8934 9.88867ZM20.451 9.70117L20.3067 9.83963L20.3068 9.83972L20.451 9.70117ZM20.2606 9.23047L20.4606 9.22663V9.22662L20.2606 9.23047ZM20.2137 6.79492L20.0138 6.7987L20.0138 6.79877L20.2137 6.79492ZM19.5526 4.94043L19.7085 4.81513L19.7085 4.8151L19.5526 4.94043ZM18.4862 3.61426L18.3303 3.73956L18.3303 3.73959L18.4862 3.61426ZM18.3348 3.12598L18.1352 3.11335L18.1352 3.11346L18.3348 3.12598ZM18.5448 2.66602L18.4073 2.52076L18.4071 2.52094L18.5448 2.66602ZM12.5262 3.55566V3.75566C12.7589 3.75566 12.9776 3.83594 13.1342 3.97217L13.2655 3.82129L13.3968 3.67041C13.1617 3.46586 12.8475 3.35566 12.5262 3.35566V3.55566ZM13.2655 3.82129L13.1342 3.97216C13.29 4.1077 13.3711 4.28561 13.3712 4.46394L13.5712 4.46387L13.7712 4.4638C13.7711 4.16043 13.6325 3.87552 13.3968 3.67042L13.2655 3.82129ZM13.5712 4.46387H13.3712V5.14551H13.5712H13.7712V4.46387H13.5712ZM13.5712 5.14551V5.34551H14.1522V5.14551V4.94551H13.5712V5.14551ZM14.1522 5.14551L14.1522 5.34551C15.2285 5.34545 16.2604 5.70281 17.0384 6.33847L17.1649 6.18359L17.2915 6.02872C16.4375 5.33093 15.3146 4.94544 14.1522 4.94551L14.1522 5.14551ZM17.1649 6.18359L17.0384 6.33846C17.8157 6.97361 18.2795 7.83645 18.3453 8.74877L18.5448 8.73438L18.7443 8.71998C18.6698 7.68822 18.1461 6.72706 17.2915 6.02872L17.1649 6.18359ZM18.5448 8.73438L18.3453 8.74869L18.5758 11.9596L18.7753 11.9453L18.9748 11.931L18.7443 8.72006L18.5448 8.73438ZM18.7753 11.9453L18.5758 11.9599C18.6681 13.2262 19.1571 14.4442 19.9852 15.4812L20.1415 15.3564L20.2978 15.2316C19.5173 14.2543 19.0609 13.1124 18.9747 11.9308L18.7753 11.9453ZM20.1415 15.3564L19.9852 15.4813C20.1289 15.6612 20.2148 15.8675 20.2375 16.0799L20.4364 16.0586L20.6353 16.0373C20.6039 15.7452 20.4864 15.4678 20.2977 15.2316L20.1415 15.3564ZM20.4364 16.0586L20.2375 16.0799C20.2603 16.2925 20.2198 16.5078 20.118 16.7052L20.2958 16.7969L20.4735 16.8886C20.6103 16.6233 20.6666 16.3296 20.6353 16.0373L20.4364 16.0586ZM20.2958 16.7969L20.118 16.7052C20.016 16.9029 19.8551 17.0779 19.6479 17.2104L19.7557 17.3789L19.8635 17.5474C20.1257 17.3796 20.337 17.1533 20.4735 16.8886L20.2958 16.7969ZM19.7557 17.3789L19.6479 17.2104C19.4409 17.3429 19.1953 17.4273 18.9352 17.4544L18.9559 17.6533L18.9767 17.8522C19.2952 17.819 19.6011 17.7153 19.8635 17.5474L19.7557 17.3789ZM18.9559 17.6533L18.9352 17.4544L15.3776 17.8255L15.3983 18.0244L15.4191 18.2233L18.9767 17.8522L18.9559 17.6533ZM15.3983 18.0244H15.1983V19.001H15.3983H15.5983V18.0244H15.3983ZM15.3983 19.001H15.1983C15.1983 19.6008 14.9247 20.1828 14.4262 20.6167L14.5575 20.7676L14.6888 20.9184C15.2669 20.4152 15.5983 19.7262 15.5983 19.001H15.3983ZM14.5575 20.7676L14.4262 20.6167C13.9266 21.0514 13.243 21.3 12.5262 21.3V21.5V21.7C13.3327 21.7 14.1113 21.4209 14.6888 20.9185L14.5575 20.7676ZM12.5262 21.5L12.5263 21.3C11.8097 21.2999 11.1268 21.0513 10.6273 20.6167L10.496 20.7676L10.3647 20.9185C10.942 21.4208 11.7199 21.6999 12.5262 21.7L12.5262 21.5ZM10.496 20.7676L10.6273 20.6167C10.1288 20.1828 9.85515 19.6008 9.85515 19.001H9.65515H9.45515C9.45515 19.7262 9.78649 20.4152 10.3647 20.9184L10.496 20.7676ZM9.65515 19.001H9.85515V18.0244H9.65515H9.45515V19.001H9.65515ZM9.65515 18.0244L9.6759 17.8255L6.11828 17.4544L6.09753 17.6533L6.07678 17.8522L9.6344 18.2233L9.65515 18.0244ZM6.09753 17.6533L6.11834 17.4544C5.85903 17.4273 5.61376 17.3421 5.40649 17.2095L5.29871 17.3779L5.19092 17.5464C5.45272 17.7139 5.75797 17.8189 6.07673 17.8522L6.09753 17.6533ZM5.29871 17.3779L5.40652 17.2095C5.19944 17.0769 5.03841 16.9019 4.9364 16.7042L4.75867 16.7959L4.58093 16.8876C4.71749 17.1522 4.92878 17.3786 5.19089 17.5464L5.29871 17.3779ZM4.75867 16.7959L4.9364 16.7042C4.83468 16.507 4.79427 16.2923 4.81692 16.0798L4.61804 16.0586L4.41917 16.0374C4.38804 16.3294 4.44416 16.6225 4.58093 16.8876L4.75867 16.7959ZM4.61804 16.0586L4.81691 16.0798C4.83959 15.8673 4.92497 15.6608 5.06832 15.4812L4.91199 15.3564L4.75565 15.2317C4.56706 15.4681 4.4503 15.7456 4.41917 16.0374L4.61804 16.0586ZM4.91199 15.3564L5.06827 15.4812C5.89641 14.4442 6.38536 13.2263 6.47767 11.9599L6.2782 11.9453L6.07873 11.9308C5.9926 13.1124 5.53615 14.2543 4.7557 15.2316L4.91199 15.3564ZM6.2782 11.9453L6.47768 11.9596L6.70815 8.74869L6.50867 8.73438L6.30918 8.72006L6.07871 11.931L6.2782 11.9453ZM6.50867 8.73438L6.70815 8.74877C6.77397 7.83645 7.23781 6.97361 8.0151 6.33846L7.88855 6.18359L7.762 6.02872C6.90738 6.72706 6.38362 7.68822 6.30919 8.71998L6.50867 8.73438ZM7.88855 6.18359L8.0151 6.33847C8.79302 5.70283 9.82498 5.34545 10.9012 5.34551L10.9012 5.14551L10.9013 4.94551C9.73886 4.94544 8.61596 5.33096 7.762 6.02872L7.88855 6.18359ZM10.9012 5.14551V5.34551H11.4823V5.14551V4.94551H10.9012V5.14551ZM11.4823 5.14551H11.6823V4.46387H11.4823H11.2823V5.14551H11.4823ZM11.4823 4.46387L11.6823 4.46394C11.6824 4.28559 11.7635 4.10771 11.9192 3.97217L11.788 3.82129L11.6567 3.67041C11.4209 3.87552 11.2824 4.16042 11.2823 4.4638L11.4823 4.46387ZM11.788 3.82129L11.9192 3.97217C12.0758 3.83595 12.2939 3.75575 12.5263 3.75566L12.5262 3.55566L12.5262 3.35566C12.205 3.35578 11.8916 3.46603 11.6567 3.67041L11.788 3.82129ZM11.2216 19.001H11.0216C11.0216 19.7634 11.7224 20.3365 12.5262 20.3367L12.5262 20.1367L12.5263 19.9367C11.8894 19.9365 11.4216 19.4921 11.4216 19.001H11.2216ZM12.5262 20.1367V20.3367C13.3301 20.3367 14.0319 19.7636 14.0319 19.001H13.8319H13.6319C13.6319 19.4921 13.1634 19.9367 12.5262 19.9367V20.1367ZM13.8319 19.001H14.0319V18.3193H13.8319H13.6319V19.001H13.8319ZM13.8319 18.3193V18.1193H11.2216V18.3193V18.5193H13.8319V18.3193ZM11.2216 18.3193H11.0216V19.001H11.2216H11.4216V18.3193H11.2216ZM10.9012 6.50879L10.9013 6.30879C10.1374 6.30871 9.39789 6.56144 8.83428 7.02187L8.96082 7.17676L9.08735 7.33164C9.57478 6.93345 10.2233 6.70872 10.9012 6.70879L10.9012 6.50879ZM8.96082 7.17676L8.83427 7.02188C8.27017 7.48281 7.92227 8.11933 7.87266 8.8049L8.07214 8.81934L8.27162 8.83377C8.31259 8.26756 8.60063 7.72934 9.08736 7.33163L8.96082 7.17676ZM8.07214 8.81934L7.87265 8.80508L7.64316 12.016L7.84265 12.0303L8.04214 12.0445L8.27163 8.83359L8.07214 8.81934ZM7.84265 12.0303L7.64318 12.0157C7.53891 13.4459 6.98673 14.8273 6.04283 16.009L6.1991 16.1338L6.35536 16.2586C7.34701 15.0172 7.93167 13.5597 8.04212 12.0448L7.84265 12.0303ZM6.1991 16.1338L6.04293 16.0088C6.00889 16.0514 5.98512 16.1043 5.97877 16.1631L6.17761 16.1846L6.37646 16.206C6.37405 16.2284 6.36523 16.2463 6.35527 16.2587L6.1991 16.1338ZM6.17761 16.1846L5.97876 16.1632C5.97285 16.218 5.98201 16.2763 6.00957 16.3298L6.18738 16.2383L6.36518 16.1467C6.37551 16.1668 6.37844 16.1876 6.37646 16.206L6.17761 16.1846ZM6.18738 16.2383L6.00978 16.3303C6.03581 16.3805 6.07454 16.4205 6.11852 16.4487L6.22644 16.2803L6.33436 16.1119C6.34454 16.1184 6.35619 16.1293 6.36498 16.1463L6.18738 16.2383ZM6.22644 16.2803L6.11854 16.4487C6.16483 16.4783 6.21524 16.4936 6.26269 16.4987L6.28406 16.2998L6.30542 16.1009C6.31127 16.1016 6.32181 16.1039 6.33434 16.1119L6.22644 16.2803ZM6.28406 16.2998L6.26325 16.4987L10.1656 16.9069L10.1864 16.708L10.2072 16.5091L6.30487 16.1009L6.28406 16.2998ZM10.1864 16.708L10.1657 16.9069C11.7343 17.0701 13.3192 17.0701 14.8878 16.9069L14.8671 16.708L14.8464 16.5091C13.3053 16.6694 11.7482 16.6694 10.2071 16.5091L10.1864 16.708ZM14.8671 16.708L14.8879 16.9069L18.7902 16.4987L18.7694 16.2998L18.7486 16.1009L14.8463 16.5091L14.8671 16.708ZM18.7694 16.2998L18.7909 16.4986C18.8381 16.4935 18.8886 16.4784 18.9349 16.4487L18.827 16.2803L18.7191 16.1119C18.7317 16.1038 18.7422 16.1016 18.7479 16.101L18.7694 16.2998ZM18.827 16.2803L18.935 16.4486C18.9788 16.4205 19.0176 16.3806 19.0437 16.3302L18.8661 16.2383L18.6885 16.1464C18.6973 16.1292 18.709 16.1184 18.719 16.1119L18.827 16.2803ZM18.8661 16.2383L19.0439 16.3298C19.0715 16.2763 19.0806 16.218 19.0747 16.1632L18.8759 16.1846L18.677 16.206C18.675 16.1876 18.678 16.1668 18.6883 16.1467L18.8661 16.2383ZM18.8759 16.1846L19.0747 16.1631C19.0684 16.1043 19.0446 16.0514 19.0105 16.0088L18.8544 16.1338L18.6982 16.2587C18.6882 16.2463 18.6794 16.2284 18.677 16.206L18.8759 16.1846ZM18.8544 16.1338L19.0107 16.009C18.0671 14.8272 17.5152 13.4458 17.4113 12.0158L17.2118 12.0303L17.0123 12.0448C17.1224 13.5596 17.7068 15.017 18.6981 16.2586L18.8544 16.1338ZM17.2118 12.0303L17.4113 12.016L17.1808 8.80502L16.9813 8.81934L16.7818 8.83365L17.0123 12.0446L17.2118 12.0303ZM16.9813 8.81934L17.1808 8.8049C17.1312 8.11933 16.7833 7.48281 16.2192 7.02188L16.0927 7.17676L15.9661 7.33163C16.4528 7.72934 16.7409 8.26756 16.7818 8.83377L16.9813 8.81934ZM16.0927 7.17676L16.2192 7.02187C15.6556 6.56142 14.916 6.30871 14.1522 6.30879L14.1522 6.50879L14.1522 6.70879C14.8302 6.70872 15.4787 6.93342 15.9661 7.33164L16.0927 7.17676ZM14.1522 6.50879V6.30879H10.9012V6.50879V6.70879H14.1522V6.50879ZM5.84558 2.50098L5.855 2.70075C6.03054 2.69248 6.19878 2.7413 6.32266 2.82916L6.43835 2.66602L6.55405 2.50288C6.35132 2.3591 6.09336 2.28908 5.83617 2.3012L5.84558 2.50098ZM6.43835 2.66602L6.3226 2.82911C6.44567 2.91646 6.50996 3.03017 6.52054 3.1394L6.7196 3.12012L6.91867 3.10083C6.89528 2.8593 6.75713 2.647 6.55411 2.50292L6.43835 2.66602ZM6.7196 3.12012L6.52052 3.13925C6.53094 3.24761 6.48962 3.36425 6.38894 3.46191L6.5282 3.60547L6.66745 3.74902C6.84516 3.57664 6.94203 3.34385 6.91869 3.10098L6.7196 3.12012ZM6.5282 3.60547L6.39182 3.45917L4.96604 4.78828L5.10242 4.93457L5.23879 5.08086L6.66457 3.75176L6.5282 3.60547ZM5.10242 4.93457L4.96614 4.78819C4.37785 5.33586 4.03698 6.04212 4.01772 6.78584L4.21765 6.79102L4.41758 6.79619C4.43375 6.17192 4.71979 5.56404 5.2387 5.08095L5.10242 4.93457ZM4.21765 6.79102L4.01771 6.78597L3.95619 9.22445L4.15613 9.22949L4.35606 9.23454L4.41759 6.79606L4.21765 6.79102ZM4.15613 9.22949L3.95619 9.22441C3.9548 9.27915 3.93965 9.33605 3.90981 9.39134L4.08582 9.48633L4.26182 9.58132C4.31936 9.47471 4.35296 9.35659 4.35606 9.23458L4.15613 9.22949ZM4.08582 9.48633L3.90988 9.39121C3.88032 9.44589 3.83641 9.49809 3.77822 9.54348L3.90125 9.70117L4.02427 9.85886C4.12266 9.78209 4.204 9.68827 4.26175 9.58145L4.08582 9.48633ZM3.90125 9.70117L3.77825 9.54346C3.71959 9.58921 3.64837 9.62674 3.56832 9.65213L3.62878 9.84277L3.68924 10.0334C3.81184 9.99454 3.92594 9.93554 4.02424 9.85888L3.90125 9.70117ZM3.62878 9.84277L3.56834 9.65213C3.48816 9.67755 3.4014 9.69017 3.31378 9.6887L3.31042 9.88867L3.30707 10.0886C3.43688 10.0908 3.5668 10.0722 3.68923 10.0334L3.62878 9.84277ZM3.31042 9.88867L3.31383 9.6887C3.22638 9.68721 3.14071 9.67165 3.06216 9.64364L2.995 9.83203L2.92783 10.0204C3.04834 10.0634 3.17715 10.0864 3.30702 10.0886L3.31042 9.88867ZM2.995 9.83203L3.06218 9.64365C2.98386 9.61572 2.91534 9.57622 2.85959 9.52901L2.73035 9.68164L2.6011 9.83427C2.69587 9.91452 2.80708 9.97735 2.92781 10.0204L2.995 9.83203ZM2.73035 9.68164L2.85962 9.52903C2.80437 9.48224 2.7634 9.42878 2.73682 9.3734L2.55652 9.45996L2.37622 9.54652C2.42871 9.65585 2.50572 9.75348 2.60108 9.83425L2.73035 9.68164ZM2.55652 9.45996L2.73685 9.37346C2.71045 9.31843 2.69846 9.26217 2.69982 9.20708L2.49988 9.20215L2.29994 9.19722C2.29695 9.31847 2.32376 9.43716 2.37619 9.54646L2.55652 9.45996ZM2.49988 9.20215L2.69981 9.20727L2.76231 6.76684L2.56238 6.76172L2.36244 6.7566L2.29994 9.19703L2.49988 9.20215ZM2.56238 6.76172L2.76231 6.76686C2.78649 5.82708 3.21672 4.91613 3.99069 4.19517L3.85437 4.04883L3.71805 3.90248C2.8747 4.68808 2.38969 5.69741 2.36244 6.75658L2.56238 6.76172ZM3.85437 4.04883L3.99064 4.19522L5.4174 2.86709L5.28113 2.7207L5.14486 2.57431L3.7181 3.90244L3.85437 4.04883ZM5.28113 2.7207L5.41446 2.86977C5.52244 2.77319 5.67975 2.70904 5.85503 2.70075L5.84558 2.50098L5.83613 2.3012C5.57883 2.31337 5.33121 2.40757 5.14779 2.57164L5.28113 2.7207ZM18.994 2.50195L18.9793 2.70141C19.0851 2.70922 19.1879 2.76249 19.263 2.85583L19.4188 2.73047L19.5747 2.6051C19.4337 2.42992 19.2307 2.31889 19.0087 2.3025L18.994 2.50195ZM19.4188 2.73047L19.263 2.85587L20.3304 4.18204L20.4862 4.05664L20.642 3.93124L19.5746 2.60507L19.4188 2.73047ZM20.4862 4.05664L20.3303 4.18197C20.9067 4.89868 21.2347 5.8148 21.253 6.77045L21.453 6.7666L21.653 6.76275C21.6329 5.7217 21.2758 4.7194 20.6421 3.93131L20.4862 4.05664ZM21.453 6.7666L21.253 6.77045L21.2999 9.206L21.4999 9.20215L21.6998 9.1983L21.653 6.76275L21.453 6.7666ZM21.4999 9.20215L21.2999 9.20596C21.3024 9.33585 21.2566 9.45935 21.1772 9.54917L21.327 9.68164L21.4769 9.81411C21.6249 9.64662 21.7042 9.42493 21.6998 9.19834L21.4999 9.20215ZM21.327 9.68164L21.1772 9.54915C21.0983 9.63838 20.9941 9.68628 20.8888 9.68873L20.8934 9.88867L20.8981 10.0886C21.121 10.0834 21.3284 9.98198 21.4769 9.81413L21.327 9.68164ZM20.8934 9.88867L20.8889 9.68872C20.7834 9.69109 20.677 9.64771 20.5953 9.56263L20.451 9.70117L20.3068 9.83972C20.4622 10.0015 20.6749 10.0936 20.8979 10.0886L20.8934 9.88867ZM20.451 9.70117L20.5954 9.56272C20.5132 9.47708 20.4631 9.35654 20.4606 9.22663L20.2606 9.23047L20.0607 9.23431C20.065 9.46057 20.1521 9.67846 20.3067 9.83963L20.451 9.70117ZM20.2606 9.23047L20.4606 9.22662L20.4137 6.79107L20.2137 6.79492L20.0138 6.79877L20.0607 9.23432L20.2606 9.23047ZM20.2137 6.79492L20.4137 6.79114C20.4 6.06521 20.1511 5.36582 19.7085 4.81513L19.5526 4.94043L19.3967 5.06573C19.782 5.54504 20.0017 6.15824 20.0138 6.7987L20.2137 6.79492ZM19.5526 4.94043L19.7085 4.8151L18.6421 3.48893L18.4862 3.61426L18.3303 3.73959L19.3968 5.06576L19.5526 4.94043ZM18.4862 3.61426L18.6421 3.48896C18.5666 3.395 18.5263 3.26844 18.5344 3.1385L18.3348 3.12598L18.1352 3.11346C18.1211 3.33913 18.1899 3.56489 18.3303 3.73956L18.4862 3.61426ZM18.3348 3.12598L18.5344 3.1386C18.5426 3.00882 18.5976 2.89161 18.6825 2.81109L18.5448 2.66602L18.4071 2.52094C18.2452 2.67461 18.1495 2.88822 18.1352 3.11335L18.3348 3.12598ZM18.5448 2.66602L18.6823 2.81127C18.7667 2.73133 18.8739 2.69371 18.9794 2.70142L18.994 2.50195L19.0086 2.30249C18.7866 2.28626 18.5702 2.3666 18.4073 2.52076L18.5448 2.66602Z" fill="#7E7C7C" mask="url(#path-1-outside-1_1_193)"/>
</svg>
