<svg width="220" height="84" viewBox="0 0 220 84" fill="none" xmlns="http://www.w3.org/2000/svg">
<path d="M78.688 65.112C78.688 66.04 78.368 66.8133 77.728 67.432C77.0987 68.04 76.1333 68.344 74.832 68.344H72.688V73H71.232V61.848H74.832C76.0907 61.848 77.0453 62.152 77.696 62.76C78.3573 63.368 78.688 64.152 78.688 65.112ZM74.832 67.144C75.6427 67.144 76.24 66.968 76.624 66.616C77.008 66.264 77.2 65.7627 77.2 65.112C77.2 63.736 76.4107 63.048 74.832 63.048H72.688V67.144H74.832Z" fill="#db087cff"/>
<path d="M81.9536 65.656C82.2096 65.1547 82.5723 64.7653 83.0416 64.488C83.5216 64.2107 84.103 64.072 84.7856 64.072V65.576H84.4016C82.7696 65.576 81.9536 66.4613 81.9536 68.232V73H80.4976V64.232H81.9536V65.656Z" fill="#db087cff"/>
<path d="M90.2904 73.144C89.469 73.144 88.7224 72.9573 88.0504 72.584C87.389 72.2107 86.8664 71.6827 86.4824 71C86.109 70.3067 85.9224 69.5067 85.9224 68.6C85.9224 67.704 86.1144 66.9147 86.4984 66.232C86.893 65.5387 87.4264 65.0107 88.0984 64.648C88.7704 64.2747 89.5224 64.088 90.3544 64.088C91.1864 64.088 91.9384 64.2747 92.6104 64.648C93.2824 65.0107 93.8104 65.5333 94.1944 66.216C94.589 66.8987 94.7864 67.6933 94.7864 68.6C94.7864 69.5067 94.5837 70.3067 94.1784 71C93.7837 71.6827 93.245 72.2107 92.5624 72.584C91.8797 72.9573 91.1224 73.144 90.2904 73.144ZM90.2904 71.864C90.813 71.864 91.3037 71.7413 91.7624 71.496C92.221 71.2507 92.589 70.8827 92.8664 70.392C93.1544 69.9013 93.2984 69.304 93.2984 68.6C93.2984 67.896 93.1597 67.2987 92.8824 66.808C92.605 66.3173 92.2424 65.9547 91.7944 65.72C91.3464 65.4747 90.861 65.352 90.3384 65.352C89.805 65.352 89.3144 65.4747 88.8664 65.72C88.429 65.9547 88.077 66.3173 87.8104 66.808C87.5437 67.2987 87.4104 67.896 87.4104 68.6C87.4104 69.3147 87.5384 69.9173 87.7944 70.408C88.061 70.8987 88.413 71.2667 88.8504 71.512C89.2877 71.7467 89.7677 71.864 90.2904 71.864Z" fill="#db087cff"/>
<path d="M23.5096 21.9459C20.1866 21.9459 17.4836 19.2666 17.4836 15.9729C17.4836 12.6793 20.1859 10 23.5096 10C26.8333 10 29.5364 12.6793 29.5364 15.9729C29.5364 19.2666 26.8325 21.9459 23.5096 21.9459ZM23.5096 13.6357C22.2098 13.6357 21.1524 14.6838 21.1524 15.9729C21.1524 17.2621 22.2098 18.3101 23.5096 18.3101C24.8094 18.3101 25.8683 17.2621 25.8683 15.9729C25.8683 14.6838 24.811 13.6357 23.5096 13.6357Z" fill="#db087cff"/>
<path d="M40.8601 30.2563C37.537 30.2563 34.8341 27.5771 34.8341 24.2835C34.8341 20.9898 37.5363 18.3105 40.8601 18.3105C44.1837 18.3105 46.8868 20.9898 46.8868 24.2835C46.8868 27.5771 44.1829 30.2563 40.8601 30.2563ZM40.8601 21.9463C39.5603 21.9463 38.5028 22.9943 38.5028 24.2835C38.5028 25.5726 39.5603 26.6207 40.8601 26.6207C42.1598 26.6207 43.2187 25.5726 43.2187 24.2835C43.2187 22.9943 42.1614 21.9463 40.8601 21.9463Z" fill="#db087cff"/>
<path d="M26.0959 24.4864H20.9204C14.8991 24.4864 10 29.3423 10 35.3107V55.8821L13.0639 53.1409C13.0837 53.1222 15.2466 51.2648 18.3302 51.2648H24.5489C24.5347 51.0293 24.511 50.7959 24.511 50.5564V47.6283H18.3302C16.5077 47.6283 14.9212 48.0658 13.6688 48.5957V35.3107C13.6688 31.347 16.9215 28.1221 20.9212 28.1221H26.0966C30.0963 28.1221 33.349 31.347 33.349 35.3107V40.4405C33.349 42.4725 32.4859 44.3017 31.1135 45.6105V50.0445C34.6155 48.2395 37.0169 44.6156 37.0169 40.4405V35.3107C37.0169 29.3423 32.1171 24.4864 26.0959 24.4864Z" fill="#db087cff"/>
<path d="M42.0725 34.6043H38.4321C38.4471 34.8415 38.4841 35.0717 38.4841 35.3127V38.2409H42.0725C46.0721 38.2409 49.3247 41.4657 49.3247 45.4294V58.7144C48.0723 58.1838 46.4859 57.747 44.6649 57.747H36.8985C32.8989 57.747 29.6463 54.5223 29.6463 50.5586V45.4286C29.6463 43.3967 30.5093 41.5674 31.8818 40.2587V35.8246C28.3796 37.6296 25.9782 41.2535 25.9782 45.4286V50.5586C25.9782 56.5268 30.8774 61.3827 36.8985 61.3827H44.6649C47.7431 61.3827 49.9171 63.2479 49.9297 63.259L52.9936 66V45.4286C52.9936 39.4604 48.0938 34.6043 42.0725 34.6043Z" fill="#db087cff"/>
<path d="M79.2318 46.9517L87.8596 56.2114H82.6289L75.6988 48.2314V56.2114H71.827V31.2958H75.6988V45.7737L82.4923 37.6592H87.8596L79.2318 46.9517Z" fill="#7E7C7C"/>
<path d="M94.5156 37.6577V56.2098H90.6439V37.6577H94.5156Z" fill="#7E7C7C"/>
<path d="M113.01 38.2632C114.176 38.8699 115.087 39.7677 115.744 40.9566C116.401 42.1471 116.729 43.5833 116.729 45.2663V56.2087H112.891V45.8377C112.891 44.1775 112.472 42.9033 111.633 42.0165C110.796 41.1296 109.652 40.6866 108.203 40.6866C106.754 40.6866 105.603 41.1296 104.754 42.0165C103.906 42.9033 103.481 44.1775 103.481 45.8377V56.2087H99.6089V37.6566H103.481V39.7778C104.115 39.0147 104.924 38.4206 105.911 37.994C106.895 37.5682 107.942 37.3546 109.053 37.3546C110.525 37.3546 111.843 37.6574 113.01 38.2632Z" fill="#7E7C7C"/>
<path d="M124.492 55.7233C123.324 55.1957 122.402 54.4772 121.722 53.5684C121.043 52.6589 120.681 51.6437 120.636 50.5212H124.644C124.712 51.3072 125.091 51.9639 125.782 52.4907C126.472 53.019 127.339 53.2827 128.381 53.2827C129.423 53.2827 130.312 53.0753 130.911 52.6596C131.511 52.2449 131.811 51.7118 131.811 51.0606C131.811 50.3655 131.477 49.849 130.808 49.5116C130.141 49.1751 129.082 48.8048 127.633 48.4009C126.228 48.0197 125.086 47.6488 124.202 47.2894C123.318 46.9301 122.554 46.3807 121.909 45.6395C121.264 44.899 120.94 43.9221 120.94 42.7105C120.94 41.7227 121.235 40.8204 121.824 39.9999C122.413 39.1812 123.255 38.5356 124.354 38.0643C125.452 37.5931 126.714 37.3575 128.142 37.3575C130.27 37.3575 131.984 37.8906 133.287 38.9566C134.589 40.0235 135.286 41.477 135.376 43.3163H131.504C131.436 42.4867 131.097 41.8245 130.485 41.3305C129.873 40.8366 129.047 40.5893 128.004 40.5893C126.962 40.5893 126.204 40.7804 125.661 41.1624C125.117 41.5435 124.846 42.0492 124.846 42.6776C124.846 43.1715 125.027 43.5864 125.39 43.9229C125.752 44.2596 126.194 44.5241 126.714 44.7143C127.235 44.9053 128.005 45.1471 129.024 45.4383C130.383 45.7975 131.499 46.1623 132.37 46.5326C133.242 46.9028 133.995 47.4476 134.629 48.1653C135.263 48.8838 135.591 49.8379 135.614 51.027C135.614 52.0821 135.32 53.0252 134.731 53.8557C134.142 54.6861 133.309 55.3373 132.234 55.8086C131.159 56.2798 129.896 56.5154 128.447 56.5154C126.998 56.5154 125.655 56.2509 124.489 55.7241L124.492 55.7233Z" fill="#7E7C7C"/>
<path d="M153.298 38.2629C154.42 38.8695 155.302 39.7672 155.948 40.9562C156.594 42.1467 156.916 43.583 156.916 45.2658V56.2083H153.078V45.8372C153.078 44.1772 152.659 42.9028 151.82 42.016C150.983 41.1292 149.839 40.6862 148.39 40.6862C146.941 40.6862 145.79 41.1292 144.941 42.016C144.092 42.9028 143.668 44.1772 143.668 45.8372V56.2083H139.796V31.2927H143.668V39.8119C144.325 39.026 145.156 38.4202 146.164 37.9936C147.171 37.5678 148.275 37.3541 149.476 37.3541C150.903 37.3541 152.178 37.6571 153.298 38.2629Z" fill="#7E7C7C"/>
<path d="M165.711 37.6577V56.2098H161.84V37.6577H165.711Z" fill="#7E7C7C"/>
<path d="M177.364 38.2295C178.496 37.6465 179.775 37.3546 181.202 37.3546C182.831 37.3546 184.32 37.753 185.669 38.5497C187.016 39.3465 188.074 40.4636 188.845 41.8998C189.616 43.3369 190 44.9868 190 46.849C190 48.711 189.616 50.379 188.845 51.8497C188.076 53.3205 187.016 54.4648 185.669 55.2835C184.32 56.103 182.831 56.5123 181.202 56.5123C179.775 56.5123 178.507 56.2267 177.397 55.6537C176.287 55.0815 175.382 54.3693 174.68 53.5162V65.0306H170.808V37.6574H174.68V40.3844C175.337 39.5312 176.231 38.8135 177.364 38.2295ZM185.261 43.5326C184.729 42.6011 184.026 41.8942 183.156 41.4114C182.282 40.9284 181.348 40.6874 180.353 40.6874C179.357 40.6874 178.455 40.9347 177.583 41.4279C176.711 41.9218 176.009 42.6395 175.477 43.5826C174.946 44.5258 174.678 45.6364 174.678 46.9162C174.678 48.196 174.946 49.313 175.477 50.2662C176.009 51.2203 176.711 51.9444 177.583 52.4383C178.455 52.9322 179.379 53.1787 180.353 53.1787C181.326 53.1787 182.282 52.9259 183.156 52.4211C184.025 51.9162 184.729 51.1805 185.261 50.2155C185.794 49.2503 186.06 48.1279 186.06 46.8481C186.06 45.5683 185.794 44.4649 185.261 43.5326Z" fill="#7E7C7C"/>
<path d="M92.0503 29.9687H93.1424C94.2014 29.9687 95.059 30.8196 95.059 31.8684V35.5119C95.059 35.5119 94.7202 34.8506 93.5767 34.8506H92.0503C90.9913 34.8506 90.1337 33.9998 90.1337 32.9509V31.8684C90.1337 30.8188 90.9922 29.9687 92.0503 29.9687Z" fill="#7E7C7C"/>
<path d="M164.311 29.9687H163.219C162.16 29.9687 161.302 30.8196 161.302 31.8684V35.5119C161.302 35.5119 161.641 34.8506 162.785 34.8506H164.311C165.37 34.8506 166.227 33.9998 166.227 32.9509V31.8684C166.227 30.8188 165.369 29.9687 164.311 29.9687Z" fill="#7E7C7C"/>
</svg>
