<svg width="292" height="54" viewBox="0 0 292 54" fill="none" xmlns="http://www.w3.org/2000/svg">
<g filter="url(#filter0_d_1_260)">
<rect x="4" y="7" width="280" height="42" rx="21" fill="url(#paint0_linear_1_260)" shape-rendering="crispEdges"/>
<path d="M22 18C22.5523 18 23 18.4477 23 19V35C23 35.2652 23.1054 35.5195 23.293 35.707C23.4805 35.8946 23.7348 36 24 36H40C40.5523 36 41 36.4477 41 37C41 37.5523 40.5523 38 40 38H24C23.2044 38 22.4415 37.6837 21.8789 37.1211C21.3163 36.5585 21 35.7957 21 35V19C21 18.4477 21.4477 18 22 18ZM37.293 24.293C37.6835 23.9024 38.3165 23.9024 38.707 24.293C39.0976 24.6835 39.0976 25.3165 38.707 25.707L33.707 30.707C33.3165 31.0976 32.6835 31.0976 32.293 30.707L29 27.4141L26.707 29.707C26.3165 30.0976 25.6835 30.0976 25.293 29.707C24.9024 29.3165 24.9024 28.6835 25.293 28.293L28.293 25.293L28.3691 25.2246C28.7619 24.9043 29.3409 24.9269 29.707 25.293L33 28.5859L37.293 24.293Z" fill="white"/>
<path d="M60.616 22.728V24.31H58.012V32.5H56.052V24.31H53.448V22.728H60.616ZM61.5421 28.594C61.5421 27.81 61.6961 27.1147 62.0041 26.508C62.3214 25.9013 62.7461 25.4347 63.2781 25.108C63.8194 24.7813 64.4214 24.618 65.0841 24.618C65.6627 24.618 66.1667 24.7347 66.5961 24.968C67.0347 25.2013 67.3847 25.4953 67.6461 25.85V24.744H69.6201V32.5H67.6461V31.366C67.3941 31.73 67.0441 32.0333 66.5961 32.276C66.1574 32.5093 65.6487 32.626 65.0701 32.626C64.4167 32.626 63.8194 32.458 63.2781 32.122C62.7461 31.786 62.3214 31.3147 62.0041 30.708C61.6961 30.092 61.5421 29.3873 61.5421 28.594ZM67.6461 28.622C67.6461 28.146 67.5527 27.74 67.3661 27.404C67.1794 27.0587 66.9274 26.7973 66.6101 26.62C66.2927 26.4333 65.9521 26.34 65.5881 26.34C65.2241 26.34 64.8881 26.4287 64.5801 26.606C64.2721 26.7833 64.0201 27.0447 63.8241 27.39C63.6374 27.726 63.5441 28.1273 63.5441 28.594C63.5441 29.0607 63.6374 29.4713 63.8241 29.826C64.0201 30.1713 64.2721 30.4373 64.5801 30.624C64.8974 30.8107 65.2334 30.904 65.5881 30.904C65.9521 30.904 66.2927 30.8153 66.6101 30.638C66.9274 30.4513 67.1794 30.19 67.3661 29.854C67.5527 29.5087 67.6461 29.098 67.6461 28.622ZM73.4944 25.878C73.7464 25.5047 74.0917 25.2013 74.5304 24.968C74.9784 24.7347 75.487 24.618 76.0564 24.618C76.719 24.618 77.3164 24.7813 77.8484 25.108C78.3897 25.4347 78.8144 25.9013 79.1224 26.508C79.4397 27.1053 79.5984 27.8007 79.5984 28.594C79.5984 29.3873 79.4397 30.092 79.1224 30.708C78.8144 31.3147 78.3897 31.786 77.8484 32.122C77.3164 32.458 76.719 32.626 76.0564 32.626C75.4777 32.626 74.969 32.514 74.5304 32.29C74.101 32.0567 73.7557 31.758 73.4944 31.394V32.5H71.5344V22.14H73.4944V25.878ZM77.5964 28.594C77.5964 28.1273 77.4984 27.726 77.3024 27.39C77.1157 27.0447 76.8637 26.7833 76.5464 26.606C76.2384 26.4287 75.9024 26.34 75.5384 26.34C75.1837 26.34 74.8477 26.4333 74.5304 26.62C74.2224 26.7973 73.9704 27.0587 73.7744 27.404C73.5877 27.7493 73.4944 28.1553 73.4944 28.622C73.4944 29.0887 73.5877 29.4947 73.7744 29.84C73.9704 30.1853 74.2224 30.4513 74.5304 30.638C74.8477 30.8153 75.1837 30.904 75.5384 30.904C75.9024 30.904 76.2384 30.8107 76.5464 30.624C76.8637 30.4373 77.1157 30.1713 77.3024 29.826C77.4984 29.4807 77.5964 29.07 77.5964 28.594ZM82.9826 22.14V32.5H81.0226V22.14H82.9826ZM92.1291 28.454C92.1291 28.734 92.1105 28.986 92.0731 29.21H86.4031C86.4498 29.77 86.6458 30.2087 86.9911 30.526C87.3365 30.8433 87.7611 31.002 88.2651 31.002C88.9931 31.002 89.5111 30.6893 89.8191 30.064H91.9331C91.7091 30.8107 91.2798 31.4267 90.6451 31.912C90.0105 32.388 89.2311 32.626 88.3071 32.626C87.5605 32.626 86.8885 32.4627 86.2911 32.136C85.7031 31.8 85.2411 31.3287 84.9051 30.722C84.5785 30.1153 84.4151 29.4153 84.4151 28.622C84.4151 27.8193 84.5785 27.1147 84.9051 26.508C85.2318 25.9013 85.6891 25.4347 86.2771 25.108C86.8651 24.7813 87.5418 24.618 88.3071 24.618C89.0445 24.618 89.7025 24.7767 90.2811 25.094C90.8691 25.4113 91.3218 25.864 91.6391 26.452C91.9658 27.0307 92.1291 27.698 92.1291 28.454ZM90.0991 27.894C90.0898 27.39 89.9078 26.9887 89.5531 26.69C89.1985 26.382 88.7645 26.228 88.2511 26.228C87.7658 26.228 87.3551 26.3773 87.0191 26.676C86.6925 26.9653 86.4918 27.3713 86.4171 27.894H90.0991ZM93.0557 28.594C93.0557 27.81 93.2097 27.1147 93.5177 26.508C93.8351 25.9013 94.2598 25.4347 94.7918 25.108C95.3331 24.7813 95.9351 24.618 96.5978 24.618C97.1764 24.618 97.6804 24.7347 98.1098 24.968C98.5484 25.2013 98.8984 25.4953 99.1598 25.85V24.744H101.134V32.5H99.1598V31.366C98.9078 31.73 98.5578 32.0333 98.1098 32.276C97.6711 32.5093 97.1624 32.626 96.5838 32.626C95.9304 32.626 95.3331 32.458 94.7918 32.122C94.2598 31.786 93.8351 31.3147 93.5177 30.708C93.2097 30.092 93.0557 29.3873 93.0557 28.594ZM99.1598 28.622C99.1598 28.146 99.0664 27.74 98.8798 27.404C98.6931 27.0587 98.4411 26.7973 98.1238 26.62C97.8064 26.4333 97.4658 26.34 97.1018 26.34C96.7378 26.34 96.4018 26.4287 96.0938 26.606C95.7858 26.7833 95.5338 27.0447 95.3378 27.39C95.1511 27.726 95.0578 28.1273 95.0578 28.594C95.0578 29.0607 95.1511 29.4713 95.3378 29.826C95.5338 30.1713 95.7858 30.4373 96.0938 30.624C96.4111 30.8107 96.7471 30.904 97.1018 30.904C97.4658 30.904 97.8064 30.8153 98.1238 30.638C98.4411 30.4513 98.6931 30.19 98.8798 29.854C99.0664 29.5087 99.1598 29.098 99.1598 28.622ZM110.37 24.744V32.5H108.396V31.52C108.144 31.856 107.813 32.122 107.402 32.318C107.001 32.5047 106.562 32.598 106.086 32.598C105.479 32.598 104.943 32.472 104.476 32.22C104.009 31.9587 103.641 31.5807 103.37 31.086C103.109 30.582 102.978 29.9847 102.978 29.294V24.744H104.938V29.014C104.938 29.63 105.092 30.106 105.4 30.442C105.708 30.7687 106.128 30.932 106.66 30.932C107.201 30.932 107.626 30.7687 107.934 30.442C108.242 30.106 108.396 29.63 108.396 29.014V24.744H110.37ZM115.136 28.594C115.136 27.81 115.29 27.1147 115.598 26.508C115.915 25.9013 116.344 25.4347 116.886 25.108C117.427 24.7813 118.029 24.618 118.692 24.618C119.196 24.618 119.676 24.73 120.134 24.954C120.591 25.1687 120.955 25.458 121.226 25.822V22.14H123.214V32.5H121.226V31.352C120.983 31.7347 120.642 32.0427 120.204 32.276C119.765 32.5093 119.256 32.626 118.678 32.626C118.024 32.626 117.427 32.458 116.886 32.122C116.344 31.786 115.915 31.3147 115.598 30.708C115.29 30.092 115.136 29.3873 115.136 28.594ZM121.24 28.622C121.24 28.146 121.146 27.74 120.96 27.404C120.773 27.0587 120.521 26.7973 120.204 26.62C119.886 26.4333 119.546 26.34 119.182 26.34C118.818 26.34 118.482 26.4287 118.174 26.606C117.866 26.7833 117.614 27.0447 117.418 27.39C117.231 27.726 117.138 28.1273 117.138 28.594C117.138 29.0607 117.231 29.4713 117.418 29.826C117.614 30.1713 117.866 30.4373 118.174 30.624C118.491 30.8107 118.827 30.904 119.182 30.904C119.546 30.904 119.886 30.8153 120.204 30.638C120.521 30.4513 120.773 30.19 120.96 29.854C121.146 29.5087 121.24 29.098 121.24 28.622ZM132.338 28.454C132.338 28.734 132.319 28.986 132.282 29.21H126.612C126.659 29.77 126.855 30.2087 127.2 30.526C127.545 30.8433 127.97 31.002 128.474 31.002C129.202 31.002 129.72 30.6893 130.028 30.064H132.142C131.918 30.8107 131.489 31.4267 130.854 31.912C130.219 32.388 129.44 32.626 128.516 32.626C127.769 32.626 127.097 32.4627 126.5 32.136C125.912 31.8 125.45 31.3287 125.114 30.722C124.787 30.1153 124.624 29.4153 124.624 28.622C124.624 27.8193 124.787 27.1147 125.114 26.508C125.441 25.9013 125.898 25.4347 126.486 25.108C127.074 24.7813 127.751 24.618 128.516 24.618C129.253 24.618 129.911 24.7767 130.49 25.094C131.078 25.4113 131.531 25.864 131.848 26.452C132.175 27.0307 132.338 27.698 132.338 28.454ZM130.308 27.894C130.299 27.39 130.117 26.9887 129.762 26.69C129.407 26.382 128.973 26.228 128.46 26.228C127.975 26.228 127.564 26.3773 127.228 26.676C126.901 26.9653 126.701 27.3713 126.626 27.894H130.308ZM139.065 25.878C139.317 25.5047 139.662 25.2013 140.101 24.968C140.549 24.7347 141.057 24.618 141.627 24.618C142.289 24.618 142.887 24.7813 143.419 25.108C143.96 25.4347 144.385 25.9013 144.693 26.508C145.01 27.1053 145.169 27.8007 145.169 28.594C145.169 29.3873 145.01 30.092 144.693 30.708C144.385 31.3147 143.96 31.786 143.419 32.122C142.887 32.458 142.289 32.626 141.627 32.626C141.048 32.626 140.539 32.514 140.101 32.29C139.671 32.0567 139.326 31.758 139.065 31.394V32.5H137.105V22.14H139.065V25.878ZM143.167 28.594C143.167 28.1273 143.069 27.726 142.873 27.39C142.686 27.0447 142.434 26.7833 142.117 26.606C141.809 26.4287 141.473 26.34 141.109 26.34C140.754 26.34 140.418 26.4333 140.101 26.62C139.793 26.7973 139.541 27.0587 139.345 27.404C139.158 27.7493 139.065 28.1553 139.065 28.622C139.065 29.0887 139.158 29.4947 139.345 29.84C139.541 30.1853 139.793 30.4513 140.101 30.638C140.418 30.8153 140.754 30.904 141.109 30.904C141.473 30.904 141.809 30.8107 142.117 30.624C142.434 30.4373 142.686 30.1713 142.873 29.826C143.069 29.4807 143.167 29.07 143.167 28.594ZM150.037 32.626C149.29 32.626 148.618 32.4627 148.021 32.136C147.424 31.8 146.952 31.3287 146.607 30.722C146.271 30.1153 146.103 29.4153 146.103 28.622C146.103 27.8287 146.276 27.1287 146.621 26.522C146.976 25.9153 147.456 25.4487 148.063 25.122C148.67 24.786 149.346 24.618 150.093 24.618C150.84 24.618 151.516 24.786 152.123 25.122C152.73 25.4487 153.206 25.9153 153.551 26.522C153.906 27.1287 154.083 27.8287 154.083 28.622C154.083 29.4153 153.901 30.1153 153.537 30.722C153.182 31.3287 152.697 31.8 152.081 32.136C151.474 32.4627 150.793 32.626 150.037 32.626ZM150.037 30.918C150.392 30.918 150.723 30.834 151.031 30.666C151.348 30.4887 151.6 30.2273 151.787 29.882C151.974 29.5367 152.067 29.1167 152.067 28.622C152.067 27.8847 151.871 27.32 151.479 26.928C151.096 26.5267 150.625 26.326 150.065 26.326C149.505 26.326 149.034 26.5267 148.651 26.928C148.278 27.32 148.091 27.8847 148.091 28.622C148.091 29.3593 148.273 29.9287 148.637 30.33C149.01 30.722 149.477 30.918 150.037 30.918ZM157.481 25.948C157.733 25.5373 158.059 25.2153 158.461 24.982C158.871 24.7487 159.338 24.632 159.861 24.632V26.69H159.343C158.727 26.69 158.26 26.8347 157.943 27.124C157.635 27.4133 157.481 27.9173 157.481 28.636V32.5H155.521V24.744H157.481V25.948ZM160.677 28.594C160.677 27.81 160.831 27.1147 161.139 26.508C161.456 25.9013 161.886 25.4347 162.427 25.108C162.968 24.7813 163.57 24.618 164.233 24.618C164.737 24.618 165.218 24.73 165.675 24.954C166.132 25.1687 166.496 25.458 166.767 25.822V22.14H168.755V32.5H166.767V31.352C166.524 31.7347 166.184 32.0427 165.745 32.276C165.306 32.5093 164.798 32.626 164.219 32.626C163.566 32.626 162.968 32.458 162.427 32.122C161.886 31.786 161.456 31.3147 161.139 30.708C160.831 30.092 160.677 29.3873 160.677 28.594ZM166.781 28.622C166.781 28.146 166.688 27.74 166.501 27.404C166.314 27.0587 166.062 26.7973 165.745 26.62C165.428 26.4333 165.087 26.34 164.723 26.34C164.359 26.34 164.023 26.4287 163.715 26.606C163.407 26.7833 163.155 27.0447 162.959 27.39C162.772 27.726 162.679 28.1273 162.679 28.594C162.679 29.0607 162.772 29.4713 162.959 29.826C163.155 30.1713 163.407 30.4373 163.715 30.624C164.032 30.8107 164.368 30.904 164.723 30.904C165.087 30.904 165.428 30.8153 165.745 30.638C166.062 30.4513 166.314 30.19 166.501 29.854C166.688 29.5087 166.781 29.098 166.781 28.622Z" fill="white"/>
</g>
<defs>
<filter id="filter0_d_1_260" x="0" y="0" width="292" height="54" filterUnits="userSpaceOnUse" color-interpolation-filters="sRGB">
<feFlood flood-opacity="0" result="BackgroundImageFix"/>
<feColorMatrix in="SourceAlpha" type="matrix" values="0 0 0 0 0 0 0 0 0 0 0 0 0 0 0 0 0 0 127 0" result="hardAlpha"/>
<feOffset dx="2" dy="-1"/>
<feGaussianBlur stdDeviation="3"/>
<feComposite in2="hardAlpha" operator="out"/>
<feColorMatrix type="matrix" values="0 0 0 0 0.870588 0 0 0 0 0.878431 0 0 0 0 0.882353 0 0 0 1 0"/>
<feBlend mode="normal" in2="BackgroundImageFix" result="effect1_dropShadow_1_260"/>
<feBlend mode="normal" in="SourceGraphic" in2="effect1_dropShadow_1_260" result="shape"/>
</filter>
<linearGradient id="paint0_linear_1_260" x1="4" y1="28" x2="284" y2="28" gradientUnits="userSpaceOnUse">
<stop stop-color="#5570F1"/>
<stop offset="1" stop-color="#65AFFE"/>
</linearGradient>
</defs>
</svg>
