<svg width="298" height="112" viewBox="0 0 298 112" fill="none" xmlns="http://www.w3.org/2000/svg">
<g filter="url(#filter0_d_1_1658)">
<rect x="4" y="7" width="286" height="100" rx="20" fill="url(#paint0_linear_1_1658)" shape-rendering="crispEdges"/>
<rect x="28" y="27" width="60" height="60" rx="30" fill="#F4F7FE"/>
<path d="M63.6001 42C64.1521 42.0003 64.6001 42.4479 64.6001 43V44.7998H67.8003C69.8985 44.8002 71.5999 46.5014 71.6001 48.5996V68.2002C71.6 70.2985 69.8986 71.9996 67.8003 72H48.1997C46.1012 71.9999 44.4 70.2987 44.3999 68.2002V48.5996C44.4001 46.5012 46.1012 44.7999 48.1997 44.7998H51.3999V43C51.3999 42.4477 51.8476 42 52.3999 42C52.952 42.0002 53.3999 42.4478 53.3999 43V44.7998H62.6001V43C62.6001 42.4477 63.0478 42 63.6001 42ZM46.3999 68.2002C46.4 69.1942 47.2057 69.9999 48.1997 70H67.8003C68.794 69.9996 69.6 69.194 69.6001 68.2002V55.2002H46.3999V68.2002ZM52.4136 64.4004C52.9657 64.4006 53.4136 64.8482 53.4136 65.4004C53.4134 65.9524 52.9655 66.4002 52.4136 66.4004H52.3999C51.8477 66.4004 51.4001 65.9525 51.3999 65.4004C51.3999 64.8481 51.8476 64.4004 52.3999 64.4004H52.4136ZM58.0142 64.4004C58.5661 64.4007 59.0142 64.8483 59.0142 65.4004C59.0139 65.9523 58.566 66.4 58.0142 66.4004H57.9995C57.4475 66.4002 56.9997 65.9524 56.9995 65.4004C56.9995 64.8482 57.4474 64.4006 57.9995 64.4004H58.0142ZM63.6138 64.4004C64.1659 64.4006 64.6138 64.8482 64.6138 65.4004C64.6136 65.9524 64.1657 66.4002 63.6138 66.4004H63.6001C63.0479 66.4004 62.6003 65.9525 62.6001 65.4004C62.6001 64.8481 63.0478 64.4004 63.6001 64.4004H63.6138ZM52.4136 58.7998C52.9656 58.8 53.4135 59.2477 53.4136 59.7998C53.4136 60.352 52.9657 60.7996 52.4136 60.7998H52.3999C51.8476 60.7998 51.3999 60.3521 51.3999 59.7998C51.4 59.2476 51.8477 58.7998 52.3999 58.7998H52.4136ZM58.0142 58.7998C58.5661 58.8002 59.0141 59.2478 59.0142 59.7998C59.0142 60.3519 58.5661 60.7995 58.0142 60.7998H57.9995C57.4474 60.7996 56.9995 60.352 56.9995 59.7998C56.9996 59.2477 57.4475 58.8 57.9995 58.7998H58.0142ZM63.6138 58.7998C64.1658 58.8 64.6137 59.2477 64.6138 59.7998C64.6138 60.352 64.1659 60.7996 63.6138 60.7998H63.6001C63.0478 60.7998 62.6001 60.3521 62.6001 59.7998C62.6002 59.2476 63.0479 58.7998 63.6001 58.7998H63.6138ZM48.1997 46.7998C47.2058 46.7999 46.4001 47.6057 46.3999 48.5996V53.2002H69.6001V48.5996C69.5999 47.6059 68.7939 46.8002 67.8003 46.7998H64.6001V48.5996C64.6001 49.1517 64.1521 49.5993 63.6001 49.5996C63.0478 49.5996 62.6001 49.1519 62.6001 48.5996V46.7998H53.3999V48.5996C53.3999 49.1518 52.952 49.5994 52.3999 49.5996C51.8476 49.5996 51.3999 49.1519 51.3999 48.5996V46.7998H48.1997Z" fill="#5570F1"/>
<path d="M109.688 55.5L106.064 49.86L102.776 55.5H98.984L104.264 47.052L98.912 38.748H102.776L106.4 44.364L109.664 38.748H113.456L108.2 47.172L113.552 55.5H109.688ZM126.141 55.5L122.517 49.86L119.229 55.5H115.437L120.717 47.052L115.365 38.748H119.229L122.853 44.364L126.117 38.748H129.909L124.653 47.172L130.005 55.5H126.141ZM142.594 55.5L138.97 49.86L135.682 55.5H131.89L137.17 47.052L131.818 38.748H135.682L139.306 44.364L142.57 38.748H146.362L141.106 47.172L146.458 55.5H142.594Z" fill="white"/>
<path d="M100.688 70.532V74.26H104.752V75.46H100.688V79.3H105.232V80.5H99.232V69.332H105.232V70.532H100.688ZM103.632 66.932L100.224 68.756V67.668L103.632 65.668V66.932ZM110.699 79.156L113.419 71.732H114.971L111.531 80.5H109.835L106.395 71.732H107.963L110.699 79.156ZM124.404 75.78C124.404 76.0573 124.388 76.3507 124.356 76.66H117.348C117.401 77.524 117.695 78.2013 118.228 78.692C118.772 79.172 119.428 79.412 120.196 79.412C120.825 79.412 121.348 79.268 121.764 78.98C122.191 78.6813 122.489 78.2867 122.66 77.796H124.228C123.993 78.6387 123.524 79.3267 122.82 79.86C122.116 80.3827 121.241 80.644 120.196 80.644C119.364 80.644 118.617 80.4573 117.956 80.084C117.305 79.7107 116.793 79.1827 116.42 78.5C116.047 77.8067 115.86 77.0067 115.86 76.1C115.86 75.1933 116.041 74.3987 116.404 73.716C116.767 73.0333 117.273 72.5107 117.924 72.148C118.585 71.7747 119.343 71.588 120.196 71.588C121.028 71.588 121.764 71.7693 122.404 72.132C123.044 72.4947 123.535 72.996 123.876 73.636C124.228 74.2653 124.404 74.98 124.404 75.78ZM122.9 75.476C122.9 74.9213 122.777 74.4467 122.532 74.052C122.287 73.6467 121.951 73.3427 121.524 73.14C121.108 72.9267 120.644 72.82 120.132 72.82C119.396 72.82 118.767 73.0547 118.244 73.524C117.732 73.9933 117.439 74.644 117.364 75.476H122.9ZM130.598 71.572C131.664 71.572 132.528 71.8973 133.19 72.548C133.851 73.188 134.182 74.116 134.182 75.332V80.5H132.742V75.54C132.742 74.6653 132.523 73.9987 132.086 73.54C131.648 73.0707 131.051 72.836 130.294 72.836C129.526 72.836 128.912 73.076 128.454 73.556C128.006 74.036 127.782 74.7347 127.782 75.652V80.5H126.326V71.732H127.782V72.98C128.07 72.532 128.459 72.1853 128.95 71.94C129.451 71.6947 130 71.572 130.598 71.572ZM144.56 75.78C144.56 76.0573 144.544 76.3507 144.512 76.66H137.504C137.557 77.524 137.851 78.2013 138.384 78.692C138.928 79.172 139.584 79.412 140.352 79.412C140.981 79.412 141.504 79.268 141.92 78.98C142.347 78.6813 142.645 78.2867 142.816 77.796H144.384C144.149 78.6387 143.68 79.3267 142.976 79.86C142.272 80.3827 141.397 80.644 140.352 80.644C139.52 80.644 138.773 80.4573 138.112 80.084C137.461 79.7107 136.949 79.1827 136.576 78.5C136.203 77.8067 136.016 77.0067 136.016 76.1C136.016 75.1933 136.197 74.3987 136.56 73.716C136.923 73.0333 137.429 72.5107 138.08 72.148C138.741 71.7747 139.499 71.588 140.352 71.588C141.184 71.588 141.92 71.7693 142.56 72.132C143.2 72.4947 143.691 72.996 144.032 73.636C144.384 74.2653 144.56 74.98 144.56 75.78ZM143.056 75.476C143.056 74.9213 142.933 74.4467 142.688 74.052C142.443 73.6467 142.107 73.3427 141.68 73.14C141.264 72.9267 140.8 72.82 140.288 72.82C139.552 72.82 138.923 73.0547 138.4 73.524C137.888 73.9933 137.595 74.644 137.52 75.476H143.056ZM157.026 71.572C157.709 71.572 158.317 71.716 158.85 72.004C159.383 72.2813 159.805 72.7027 160.114 73.268C160.423 73.8333 160.578 74.5213 160.578 75.332V80.5H159.138V75.54C159.138 74.6653 158.919 73.9987 158.482 73.54C158.055 73.0707 157.474 72.836 156.738 72.836C155.981 72.836 155.378 73.0813 154.93 73.572C154.482 74.052 154.258 74.7507 154.258 75.668V80.5H152.818V75.54C152.818 74.6653 152.599 73.9987 152.162 73.54C151.735 73.0707 151.154 72.836 150.418 72.836C149.661 72.836 149.058 73.0813 148.61 73.572C148.162 74.052 147.938 74.7507 147.938 75.668V80.5H146.482V71.732H147.938V72.996C148.226 72.5373 148.61 72.1853 149.09 71.94C149.581 71.6947 150.119 71.572 150.706 71.572C151.442 71.572 152.093 71.7373 152.658 72.068C153.223 72.3987 153.645 72.884 153.922 73.524C154.167 72.9053 154.573 72.4253 155.138 72.084C155.703 71.7427 156.333 71.572 157.026 71.572ZM170.966 75.78C170.966 76.0573 170.95 76.3507 170.918 76.66H163.91C163.964 77.524 164.257 78.2013 164.79 78.692C165.334 79.172 165.99 79.412 166.758 79.412C167.388 79.412 167.91 79.268 168.326 78.98C168.753 78.6813 169.052 78.2867 169.222 77.796H170.79C170.556 78.6387 170.086 79.3267 169.382 79.86C168.678 80.3827 167.804 80.644 166.758 80.644C165.926 80.644 165.18 80.4573 164.518 80.084C163.868 79.7107 163.356 79.1827 162.982 78.5C162.609 77.8067 162.422 77.0067 162.422 76.1C162.422 75.1933 162.604 74.3987 162.966 73.716C163.329 73.0333 163.836 72.5107 164.486 72.148C165.148 71.7747 165.905 71.588 166.758 71.588C167.59 71.588 168.326 71.7693 168.966 72.132C169.606 72.4947 170.097 72.996 170.438 73.636C170.79 74.2653 170.966 74.98 170.966 75.78ZM169.462 75.476C169.462 74.9213 169.34 74.4467 169.094 74.052C168.849 73.6467 168.513 73.3427 168.086 73.14C167.67 72.9267 167.206 72.82 166.694 72.82C165.958 72.82 165.329 73.0547 164.806 73.524C164.294 73.9933 164.001 74.644 163.926 75.476H169.462ZM177.16 71.572C178.227 71.572 179.091 71.8973 179.752 72.548C180.414 73.188 180.744 74.116 180.744 75.332V80.5H179.304V75.54C179.304 74.6653 179.086 73.9987 178.648 73.54C178.211 73.0707 177.614 72.836 176.856 72.836C176.088 72.836 175.475 73.076 175.016 73.556C174.568 74.036 174.344 74.7347 174.344 75.652V80.5H172.888V71.732H174.344V72.98C174.632 72.532 175.022 72.1853 175.512 71.94C176.014 71.6947 176.563 71.572 177.16 71.572ZM184.899 72.932V78.1C184.899 78.5267 184.989 78.8307 185.171 79.012C185.352 79.1827 185.667 79.268 186.115 79.268H187.187V80.5H185.875C185.064 80.5 184.456 80.3133 184.051 79.94C183.645 79.5667 183.443 78.9533 183.443 78.1V72.932H182.307V71.732H183.443V69.524H184.899V71.732H187.187V72.932H184.899ZM192.055 80.644C191.383 80.644 190.78 80.532 190.247 80.308C189.713 80.0733 189.292 79.7533 188.983 79.348C188.673 78.932 188.503 78.4573 188.471 77.924H189.975C190.017 78.3613 190.22 78.7187 190.583 78.996C190.956 79.2733 191.441 79.412 192.039 79.412C192.593 79.412 193.031 79.2893 193.351 79.044C193.671 78.7987 193.831 78.4893 193.831 78.116C193.831 77.732 193.66 77.4493 193.319 77.268C192.977 77.076 192.449 76.8893 191.735 76.708C191.084 76.5373 190.551 76.3667 190.135 76.196C189.729 76.0147 189.377 75.7533 189.079 75.412C188.791 75.06 188.647 74.6013 188.647 74.036C188.647 73.588 188.78 73.1773 189.047 72.804C189.313 72.4307 189.692 72.1373 190.183 71.924C190.673 71.7 191.233 71.588 191.863 71.588C192.833 71.588 193.617 71.8333 194.215 72.324C194.812 72.8147 195.132 73.4867 195.175 74.34H193.719C193.687 73.8813 193.5 73.5133 193.159 73.236C192.828 72.9587 192.38 72.82 191.815 72.82C191.292 72.82 190.876 72.932 190.567 73.156C190.257 73.38 190.103 73.6733 190.103 74.036C190.103 74.324 190.193 74.564 190.375 74.756C190.567 74.9373 190.801 75.0867 191.079 75.204C191.367 75.3107 191.761 75.4333 192.263 75.572C192.892 75.7427 193.404 75.9133 193.799 76.084C194.193 76.244 194.529 76.4893 194.807 76.82C195.095 77.1507 195.244 77.5827 195.255 78.116C195.255 78.596 195.121 79.028 194.855 79.412C194.588 79.796 194.209 80.1 193.719 80.324C193.239 80.5373 192.684 80.644 192.055 80.644ZM201.032 76.084C201.032 75.188 201.213 74.404 201.576 73.732C201.938 73.0493 202.434 72.5213 203.064 72.148C203.704 71.7747 204.413 71.588 205.192 71.588C205.96 71.588 206.626 71.7533 207.192 72.084C207.757 72.4147 208.178 72.8307 208.456 73.332V71.732H209.928V80.5H208.456V78.868C208.168 79.38 207.736 79.8067 207.16 80.148C206.594 80.4787 205.933 80.644 205.176 80.644C204.397 80.644 203.693 80.452 203.064 80.068C202.434 79.684 201.938 79.1453 201.576 78.452C201.213 77.7587 201.032 76.9693 201.032 76.084ZM208.456 76.1C208.456 75.4387 208.322 74.8627 208.056 74.372C207.789 73.8813 207.426 73.508 206.968 73.252C206.52 72.9853 206.024 72.852 205.48 72.852C204.936 72.852 204.44 72.98 203.992 73.236C203.544 73.492 203.186 73.8653 202.92 74.356C202.653 74.8467 202.52 75.4227 202.52 76.084C202.52 76.756 202.653 77.3427 202.92 77.844C203.186 78.3347 203.544 78.7133 203.992 78.98C204.44 79.236 204.936 79.364 205.48 79.364C206.024 79.364 206.52 79.236 206.968 78.98C207.426 78.7133 207.789 78.3347 208.056 77.844C208.322 77.3427 208.456 76.7613 208.456 76.1ZM207.32 69.988V71.076L203.912 69.252V67.988L207.32 69.988ZM219.918 79.156L222.638 71.732H224.19L220.75 80.5H219.054L215.614 71.732H217.182L219.918 79.156ZM233.623 75.78C233.623 76.0573 233.607 76.3507 233.575 76.66H226.567C226.62 77.524 226.913 78.2013 227.447 78.692C227.991 79.172 228.647 79.412 229.415 79.412C230.044 79.412 230.567 79.268 230.983 78.98C231.409 78.6813 231.708 78.2867 231.879 77.796H233.447C233.212 78.6387 232.743 79.3267 232.039 79.86C231.335 80.3827 230.46 80.644 229.415 80.644C228.583 80.644 227.836 80.4573 227.175 80.084C226.524 79.7107 226.012 79.1827 225.639 78.5C225.265 77.8067 225.079 77.0067 225.079 76.1C225.079 75.1933 225.26 74.3987 225.623 73.716C225.985 73.0333 226.492 72.5107 227.143 72.148C227.804 71.7747 228.561 71.588 229.415 71.588C230.247 71.588 230.983 71.7693 231.623 72.132C232.263 72.4947 232.753 72.996 233.095 73.636C233.447 74.2653 233.623 74.98 233.623 75.78ZM232.119 75.476C232.119 74.9213 231.996 74.4467 231.751 74.052C231.505 73.6467 231.169 73.3427 230.743 73.14C230.327 72.9267 229.863 72.82 229.351 72.82C228.615 72.82 227.985 73.0547 227.463 73.524C226.951 73.9933 226.657 74.644 226.583 75.476H232.119ZM239.817 71.572C240.883 71.572 241.747 71.8973 242.409 72.548C243.07 73.188 243.401 74.116 243.401 75.332V80.5H241.961V75.54C241.961 74.6653 241.742 73.9987 241.305 73.54C240.867 73.0707 240.27 72.836 239.513 72.836C238.745 72.836 238.131 73.076 237.673 73.556C237.225 74.036 237.001 74.7347 237.001 75.652V80.5H235.545V71.732H237.001V72.98C237.289 72.532 237.678 72.1853 238.169 71.94C238.67 71.6947 239.219 71.572 239.817 71.572ZM246.531 70.308C246.254 70.308 246.019 70.212 245.827 70.02C245.635 69.828 245.539 69.5933 245.539 69.316C245.539 69.0387 245.635 68.804 245.827 68.612C246.019 68.42 246.254 68.324 246.531 68.324C246.798 68.324 247.022 68.42 247.203 68.612C247.395 68.804 247.491 69.0387 247.491 69.316C247.491 69.5933 247.395 69.828 247.203 70.02C247.022 70.212 246.798 70.308 246.531 70.308ZM247.235 71.732V80.5H245.779V71.732H247.235ZM251.172 73.156C251.428 72.6547 251.791 72.2653 252.26 71.988C252.74 71.7107 253.322 71.572 254.004 71.572V73.076H253.62C251.988 73.076 251.172 73.9613 251.172 75.732V80.5H249.716V71.732H251.172V73.156Z" fill="white"/>
</g>
<defs>
<filter id="filter0_d_1_1658" x="0" y="0" width="298" height="112" filterUnits="userSpaceOnUse" color-interpolation-filters="sRGB">
<feFlood flood-opacity="0" result="BackgroundImageFix"/>
<feColorMatrix in="SourceAlpha" type="matrix" values="0 0 0 0 0 0 0 0 0 0 0 0 0 0 0 0 0 0 127 0" result="hardAlpha"/>
<feOffset dx="2" dy="-1"/>
<feGaussianBlur stdDeviation="3"/>
<feComposite in2="hardAlpha" operator="out"/>
<feColorMatrix type="matrix" values="0 0 0 0 0.870588 0 0 0 0 0.878431 0 0 0 0 0.882353 0 0 0 1 0"/>
<feBlend mode="normal" in2="BackgroundImageFix" result="effect1_dropShadow_1_1658"/>
<feBlend mode="normal" in="SourceGraphic" in2="effect1_dropShadow_1_1658" result="shape"/>
</filter>
<linearGradient id="paint0_linear_1_1658" x1="4" y1="57" x2="290" y2="57" gradientUnits="userSpaceOnUse">
<stop stop-color="#5570F1"/>
<stop offset="1" stop-color="#65AFFE"/>
</linearGradient>
</defs>
</svg>
