<svg width="273" height="34" viewBox="0 0 273 34" fill="none" xmlns="http://www.w3.org/2000/svg">
<path d="M18 7C18.5523 7 19 7.44772 19 8V24C19 24.2652 19.1054 24.5195 19.293 24.707C19.4805 24.8946 19.7348 25 20 25H36C36.5523 25 37 25.4477 37 26C37 26.5523 36.5523 27 36 27H20C19.2044 27 18.4415 26.6837 17.8789 26.1211C17.3163 25.5585 17 24.7957 17 24V8C17 7.44772 17.4477 7 18 7ZM33.293 13.293C33.6835 12.9024 34.3165 12.9024 34.707 13.293C35.0976 13.6835 35.0976 14.3165 34.707 14.707L29.707 19.707C29.3165 20.0976 28.6835 20.0976 28.293 19.707L25 16.4141L22.707 18.707C22.3165 19.0976 21.6835 19.0976 21.293 18.707C20.9024 18.3165 20.9024 17.6835 21.293 17.293L24.293 14.293L24.3691 14.2246C24.7619 13.9043 25.3409 13.9269 25.707 14.293L29 17.5859L33.293 13.293Z" fill="#7E7C7C"/>
<path d="M56.084 11.742V12.778H53.424V21.5H52.15V12.778H49.476V11.742H56.084ZM57.1762 17.636C57.1762 16.852 57.3349 16.166 57.6522 15.578C57.9696 14.9807 58.4036 14.5187 58.9542 14.192C59.5142 13.8653 60.1349 13.702 60.8162 13.702C61.4882 13.702 62.0716 13.8467 62.5662 14.136C63.0609 14.4253 63.4296 14.7893 63.6722 15.228V13.828H64.9602V21.5H63.6722V20.072C63.4202 20.52 63.0422 20.8933 62.5382 21.192C62.0436 21.4813 61.4649 21.626 60.8022 21.626C60.1209 21.626 59.5049 21.458 58.9542 21.122C58.4036 20.786 57.9696 20.3147 57.6522 19.708C57.3349 19.1013 57.1762 18.4107 57.1762 17.636ZM63.6722 17.65C63.6722 17.0713 63.5556 16.5673 63.3222 16.138C63.0889 15.7087 62.7716 15.382 62.3702 15.158C61.9782 14.9247 61.5442 14.808 61.0682 14.808C60.5922 14.808 60.1582 14.92 59.7662 15.144C59.3742 15.368 59.0616 15.6947 58.8282 16.124C58.5949 16.5533 58.4782 17.0573 58.4782 17.636C58.4782 18.224 58.5949 18.7373 58.8282 19.176C59.0616 19.6053 59.3742 19.9367 59.7662 20.17C60.1582 20.394 60.5922 20.506 61.0682 20.506C61.5442 20.506 61.9782 20.394 62.3702 20.17C62.7716 19.9367 63.0889 19.6053 63.3222 19.176C63.5556 18.7373 63.6722 18.2287 63.6722 17.65ZM68.3872 15.256C68.6485 14.7987 69.0312 14.4253 69.5352 14.136C70.0392 13.8467 70.6132 13.702 71.2572 13.702C71.9478 13.702 72.5685 13.8653 73.1192 14.192C73.6698 14.5187 74.1038 14.9807 74.4212 15.578C74.7385 16.166 74.8972 16.852 74.8972 17.636C74.8972 18.4107 74.7385 19.1013 74.4212 19.708C74.1038 20.3147 73.6652 20.786 73.1052 21.122C72.5545 21.458 71.9385 21.626 71.2572 21.626C70.5945 21.626 70.0112 21.4813 69.5072 21.192C69.0125 20.9027 68.6392 20.534 68.3872 20.086V21.5H67.1132V11.14H68.3872V15.256ZM73.5952 17.636C73.5952 17.0573 73.4785 16.5533 73.2452 16.124C73.0118 15.6947 72.6945 15.368 72.2932 15.144C71.9012 14.92 71.4672 14.808 70.9912 14.808C70.5245 14.808 70.0905 14.9247 69.6892 15.158C69.2972 15.382 68.9798 15.7133 68.7372 16.152C68.5038 16.5813 68.3872 17.0807 68.3872 17.65C68.3872 18.2287 68.5038 18.7373 68.7372 19.176C68.9798 19.6053 69.2972 19.9367 69.6892 20.17C70.0905 20.394 70.5245 20.506 70.9912 20.506C71.4672 20.506 71.9012 20.394 72.2932 20.17C72.6945 19.9367 73.0118 19.6053 73.2452 19.176C73.4785 18.7373 73.5952 18.224 73.5952 17.636ZM77.8481 11.14V21.5H76.5741V11.14H77.8481ZM87.0194 17.37C87.0194 17.6127 87.0054 17.8693 86.9774 18.14H80.8454C80.8921 18.896 81.1487 19.4887 81.6154 19.918C82.0914 20.338 82.6654 20.548 83.3374 20.548C83.8881 20.548 84.3454 20.422 84.7094 20.17C85.0827 19.9087 85.3441 19.5633 85.4934 19.134H86.8654C86.6601 19.8713 86.2494 20.4733 85.6334 20.94C85.0174 21.3973 84.2521 21.626 83.3374 21.626C82.6094 21.626 81.9561 21.4627 81.3774 21.136C80.8081 20.8093 80.3601 20.3473 80.0334 19.75C79.7067 19.1433 79.5434 18.4433 79.5434 17.65C79.5434 16.8567 79.7021 16.1613 80.0194 15.564C80.3367 14.9667 80.7801 14.5093 81.3494 14.192C81.9281 13.8653 82.5907 13.702 83.3374 13.702C84.0654 13.702 84.7094 13.8607 85.2694 14.178C85.8294 14.4953 86.2587 14.934 86.5574 15.494C86.8654 16.0447 87.0194 16.67 87.0194 17.37ZM85.7034 17.104C85.7034 16.6187 85.5961 16.2033 85.3814 15.858C85.1667 15.5033 84.8727 15.2373 84.4994 15.06C84.1354 14.8733 83.7294 14.78 83.2814 14.78C82.6374 14.78 82.0867 14.9853 81.6294 15.396C81.1814 15.8067 80.9247 16.376 80.8594 17.104H85.7034ZM88.225 17.636C88.225 16.852 88.3837 16.166 88.701 15.578C89.0184 14.9807 89.4524 14.5187 90.003 14.192C90.563 13.8653 91.1837 13.702 91.865 13.702C92.537 13.702 93.1204 13.8467 93.615 14.136C94.1097 14.4253 94.4784 14.7893 94.721 15.228V13.828H96.009V21.5H94.721V20.072C94.469 20.52 94.091 20.8933 93.587 21.192C93.0924 21.4813 92.5137 21.626 91.851 21.626C91.1697 21.626 90.5537 21.458 90.003 21.122C89.4524 20.786 89.0184 20.3147 88.701 19.708C88.3837 19.1013 88.225 18.4107 88.225 17.636ZM94.721 17.65C94.721 17.0713 94.6044 16.5673 94.371 16.138C94.1377 15.7087 93.8204 15.382 93.419 15.158C93.027 14.9247 92.593 14.808 92.117 14.808C91.641 14.808 91.207 14.92 90.815 15.144C90.423 15.368 90.1104 15.6947 89.877 16.124C89.6437 16.5533 89.527 17.0573 89.527 17.636C89.527 18.224 89.6437 18.7373 89.877 19.176C90.1104 19.6053 90.423 19.9367 90.815 20.17C91.207 20.394 91.641 20.506 92.117 20.506C92.593 20.506 93.027 20.394 93.419 20.17C93.8204 19.9367 94.1377 19.6053 94.371 19.176C94.6044 18.7373 94.721 18.2287 94.721 17.65ZM104.966 13.828V21.5H103.692V20.366C103.449 20.758 103.109 21.066 102.67 21.29C102.241 21.5047 101.765 21.612 101.242 21.612C100.645 21.612 100.108 21.4907 99.632 21.248C99.156 20.996 98.778 20.6227 98.498 20.128C98.2273 19.6333 98.092 19.0313 98.092 18.322V13.828H99.352V18.154C99.352 18.91 99.5433 19.4933 99.926 19.904C100.309 20.3053 100.831 20.506 101.494 20.506C102.175 20.506 102.712 20.296 103.104 19.876C103.496 19.456 103.692 18.8447 103.692 18.042V13.828H104.966ZM110.373 17.636C110.373 16.852 110.532 16.166 110.849 15.578C111.167 14.9807 111.601 14.5187 112.151 14.192C112.711 13.8653 113.337 13.702 114.027 13.702C114.625 13.702 115.18 13.842 115.693 14.122C116.207 14.3927 116.599 14.752 116.869 15.2V11.14H118.157V21.5H116.869V20.058C116.617 20.5153 116.244 20.8933 115.749 21.192C115.255 21.4813 114.676 21.626 114.013 21.626C113.332 21.626 112.711 21.458 112.151 21.122C111.601 20.786 111.167 20.3147 110.849 19.708C110.532 19.1013 110.373 18.4107 110.373 17.636ZM116.869 17.65C116.869 17.0713 116.753 16.5673 116.519 16.138C116.286 15.7087 115.969 15.382 115.567 15.158C115.175 14.9247 114.741 14.808 114.265 14.808C113.789 14.808 113.355 14.92 112.963 15.144C112.571 15.368 112.259 15.6947 112.025 16.124C111.792 16.5533 111.675 17.0573 111.675 17.636C111.675 18.224 111.792 18.7373 112.025 19.176C112.259 19.6053 112.571 19.9367 112.963 20.17C113.355 20.394 113.789 20.506 114.265 20.506C114.741 20.506 115.175 20.394 115.567 20.17C115.969 19.9367 116.286 19.6053 116.519 19.176C116.753 18.7373 116.869 18.2287 116.869 17.65ZM127.31 17.37C127.31 17.6127 127.296 17.8693 127.268 18.14H121.136C121.183 18.896 121.44 19.4887 121.906 19.918C122.382 20.338 122.956 20.548 123.628 20.548C124.179 20.548 124.636 20.422 125 20.17C125.374 19.9087 125.635 19.5633 125.784 19.134H127.156C126.951 19.8713 126.54 20.4733 125.924 20.94C125.308 21.3973 124.543 21.626 123.628 21.626C122.9 21.626 122.247 21.4627 121.668 21.136C121.099 20.8093 120.651 20.3473 120.324 19.75C119.998 19.1433 119.834 18.4433 119.834 17.65C119.834 16.8567 119.993 16.1613 120.31 15.564C120.628 14.9667 121.071 14.5093 121.64 14.192C122.219 13.8653 122.882 13.702 123.628 13.702C124.356 13.702 125 13.8607 125.56 14.178C126.12 14.4953 126.55 14.934 126.848 15.494C127.156 16.0447 127.31 16.67 127.31 17.37ZM125.994 17.104C125.994 16.6187 125.887 16.2033 125.672 15.858C125.458 15.5033 125.164 15.2373 124.79 15.06C124.426 14.8733 124.02 14.78 123.572 14.78C122.928 14.78 122.378 14.9853 121.92 15.396C121.472 15.8067 121.216 16.376 121.15 17.104H125.994ZM133.998 15.256C134.26 14.7987 134.642 14.4253 135.146 14.136C135.65 13.8467 136.224 13.702 136.868 13.702C137.559 13.702 138.18 13.8653 138.73 14.192C139.281 14.5187 139.715 14.9807 140.032 15.578C140.35 16.166 140.508 16.852 140.508 17.636C140.508 18.4107 140.35 19.1013 140.032 19.708C139.715 20.3147 139.276 20.786 138.716 21.122C138.166 21.458 137.55 21.626 136.868 21.626C136.206 21.626 135.622 21.4813 135.118 21.192C134.624 20.9027 134.25 20.534 133.998 20.086V21.5H132.724V11.14H133.998V15.256ZM139.206 17.636C139.206 17.0573 139.09 16.5533 138.856 16.124C138.623 15.6947 138.306 15.368 137.904 15.144C137.512 14.92 137.078 14.808 136.602 14.808C136.136 14.808 135.702 14.9247 135.3 15.158C134.908 15.382 134.591 15.7133 134.348 16.152C134.115 16.5813 133.998 17.0807 133.998 17.65C133.998 18.2287 134.115 18.7373 134.348 19.176C134.591 19.6053 134.908 19.9367 135.3 20.17C135.702 20.394 136.136 20.506 136.602 20.506C137.078 20.506 137.512 20.394 137.904 20.17C138.306 19.9367 138.623 19.6053 138.856 19.176C139.09 18.7373 139.206 18.224 139.206 17.636ZM145.531 21.626C144.813 21.626 144.159 21.4627 143.571 21.136C142.993 20.8093 142.535 20.3473 142.199 19.75C141.873 19.1433 141.709 18.4433 141.709 17.65C141.709 16.866 141.877 16.1753 142.213 15.578C142.559 14.9713 143.025 14.5093 143.613 14.192C144.201 13.8653 144.859 13.702 145.587 13.702C146.315 13.702 146.973 13.8653 147.561 14.192C148.149 14.5093 148.611 14.9667 148.947 15.564C149.293 16.1613 149.465 16.8567 149.465 17.65C149.465 18.4433 149.288 19.1433 148.933 19.75C148.588 20.3473 148.117 20.8093 147.519 21.136C146.922 21.4627 146.259 21.626 145.531 21.626ZM145.531 20.506C145.989 20.506 146.418 20.3987 146.819 20.184C147.221 19.9693 147.543 19.6473 147.785 19.218C148.037 18.7887 148.163 18.266 148.163 17.65C148.163 17.034 148.042 16.5113 147.799 16.082C147.557 15.6527 147.239 15.3353 146.847 15.13C146.455 14.9153 146.031 14.808 145.573 14.808C145.107 14.808 144.677 14.9153 144.285 15.13C143.903 15.3353 143.595 15.6527 143.361 16.082C143.128 16.5113 143.011 17.034 143.011 17.65C143.011 18.2753 143.123 18.8027 143.347 19.232C143.581 19.6613 143.889 19.9833 144.271 20.198C144.654 20.4033 145.074 20.506 145.531 20.506ZM152.415 15.074C152.639 14.6353 152.956 14.2947 153.367 14.052C153.787 13.8093 154.295 13.688 154.893 13.688V15.004H154.557C153.129 15.004 152.415 15.7787 152.415 17.328V21.5H151.141V13.828H152.415V15.074ZM155.887 17.636C155.887 16.852 156.046 16.166 156.363 15.578C156.68 14.9807 157.114 14.5187 157.665 14.192C158.225 13.8653 158.85 13.702 159.541 13.702C160.138 13.702 160.694 13.842 161.207 14.122C161.72 14.3927 162.112 14.752 162.383 15.2V11.14H163.671V21.5H162.383V20.058C162.131 20.5153 161.758 20.8933 161.263 21.192C160.768 21.4813 160.19 21.626 159.527 21.626C158.846 21.626 158.225 21.458 157.665 21.122C157.114 20.786 156.68 20.3147 156.363 19.708C156.046 19.1013 155.887 18.4107 155.887 17.636ZM162.383 17.65C162.383 17.0713 162.266 16.5673 162.033 16.138C161.8 15.7087 161.482 15.382 161.081 15.158C160.689 14.9247 160.255 14.808 159.779 14.808C159.303 14.808 158.869 14.92 158.477 15.144C158.085 15.368 157.772 15.6947 157.539 16.124C157.306 16.5533 157.189 17.0573 157.189 17.636C157.189 18.224 157.306 18.7373 157.539 19.176C157.772 19.6053 158.085 19.9367 158.477 20.17C158.869 20.394 159.303 20.506 159.779 20.506C160.255 20.506 160.689 20.394 161.081 20.17C161.482 19.9367 161.8 19.6053 162.033 19.176C162.266 18.7373 162.383 18.2287 162.383 17.65Z" fill="#7E7C7C"/>
<rect x="253" y="7" width="20" height="20" rx="10" fill="url(#paint0_linear_1_256)"/>
<path d="M260.611 15.01C260.651 14.39 260.888 13.9067 261.321 13.56C261.761 13.2133 262.321 13.04 263.001 13.04C263.468 13.04 263.871 13.1233 264.211 13.29C264.551 13.4567 264.808 13.6833 264.981 13.97C265.155 14.2567 265.241 14.58 265.241 14.94C265.241 15.3533 265.131 15.7067 264.911 16C264.691 16.2933 264.428 16.49 264.121 16.59V16.63C264.515 16.75 264.821 16.97 265.041 17.29C265.261 17.6033 265.371 18.0067 265.371 18.5C265.371 18.8933 265.281 19.2433 265.101 19.55C264.921 19.8567 264.655 20.1 264.301 20.28C263.948 20.4533 263.525 20.54 263.031 20.54C262.311 20.54 261.718 20.3567 261.251 19.99C260.791 19.6167 260.545 19.0833 260.511 18.39H261.611C261.638 18.7433 261.775 19.0333 262.021 19.26C262.268 19.48 262.601 19.59 263.021 19.59C263.428 19.59 263.741 19.48 263.961 19.26C264.181 19.0333 264.291 18.7433 264.291 18.39C264.291 17.9233 264.141 17.5933 263.841 17.4C263.548 17.2 263.095 17.1 262.481 17.1H262.221V16.16H262.491C263.031 16.1533 263.441 16.0633 263.721 15.89C264.008 15.7167 264.151 15.4433 264.151 15.07C264.151 14.75 264.048 14.4967 263.841 14.31C263.635 14.1167 263.341 14.02 262.961 14.02C262.588 14.02 262.298 14.1167 262.091 14.31C261.885 14.4967 261.761 14.73 261.721 15.01H260.611Z" fill="white"/>
<defs>
<linearGradient id="paint0_linear_1_256" x1="253" y1="17" x2="273" y2="17" gradientUnits="userSpaceOnUse">
<stop stop-color="#5570F1"/>
<stop offset="1" stop-color="#65AFFE"/>
</linearGradient>
</defs>
</svg>
